<?xml version="1.0" encoding="UTF-8"?>
<svg width="440" height="252" version="1.1" viewBox="0 0 116.42 66.675" xmlns="http://www.w3.org/2000/svg" xmlns:cc="http://creativecommons.org/ns#" xmlns:dc="http://purl.org/dc/elements/1.1/" xmlns:rdf="http://www.w3.org/1999/02/22-rdf-syntax-ns#" xmlns:xlink="http://www.w3.org/1999/xlink">
 <defs>
  <linearGradient id="b" x1="6.5565e-6" x2="440" y1="252" y2="2.3844e-5" gradientUnits="userSpaceOnUse">
   <stop stop-color="#3081ED" offset="0"/>
   <stop stop-color="#fff" stop-opacity="0" offset="1"/>
  </linearGradient>
 </defs>
 <metadata>
  <rdf:RDF>
   <cc:Work rdf:about="">
    <dc:format>image/svg+xml</dc:format>
    <dc:type rdf:resource="http://purl.org/dc/dcmitype/StillImage"/>
    <dc:title/>
   </cc:Work>
  </rdf:RDF>
 </metadata>
 <g transform="translate(-31.75 -78.543)">
  <g transform="matrix(.26458 0 0 .26458 31.75 78.543)" fill="none">
   <rect width="440" height="252" rx="4" fill="#6fd6cf"/>
   <rect width="440" height="252" rx="4" fill="url(#b)"/>
   <mask id="a" fill="#ffffff">
    <rect width="440" height="252" rx="4"/>
   </mask>
   <rect width="440" height="252" rx="4" mask="url(#a)" stroke="#fff" stroke-width="16"/>
   <g id="c" fill="#fff" stroke="#000" stroke-linecap="round" stroke-linejoin="round" stroke-opacity=".55" style="white-space:pre" aria-label="Welcome ImRock to Welcomer Support Guild You are the 256th member!">
    <path d="m135.38 173.19q-0.357 0-0.567-0.21t-0.252-0.483l-2.289-13.419q-0.021-0.063-0.021-0.084 0-0.042 0-0.063 0-0.168 0.126-0.294 0.147-0.147 0.315-0.147h2.604q0.588 0 0.651 0.462l1.365 8.19 1.512-4.83q0.063-0.168 0.21-0.357 0.147-0.21 0.483-0.21h1.512q0.357 0 0.504 0.21 0.147 0.189 0.189 0.357l1.512 4.83 1.365-8.19q0.063-0.462 0.651-0.462h2.604q0.189 0 0.315 0.147 0.147 0.126 0.147 0.294 0 0.021-0.021 0.063 0 0.021 0 0.084l-2.289 13.419q-0.042 0.273-0.252 0.483t-0.567 0.21h-1.995q-0.357 0-0.546-0.189t-0.252-0.357l-2.121-6.006-2.121 6.006q-0.063 0.168-0.252 0.357-0.168 0.189-0.525 0.189z"/>
    <path d="m154.91 173.4q-2.478 0-3.948-1.344t-1.533-3.99q0-0.147 0-0.378t0-0.357q0.063-1.659 0.735-2.835 0.693-1.197 1.89-1.806 1.218-0.63 2.835-0.63 1.848 0 3.045 0.735 1.218 0.735 1.827 1.995t0.609 2.877v0.504q0 0.231-0.147 0.378t-0.378 0.147h-6.72q0 0.021 0 0.063t0 0.084q0.021 0.609 0.21 1.113 0.21 0.504 0.588 0.798 0.399 0.294 0.966 0.294 0.42 0 0.693-0.126 0.294-0.147 0.483-0.315 0.189-0.189 0.294-0.315 0.189-0.231 0.294-0.273 0.126-0.063 0.378-0.063h2.604q0.21 0 0.336 0.126 0.147 0.126 0.126 0.336-0.021 0.357-0.357 0.861t-0.987 1.008q-0.63 0.483-1.596 0.798t-2.247 0.315zm-1.785-6.783h3.549v-0.042q0-0.693-0.21-1.176-0.189-0.504-0.609-0.777-0.399-0.273-0.966-0.273-0.546 0-0.945 0.273t-0.609 0.777q-0.21 0.483-0.21 1.176z"/>
    <path d="m162.87 173.19q-0.231 0-0.378-0.147-0.147-0.168-0.147-0.378v-13.86q0-0.231 0.147-0.378t0.378-0.147h2.478q0.231 0 0.378 0.147t0.147 0.378v13.86q0 0.21-0.147 0.378-0.147 0.147-0.378 0.147z"/>
    <path d="m173.37 173.4q-1.554 0-2.751-0.567t-1.911-1.638q-0.693-1.092-0.756-2.604-0.021-0.336-0.021-0.84 0-0.525 0.021-0.861 0.063-1.533 0.756-2.604 0.693-1.092 1.89-1.659 1.218-0.567 2.772-0.567 1.449 0 2.478 0.42 1.05 0.399 1.68 1.008 0.651 0.609 0.966 1.26 0.336 0.63 0.357 1.113 0.021 0.21-0.147 0.378-0.168 0.147-0.378 0.147h-2.667q-0.231 0-0.357-0.105t-0.231-0.315q-0.252-0.651-0.651-0.924-0.378-0.273-0.987-0.273-0.84 0-1.302 0.546-0.441 0.546-0.483 1.68-0.021 0.84 0 1.491 0.063 1.155 0.504 1.68t1.281 0.525q0.651 0 1.029-0.273 0.378-0.294 0.609-0.924 0.105-0.21 0.231-0.315t0.357-0.105h2.667q0.21 0 0.378 0.147t0.147 0.378q-0.021 0.336-0.21 0.819t-0.588 1.008-1.05 0.966q-0.63 0.441-1.533 0.735-0.903 0.273-2.1 0.273z"/>
    <path d="m185.9 173.4q-1.764 0-2.982-0.567-1.197-0.567-1.848-1.617-0.63-1.071-0.714-2.541-0.021-0.42-0.021-0.945 0-0.546 0.021-0.945 0.084-1.491 0.756-2.541t1.869-1.617q1.218-0.567 2.919-0.567 1.722 0 2.919 0.567 1.218 0.567 1.89 1.617t0.756 2.541q0.021 0.399 0.021 0.945 0 0.525-0.021 0.945-0.084 1.47-0.735 2.541-0.63 1.05-1.848 1.617-1.197 0.567-2.982 0.567zm0-2.562q0.945 0 1.365-0.567 0.441-0.567 0.504-1.701 0.021-0.315 0.021-0.84t-0.021-0.84q-0.063-1.113-0.504-1.68-0.42-0.588-1.365-0.588-0.903 0-1.365 0.588-0.441 0.567-0.483 1.68-0.021 0.315-0.021 0.84t0.021 0.84q0.042 1.134 0.483 1.701 0.462 0.567 1.365 0.567z"/>
    <path d="m194.09 173.19q-0.231 0-0.378-0.147-0.147-0.168-0.147-0.378v-9.87q0-0.231 0.147-0.378t0.378-0.147h2.289q0.231 0 0.378 0.147t0.147 0.378v0.714q0.42-0.567 1.176-0.987 0.756-0.441 1.785-0.462 2.436-0.063 3.339 1.806 0.483-0.798 1.365-1.302 0.903-0.504 1.974-0.504 1.092 0 1.953 0.504 0.882 0.483 1.407 1.512 0.525 1.008 0.525 2.625v5.964q0 0.21-0.147 0.378-0.147 0.147-0.378 0.147h-2.436q-0.231 0-0.399-0.147-0.147-0.168-0.147-0.378v-5.817q0-0.735-0.21-1.155-0.21-0.441-0.567-0.63t-0.819-0.189q-0.378 0-0.756 0.189-0.357 0.189-0.588 0.63-0.21 0.42-0.21 1.155v5.817q0 0.21-0.147 0.378-0.147 0.147-0.378 0.147h-2.436q-0.231 0-0.378-0.147-0.147-0.168-0.147-0.378v-5.817q0-0.735-0.231-1.155-0.231-0.441-0.588-0.63t-0.777-0.189q-0.399 0-0.777 0.189-0.357 0.189-0.588 0.63-0.21 0.42-0.21 1.134v5.838q0 0.21-0.168 0.378-0.147 0.147-0.357 0.147z"/>
    <path d="m217.84 173.4q-2.478 0-3.948-1.344t-1.533-3.99q0-0.147 0-0.378t0-0.357q0.063-1.659 0.735-2.835 0.693-1.197 1.89-1.806 1.218-0.63 2.835-0.63 1.848 0 3.045 0.735 1.218 0.735 1.827 1.995t0.609 2.877v0.504q0 0.231-0.147 0.378t-0.378 0.147h-6.72q0 0.021 0 0.063t0 0.084q0.021 0.609 0.21 1.113 0.21 0.504 0.588 0.798 0.399 0.294 0.966 0.294 0.42 0 0.693-0.126 0.294-0.147 0.483-0.315 0.189-0.189 0.294-0.315 0.189-0.231 0.294-0.273 0.126-0.063 0.378-0.063h2.604q0.21 0 0.336 0.126 0.147 0.126 0.126 0.336-0.021 0.357-0.357 0.861t-0.987 1.008q-0.63 0.483-1.596 0.798t-2.247 0.315zm-1.785-6.783h3.549v-0.042q0-0.693-0.21-1.176-0.189-0.504-0.609-0.777-0.399-0.273-0.966-0.273-0.546 0-0.945 0.273t-0.609 0.777q-0.21 0.483-0.21 1.176z"/>
    <path d="m230.51 173.19q-0.231 0-0.378-0.147-0.147-0.168-0.147-0.378v-13.65q0-0.231 0.147-0.378t0.378-0.147h2.814q0.231 0 0.378 0.147 0.168 0.147 0.168 0.378v13.65q0 0.21-0.168 0.378-0.147 0.147-0.378 0.147z"/>
    <path d="m237.08 173.19q-0.231 0-0.378-0.147-0.147-0.168-0.147-0.378v-9.87q0-0.231 0.147-0.378t0.378-0.147h2.289q0.231 0 0.378 0.147t0.147 0.378v0.714q0.42-0.567 1.176-0.987 0.756-0.441 1.785-0.462 2.436-0.063 3.339 1.806 0.483-0.798 1.365-1.302 0.903-0.504 1.974-0.504 1.092 0 1.953 0.504 0.882 0.483 1.407 1.512 0.525 1.008 0.525 2.625v5.964q0 0.21-0.147 0.378-0.147 0.147-0.378 0.147h-2.436q-0.231 0-0.399-0.147-0.147-0.168-0.147-0.378v-5.817q0-0.735-0.21-1.155-0.21-0.441-0.567-0.63t-0.819-0.189q-0.378 0-0.756 0.189-0.357 0.189-0.588 0.63-0.21 0.42-0.21 1.155v5.817q0 0.21-0.147 0.378-0.147 0.147-0.378 0.147h-2.436q-0.231 0-0.378-0.147-0.147-0.168-0.147-0.378v-5.817q0-0.735-0.231-1.155-0.231-0.441-0.588-0.63t-0.777-0.189q-0.399 0-0.777 0.189-0.357 0.189-0.588 0.63-0.21 0.42-0.21 1.134v5.838q0 0.21-0.168 0.378-0.147 0.147-0.357 0.147z"/>
    <path d="m256.55 173.19q-0.231 0-0.378-0.147-0.147-0.168-0.147-0.378v-13.65q0-0.231 0.147-0.378t0.378-0.147h5.712q2.73 0 4.284 1.26 1.554 1.239 1.554 3.528 0 1.491-0.714 2.52t-1.89 1.554l2.877 5.166q0.063 0.126 0.063 0.231 0 0.168-0.147 0.315-0.126 0.126-0.294 0.126h-2.793q-0.399 0-0.588-0.189-0.189-0.21-0.273-0.378l-2.394-4.62h-2.142v4.662q0 0.21-0.168 0.378-0.147 0.147-0.378 0.147zm3.255-8.169h2.415q0.987 0 1.47-0.483 0.504-0.483 0.504-1.302t-0.483-1.323q-0.462-0.504-1.491-0.504h-2.415z"/>
    <path d="m275.32 173.4q-1.764 0-2.982-0.567-1.197-0.567-1.848-1.617-0.63-1.071-0.714-2.541-0.021-0.42-0.021-0.945 0-0.546 0.021-0.945 0.084-1.491 0.756-2.541t1.869-1.617q1.218-0.567 2.919-0.567 1.722 0 2.919 0.567 1.218 0.567 1.89 1.617t0.756 2.541q0.021 0.399 0.021 0.945 0 0.525-0.021 0.945-0.084 1.47-0.735 2.541-0.63 1.05-1.848 1.617-1.197 0.567-2.982 0.567zm0-2.562q0.945 0 1.365-0.567 0.441-0.567 0.504-1.701 0.021-0.315 0.021-0.84t-0.021-0.84q-0.063-1.113-0.504-1.68-0.42-0.588-1.365-0.588-0.903 0-1.365 0.588-0.441 0.567-0.483 1.68-0.021 0.315-0.021 0.84t0.021 0.84q0.042 1.134 0.483 1.701 0.462 0.567 1.365 0.567z"/>
    <path d="m288 173.4q-1.554 0-2.751-0.567t-1.911-1.638q-0.693-1.092-0.756-2.604-0.021-0.336-0.021-0.84 0-0.525 0.021-0.861 0.063-1.533 0.756-2.604 0.693-1.092 1.89-1.659 1.218-0.567 2.772-0.567 1.449 0 2.478 0.42 1.05 0.399 1.68 1.008 0.651 0.609 0.966 1.26 0.336 0.63 0.357 1.113 0.021 0.21-0.147 0.378-0.168 0.147-0.378 0.147h-2.667q-0.231 0-0.357-0.105t-0.231-0.315q-0.252-0.651-0.651-0.924-0.378-0.273-0.987-0.273-0.84 0-1.302 0.546-0.441 0.546-0.483 1.68-0.021 0.84 0 1.491 0.063 1.155 0.504 1.68t1.281 0.525q0.651 0 1.029-0.273 0.378-0.294 0.609-0.924 0.105-0.21 0.231-0.315t0.357-0.105h2.667q0.21 0 0.378 0.147t0.147 0.378q-0.021 0.336-0.21 0.819t-0.588 1.008-1.05 0.966q-0.63 0.441-1.533 0.735-0.903 0.273-2.1 0.273z"/>
    <path d="m295.9 173.19q-0.231 0-0.378-0.147-0.147-0.168-0.147-0.378v-13.86q0-0.231 0.147-0.378t0.378-0.147h2.436q0.21 0 0.357 0.147 0.168 0.147 0.168 0.378v7.035l2.919-3.213q0.126-0.147 0.273-0.252t0.42-0.105h2.814q0.189 0 0.315 0.147 0.147 0.126 0.147 0.315 0 0.084-0.042 0.189-0.021 0.105-0.126 0.168l-3.78 4.074 4.305 5.229q0.168 0.168 0.168 0.315 0 0.21-0.147 0.357-0.126 0.126-0.336 0.126h-2.877q-0.315 0-0.462-0.105-0.147-0.126-0.273-0.252l-3.318-3.99v3.822q0 0.21-0.168 0.378-0.147 0.147-0.357 0.147z"/>
    <path d="m87.131 197.19q-1.344 0-2.331-0.42-0.966-0.441-1.491-1.344-0.525-0.924-0.525-2.373v-4.032h-1.638q-0.231 0-0.399-0.147-0.147-0.147-0.147-0.378v-1.701q0-0.231 0.147-0.378 0.168-0.147 0.399-0.147h1.638v-3.465q0-0.231 0.147-0.378 0.168-0.147 0.378-0.147h2.436q0.231 0 0.378 0.147t0.147 0.378v3.465h2.625q0.231 0 0.378 0.147 0.168 0.147 0.168 0.378v1.701q0 0.231-0.168 0.378-0.147 0.147-0.378 0.147h-2.625v3.738q0 0.714 0.273 1.134t0.924 0.42h1.617q0.231 0 0.378 0.147t0.147 0.378v1.827q0 0.21-0.147 0.378-0.147 0.147-0.378 0.147z"/>
    <path d="m96.518 197.4q-1.764 0-2.982-0.567-1.197-0.567-1.848-1.617-0.63-1.071-0.714-2.541-0.021-0.42-0.021-0.945 0-0.546 0.021-0.945 0.084-1.491 0.756-2.541t1.869-1.617q1.218-0.567 2.919-0.567 1.722 0 2.919 0.567 1.218 0.567 1.89 1.617t0.756 2.541q0.021 0.399 0.021 0.945 0 0.525-0.021 0.945-0.084 1.47-0.735 2.541-0.63 1.05-1.848 1.617-1.197 0.567-2.982 0.567zm0-2.562q0.945 0 1.365-0.567 0.441-0.567 0.504-1.701 0.021-0.315 0.021-0.84t-0.021-0.84q-0.063-1.113-0.504-1.68-0.42-0.588-1.365-0.588-0.903 0-1.365 0.588-0.441 0.567-0.483 1.68-0.021 0.315-0.021 0.84t0.021 0.84q0.042 1.134 0.483 1.701 0.462 0.567 1.365 0.567z"/>
    <path d="m111.09 197.19q-0.357 0-0.567-0.21t-0.252-0.483l-2.289-13.419q-0.021-0.063-0.021-0.084 0-0.042 0-0.063 0-0.168 0.126-0.294 0.147-0.147 0.315-0.147h2.604q0.588 0 0.651 0.462l1.365 8.19 1.512-4.83q0.063-0.168 0.21-0.357 0.147-0.21 0.483-0.21h1.512q0.357 0 0.504 0.21 0.147 0.189 0.189 0.357l1.512 4.83 1.365-8.19q0.063-0.462 0.651-0.462h2.604q0.189 0 0.315 0.147 0.147 0.126 0.147 0.294 0 0.021-0.021 0.063 0 0.021 0 0.084l-2.289 13.419q-0.042 0.273-0.252 0.483t-0.567 0.21h-1.995q-0.357 0-0.546-0.189t-0.252-0.357l-2.121-6.006-2.121 6.006q-0.063 0.168-0.252 0.357-0.168 0.189-0.525 0.189z"/>
    <path d="m130.62 197.4q-2.478 0-3.948-1.344t-1.533-3.99q0-0.147 0-0.378t0-0.357q0.063-1.659 0.735-2.835 0.693-1.197 1.89-1.806 1.218-0.63 2.835-0.63 1.848 0 3.045 0.735 1.218 0.735 1.827 1.995t0.609 2.877v0.504q0 0.231-0.147 0.378t-0.378 0.147h-6.72q0 0.021 0 0.063t0 0.084q0.021 0.609 0.21 1.113 0.21 0.504 0.588 0.798 0.399 0.294 0.966 0.294 0.42 0 0.693-0.126 0.294-0.147 0.483-0.315 0.189-0.189 0.294-0.315 0.189-0.231 0.294-0.273 0.126-0.063 0.378-0.063h2.604q0.21 0 0.336 0.126 0.147 0.126 0.126 0.336-0.021 0.357-0.357 0.861t-0.987 1.008q-0.63 0.483-1.596 0.798t-2.247 0.315zm-1.785-6.783h3.549v-0.042q0-0.693-0.21-1.176-0.189-0.504-0.609-0.777-0.399-0.273-0.966-0.273-0.546 0-0.945 0.273t-0.609 0.777q-0.21 0.483-0.21 1.176z"/>
    <path d="m138.58 197.19q-0.231 0-0.378-0.147-0.147-0.168-0.147-0.378v-13.86q0-0.231 0.147-0.378t0.378-0.147h2.478q0.231 0 0.378 0.147t0.147 0.378v13.86q0 0.21-0.147 0.378-0.147 0.147-0.378 0.147z"/>
    <path d="m149.08 197.4q-1.554 0-2.751-0.567t-1.911-1.638q-0.693-1.092-0.756-2.604-0.021-0.336-0.021-0.84 0-0.525 0.021-0.861 0.063-1.533 0.756-2.604 0.693-1.092 1.89-1.659 1.218-0.567 2.772-0.567 1.449 0 2.478 0.42 1.05 0.399 1.68 1.008 0.651 0.609 0.966 1.26 0.336 0.63 0.357 1.113 0.021 0.21-0.147 0.378-0.168 0.147-0.378 0.147h-2.667q-0.231 0-0.357-0.105t-0.231-0.315q-0.252-0.651-0.651-0.924-0.378-0.273-0.987-0.273-0.84 0-1.302 0.546-0.441 0.546-0.483 1.68-0.021 0.84 0 1.491 0.063 1.155 0.504 1.68t1.281 0.525q0.651 0 1.029-0.273 0.378-0.294 0.609-0.924 0.105-0.21 0.231-0.315t0.357-0.105h2.667q0.21 0 0.378 0.147t0.147 0.378q-0.021 0.336-0.21 0.819t-0.588 1.008-1.05 0.966q-0.63 0.441-1.533 0.735-0.903 0.273-2.1 0.273z"/>
    <path d="m161.62 197.4q-1.764 0-2.982-0.567-1.197-0.567-1.848-1.617-0.63-1.071-0.714-2.541-0.021-0.42-0.021-0.945 0-0.546 0.021-0.945 0.084-1.491 0.756-2.541t1.869-1.617q1.218-0.567 2.919-0.567 1.722 0 2.919 0.567 1.218 0.567 1.89 1.617t0.756 2.541q0.021 0.399 0.021 0.945 0 0.525-0.021 0.945-0.084 1.47-0.735 2.541-0.63 1.05-1.848 1.617-1.197 0.567-2.982 0.567zm0-2.562q0.945 0 1.365-0.567 0.441-0.567 0.504-1.701 0.021-0.315 0.021-0.84t-0.021-0.84q-0.063-1.113-0.504-1.68-0.42-0.588-1.365-0.588-0.903 0-1.365 0.588-0.441 0.567-0.483 1.68-0.021 0.315-0.021 0.84t0.021 0.84q0.042 1.134 0.483 1.701 0.462 0.567 1.365 0.567z"/>
    <path d="m169.81 197.19q-0.231 0-0.378-0.147-0.147-0.168-0.147-0.378v-9.87q0-0.231 0.147-0.378t0.378-0.147h2.289q0.231 0 0.378 0.147t0.147 0.378v0.714q0.42-0.567 1.176-0.987 0.756-0.441 1.785-0.462 2.436-0.063 3.339 1.806 0.483-0.798 1.365-1.302 0.903-0.504 1.974-0.504 1.092 0 1.953 0.504 0.882 0.483 1.407 1.512 0.525 1.008 0.525 2.625v5.964q0 0.21-0.147 0.378-0.147 0.147-0.378 0.147h-2.436q-0.231 0-0.399-0.147-0.147-0.168-0.147-0.378v-5.817q0-0.735-0.21-1.155-0.21-0.441-0.567-0.63t-0.819-0.189q-0.378 0-0.756 0.189-0.357 0.189-0.588 0.63-0.21 0.42-0.21 1.155v5.817q0 0.21-0.147 0.378-0.147 0.147-0.378 0.147h-2.436q-0.231 0-0.378-0.147-0.147-0.168-0.147-0.378v-5.817q0-0.735-0.231-1.155-0.231-0.441-0.588-0.63t-0.777-0.189q-0.399 0-0.777 0.189-0.357 0.189-0.588 0.63-0.21 0.42-0.21 1.134v5.838q0 0.21-0.168 0.378-0.147 0.147-0.357 0.147z"/>
    <path d="m193.56 197.4q-2.478 0-3.948-1.344t-1.533-3.99q0-0.147 0-0.378t0-0.357q0.063-1.659 0.735-2.835 0.693-1.197 1.89-1.806 1.218-0.63 2.835-0.63 1.848 0 3.045 0.735 1.218 0.735 1.827 1.995t0.609 2.877v0.504q0 0.231-0.147 0.378t-0.378 0.147h-6.72q0 0.021 0 0.063t0 0.084q0.021 0.609 0.21 1.113 0.21 0.504 0.588 0.798 0.399 0.294 0.966 0.294 0.42 0 0.693-0.126 0.294-0.147 0.483-0.315 0.189-0.189 0.294-0.315 0.189-0.231 0.294-0.273 0.126-0.063 0.378-0.063h2.604q0.21 0 0.336 0.126 0.147 0.126 0.126 0.336-0.021 0.357-0.357 0.861t-0.987 1.008q-0.63 0.483-1.596 0.798t-2.247 0.315zm-1.785-6.783h3.549v-0.042q0-0.693-0.21-1.176-0.189-0.504-0.609-0.777-0.399-0.273-0.966-0.273-0.546 0-0.945 0.273t-0.609 0.777q-0.21 0.483-0.21 1.176z"/>
    <path d="m201.52 197.19q-0.231 0-0.378-0.147-0.147-0.168-0.147-0.378v-9.87q0-0.21 0.147-0.357 0.147-0.168 0.378-0.168h2.415q0.231 0 0.378 0.168 0.168 0.147 0.168 0.357v0.84q0.546-0.651 1.323-1.008 0.798-0.357 1.785-0.357h0.924q0.231 0 0.378 0.147t0.147 0.378v2.163q0 0.21-0.147 0.378-0.147 0.147-0.378 0.147h-2.037q-0.861 0-1.344 0.483-0.462 0.462-0.462 1.323v5.376q0 0.21-0.168 0.378-0.147 0.147-0.378 0.147z"/>
    <path d="m220.29 197.4q-2.1 0-3.486-0.588-1.386-0.609-2.1-1.575t-0.756-2.058q0-0.168 0.126-0.294 0.147-0.147 0.336-0.147h2.646q0.294 0 0.441 0.105 0.168 0.105 0.294 0.273 0.168 0.315 0.462 0.609 0.315 0.294 0.819 0.483 0.504 0.168 1.218 0.168 1.218 0 1.827-0.378 0.63-0.378 0.63-1.029 0-0.483-0.336-0.777t-1.092-0.525q-0.735-0.252-1.974-0.504-1.596-0.336-2.73-0.861-1.113-0.546-1.701-1.407-0.588-0.882-0.588-2.184 0-1.281 0.714-2.289 0.735-1.008 2.037-1.575t3.087-0.567q1.449 0 2.541 0.378 1.113 0.378 1.869 1.008t1.134 1.344q0.399 0.693 0.42 1.365 0 0.168-0.126 0.315-0.105 0.126-0.315 0.126h-2.772q-0.231 0-0.399-0.084t-0.294-0.273q-0.126-0.462-0.672-0.798-0.525-0.357-1.386-0.357-0.924 0-1.449 0.336-0.504 0.315-0.504 0.987 0 0.42 0.273 0.735 0.294 0.315 0.945 0.546 0.672 0.231 1.827 0.483 1.911 0.357 3.087 0.903 1.176 0.525 1.722 1.386 0.567 0.84 0.567 2.121 0 1.428-0.819 2.457t-2.247 1.596q-1.407 0.546-3.276 0.546z"/>
    <path d="m232.51 197.4q-1.197 0-2.142-0.546-0.924-0.546-1.449-1.596-0.525-1.071-0.525-2.604v-5.859q0-0.231 0.147-0.378t0.378-0.147h2.625q0.231 0 0.378 0.147 0.168 0.147 0.168 0.378v5.733q0 2.058 1.827 2.058 0.861 0 1.365-0.525 0.525-0.546 0.525-1.533v-5.733q0-0.231 0.147-0.378t0.378-0.147h2.625q0.231 0 0.378 0.147t0.147 0.378v9.87q0 0.21-0.147 0.378-0.147 0.147-0.378 0.147h-2.436q-0.21 0-0.378-0.147-0.147-0.168-0.147-0.378v-0.798q-0.546 0.756-1.428 1.155-0.861 0.378-2.058 0.378z"/>
    <path d="m242.49 201.18q-0.231 0-0.378-0.168-0.147-0.147-0.147-0.357v-13.86q0-0.231 0.147-0.378t0.378-0.147h2.373q0.21 0 0.357 0.147 0.168 0.147 0.168 0.378v0.756q0.504-0.63 1.302-1.05 0.798-0.441 1.953-0.441 1.05 0 1.848 0.336 0.798 0.315 1.365 0.945 0.588 0.63 0.903 1.533t0.357 2.079q0.021 0.42 0.021 0.777t-0.021 0.777q-0.042 1.134-0.357 2.037t-0.882 1.533-1.386 0.987q-0.798 0.336-1.848 0.336-1.029 0-1.806-0.357-0.756-0.378-1.26-1.05v4.662q0 0.21-0.147 0.357-0.147 0.168-0.378 0.168zm5.019-6.594q0.714 0 1.113-0.294t0.567-0.798q0.189-0.504 0.231-1.113 0.042-0.651 0-1.302-0.042-0.609-0.231-1.113-0.168-0.504-0.567-0.798t-1.113-0.294q-0.672 0-1.092 0.315-0.42 0.294-0.609 0.777t-0.231 1.05q-0.021 0.399-0.021 0.777t0.021 0.798q0.021 0.525 0.231 0.987 0.21 0.441 0.63 0.735 0.42 0.273 1.071 0.273z"/>
    <path d="m255.74 201.18q-0.231 0-0.378-0.168-0.147-0.147-0.147-0.357v-13.86q0-0.231 0.147-0.378t0.378-0.147h2.373q0.21 0 0.357 0.147 0.168 0.147 0.168 0.378v0.756q0.504-0.63 1.302-1.05 0.798-0.441 1.953-0.441 1.05 0 1.848 0.336 0.798 0.315 1.365 0.945 0.588 0.63 0.903 1.533t0.357 2.079q0.021 0.42 0.021 0.777t-0.021 0.777q-0.042 1.134-0.357 2.037t-0.882 1.533-1.386 0.987q-0.798 0.336-1.848 0.336-1.029 0-1.806-0.357-0.756-0.378-1.26-1.05v4.662q0 0.21-0.147 0.357-0.147 0.168-0.378 0.168zm5.019-6.594q0.714 0 1.113-0.294t0.567-0.798q0.189-0.504 0.231-1.113 0.042-0.651 0-1.302-0.042-0.609-0.231-1.113-0.168-0.504-0.567-0.798t-1.113-0.294q-0.672 0-1.092 0.315-0.42 0.294-0.609 0.777t-0.231 1.05q-0.021 0.399-0.021 0.777t0.021 0.798q0.021 0.525 0.231 0.987 0.21 0.441 0.63 0.735 0.42 0.273 1.071 0.273z"/>
    <path d="m273.63 197.4q-1.764 0-2.982-0.567-1.197-0.567-1.848-1.617-0.63-1.071-0.714-2.541-0.021-0.42-0.021-0.945 0-0.546 0.021-0.945 0.084-1.491 0.756-2.541t1.869-1.617q1.218-0.567 2.919-0.567 1.722 0 2.919 0.567 1.218 0.567 1.89 1.617t0.756 2.541q0.021 0.399 0.021 0.945 0 0.525-0.021 0.945-0.084 1.47-0.735 2.541-0.63 1.05-1.848 1.617-1.197 0.567-2.982 0.567zm0-2.562q0.945 0 1.365-0.567 0.441-0.567 0.504-1.701 0.021-0.315 0.021-0.84t-0.021-0.84q-0.063-1.113-0.504-1.68-0.42-0.588-1.365-0.588-0.903 0-1.365 0.588-0.441 0.567-0.483 1.68-0.021 0.315-0.021 0.84t0.021 0.84q0.042 1.134 0.483 1.701 0.462 0.567 1.365 0.567z"/>
    <path d="m281.82 197.19q-0.231 0-0.378-0.147-0.147-0.168-0.147-0.378v-9.87q0-0.21 0.147-0.357 0.147-0.168 0.378-0.168h2.415q0.231 0 0.378 0.168 0.168 0.147 0.168 0.357v0.84q0.546-0.651 1.323-1.008 0.798-0.357 1.785-0.357h0.924q0.231 0 0.378 0.147t0.147 0.378v2.163q0 0.21-0.147 0.378-0.147 0.147-0.378 0.147h-2.037q-0.861 0-1.344 0.483-0.462 0.462-0.462 1.323v5.376q0 0.21-0.168 0.378-0.147 0.147-0.378 0.147z"/>
    <path d="m296.42 197.19q-1.344 0-2.331-0.42-0.966-0.441-1.491-1.344-0.525-0.924-0.525-2.373v-4.032h-1.638q-0.231 0-0.399-0.147-0.147-0.147-0.147-0.378v-1.701q0-0.231 0.147-0.378 0.168-0.147 0.399-0.147h1.638v-3.465q0-0.231 0.147-0.378 0.168-0.147 0.378-0.147h2.436q0.231 0 0.378 0.147t0.147 0.378v3.465h2.625q0.231 0 0.378 0.147 0.168 0.147 0.168 0.378v1.701q0 0.231-0.168 0.378-0.147 0.147-0.378 0.147h-2.625v3.738q0 0.714 0.273 1.134t0.924 0.42h1.617q0.231 0 0.378 0.147t0.147 0.378v1.827q0 0.21-0.147 0.378-0.147 0.147-0.378 0.147z"/>
    <path d="m311.41 197.4q-1.995 0-3.444-0.651-1.428-0.672-2.226-1.932-0.777-1.281-0.861-3.108-0.021-0.903-0.021-1.911 0-1.029 0.021-1.953 0.084-1.785 0.882-3.024t2.247-1.89 3.402-0.651q1.575 0 2.793 0.399 1.218 0.378 2.037 1.029 0.84 0.651 1.281 1.428t0.462 1.533q0 0.189-0.147 0.315-0.126 0.126-0.315 0.126h-3.066q-0.231 0-0.357-0.063-0.105-0.084-0.189-0.231-0.147-0.315-0.441-0.651-0.273-0.357-0.777-0.609-0.483-0.252-1.281-0.252-1.176 0-1.869 0.63t-0.756 2.016q-0.063 1.806 0 3.654 0.063 1.47 0.777 2.121t1.911 0.651q0.777 0 1.386-0.273 0.63-0.273 0.987-0.84 0.357-0.588 0.357-1.491v-0.399h-1.974q-0.231 0-0.378-0.147-0.147-0.168-0.147-0.399v-1.554q0-0.231 0.147-0.378 0.147-0.168 0.378-0.168h5.292q0.231 0 0.378 0.168 0.147 0.147 0.147 0.378v2.394q0 1.806-0.819 3.087t-2.331 1.974q-1.491 0.672-3.486 0.672z"/>
    <path d="m324.24 197.4q-1.197 0-2.142-0.546-0.924-0.546-1.449-1.596-0.525-1.071-0.525-2.604v-5.859q0-0.231 0.147-0.378t0.378-0.147h2.625q0.231 0 0.378 0.147 0.168 0.147 0.168 0.378v5.733q0 2.058 1.827 2.058 0.861 0 1.365-0.525 0.525-0.546 0.525-1.533v-5.733q0-0.231 0.147-0.378t0.378-0.147h2.625q0.231 0 0.378 0.147t0.147 0.378v9.87q0 0.21-0.147 0.378-0.147 0.147-0.378 0.147h-2.436q-0.21 0-0.378-0.147-0.147-0.168-0.147-0.378v-0.798q-0.546 0.756-1.428 1.155-0.861 0.378-2.058 0.378z"/>
    <path d="m334.22 197.19q-0.231 0-0.378-0.147-0.147-0.168-0.147-0.378v-9.87q0-0.231 0.147-0.378t0.378-0.147h2.478q0.231 0 0.378 0.147t0.147 0.378v9.87q0 0.21-0.147 0.378-0.147 0.147-0.378 0.147zm-0.021-12.495q-0.231 0-0.378-0.147t-0.147-0.378v-1.89q0-0.21 0.147-0.357 0.147-0.168 0.378-0.168h2.52q0.21 0 0.357 0.168 0.168 0.147 0.168 0.357v1.89q0 0.231-0.168 0.378-0.147 0.147-0.357 0.147z"/>
    <path d="m340.22 197.19q-0.231 0-0.378-0.147-0.147-0.168-0.147-0.378v-13.86q0-0.231 0.147-0.378t0.378-0.147h2.478q0.231 0 0.378 0.147t0.147 0.378v13.86q0 0.21-0.147 0.378-0.147 0.147-0.378 0.147z"/>
    <path d="m349.78 197.4q-1.008 0-1.827-0.315-0.798-0.336-1.386-0.966-0.567-0.651-0.882-1.554-0.315-0.924-0.357-2.1-0.021-0.42-0.021-0.735 0-0.336 0.021-0.756 0.042-1.113 0.357-2.016 0.315-0.924 0.882-1.554 0.567-0.651 1.386-0.987 0.819-0.357 1.827-0.357 1.05 0 1.806 0.357 0.756 0.336 1.281 0.882v-4.494q0-0.231 0.147-0.378t0.378-0.147h2.562q0.21 0 0.357 0.147 0.168 0.147 0.168 0.378v13.86q0 0.21-0.168 0.378-0.147 0.147-0.357 0.147h-2.373q-0.231 0-0.378-0.147-0.147-0.168-0.147-0.378v-0.672q-0.504 0.609-1.302 1.008t-1.974 0.399zm1.155-2.814q0.693 0 1.092-0.294 0.42-0.315 0.609-0.798 0.21-0.483 0.231-1.05 0.021-0.42 0.021-0.798t-0.021-0.777q-0.021-0.525-0.231-0.966-0.21-0.462-0.63-0.735-0.42-0.294-1.071-0.294-0.693 0-1.113 0.294-0.399 0.294-0.588 0.798-0.168 0.504-0.21 1.113-0.063 0.651 0 1.302 0.042 0.609 0.21 1.113 0.189 0.504 0.588 0.798 0.42 0.294 1.113 0.294z"/>
    <path d="m83.21 221.19q-0.21 0-0.378-0.147-0.147-0.168-0.147-0.378v-4.515l-4.872-8.988q-0.021-0.063-0.042-0.105-0.021-0.063-0.021-0.126 0-0.168 0.126-0.294 0.147-0.147 0.336-0.147h2.625q0.315 0 0.483 0.168 0.189 0.147 0.252 0.273l3.003 5.418 3.024-5.418q0.063-0.126 0.231-0.273 0.189-0.168 0.504-0.168h2.625q0.189 0 0.315 0.147 0.126 0.126 0.126 0.294 0 0.063-0.021 0.126 0 0.042-0.021 0.105l-4.872 8.988v4.515q0 0.21-0.168 0.378-0.147 0.147-0.378 0.147z"/>
    <path d="m96.314 221.4q-1.764 0-2.982-0.567-1.197-0.567-1.848-1.617-0.63-1.071-0.714-2.541-0.021-0.42-0.021-0.945 0-0.546 0.021-0.945 0.084-1.491 0.756-2.541t1.869-1.617q1.218-0.567 2.919-0.567 1.722 0 2.919 0.567 1.218 0.567 1.89 1.617t0.756 2.541q0.021 0.399 0.021 0.945 0 0.525-0.021 0.945-0.084 1.47-0.735 2.541-0.63 1.05-1.848 1.617-1.197 0.567-2.982 0.567zm0-2.562q0.945 0 1.365-0.567 0.441-0.567 0.504-1.701 0.021-0.315 0.021-0.84t-0.021-0.84q-0.063-1.113-0.504-1.68-0.42-0.588-1.365-0.588-0.903 0-1.365 0.588-0.441 0.567-0.483 1.68-0.021 0.315-0.021 0.84t0.021 0.84q0.042 1.134 0.483 1.701 0.462 0.567 1.365 0.567z"/>
    <path d="m107.99 221.4q-1.197 0-2.142-0.546-0.924-0.546-1.449-1.596-0.525-1.071-0.525-2.604v-5.859q0-0.231 0.147-0.378t0.378-0.147h2.625q0.231 0 0.378 0.147 0.168 0.147 0.168 0.378v5.733q0 2.058 1.827 2.058 0.861 0 1.365-0.525 0.525-0.546 0.525-1.533v-5.733q0-0.231 0.147-0.378t0.378-0.147h2.625q0.231 0 0.378 0.147t0.147 0.378v9.87q0 0.21-0.147 0.378-0.147 0.147-0.378 0.147h-2.436q-0.21 0-0.378-0.147-0.147-0.168-0.147-0.378v-0.798q-0.546 0.756-1.428 1.155-0.861 0.378-2.058 0.378z"/>
    <path d="m125.19 221.4q-1.134 0-2.037-0.42-0.882-0.441-1.407-1.176t-0.525-1.659q0-1.491 1.218-2.352 1.218-0.882 3.234-1.197l2.625-0.399v-0.294q0-0.756-0.315-1.155t-1.155-0.399q-0.588 0-0.966 0.231-0.357 0.231-0.567 0.63-0.189 0.273-0.525 0.273h-2.352q-0.231 0-0.357-0.126-0.126-0.147-0.105-0.336 0-0.378 0.273-0.861 0.294-0.504 0.882-0.987t1.512-0.798 2.247-0.315q1.344 0 2.31 0.315t1.575 0.882 0.882 1.344q0.294 0.756 0.294 1.68v6.384q0 0.21-0.168 0.378-0.147 0.147-0.357 0.147h-2.436q-0.231 0-0.378-0.147-0.147-0.168-0.147-0.378v-0.735q-0.273 0.399-0.735 0.735t-1.092 0.525q-0.609 0.21-1.428 0.21zm0.987-2.394q0.609 0 1.092-0.252 0.504-0.273 0.777-0.819 0.294-0.567 0.294-1.407v-0.294l-1.785 0.315q-0.987 0.168-1.449 0.525-0.441 0.336-0.441 0.798 0 0.357 0.21 0.609t0.546 0.399q0.357 0.126 0.756 0.126z"/>
    <path d="m134.83 221.19q-0.231 0-0.378-0.147-0.147-0.168-0.147-0.378v-9.87q0-0.21 0.147-0.357 0.147-0.168 0.378-0.168h2.415q0.231 0 0.378 0.168 0.168 0.147 0.168 0.357v0.84q0.546-0.651 1.323-1.008 0.798-0.357 1.785-0.357h0.924q0.231 0 0.378 0.147t0.147 0.378v2.163q0 0.21-0.147 0.378-0.147 0.147-0.378 0.147h-2.037q-0.861 0-1.344 0.483-0.462 0.462-0.462 1.323v5.376q0 0.21-0.168 0.378-0.147 0.147-0.378 0.147z"/>
    <path d="m148.79 221.4q-2.478 0-3.948-1.344t-1.533-3.99q0-0.147 0-0.378t0-0.357q0.063-1.659 0.735-2.835 0.693-1.197 1.89-1.806 1.218-0.63 2.835-0.63 1.848 0 3.045 0.735 1.218 0.735 1.827 1.995t0.609 2.877v0.504q0 0.231-0.147 0.378t-0.378 0.147h-6.72q0 0.021 0 0.063t0 0.084q0.021 0.609 0.21 1.113 0.21 0.504 0.588 0.798 0.399 0.294 0.966 0.294 0.42 0 0.693-0.126 0.294-0.147 0.483-0.315 0.189-0.189 0.294-0.315 0.189-0.231 0.294-0.273 0.126-0.063 0.378-0.063h2.604q0.21 0 0.336 0.126 0.147 0.126 0.126 0.336-0.021 0.357-0.357 0.861t-0.987 1.008q-0.63 0.483-1.596 0.798t-2.247 0.315zm-1.785-6.783h3.549v-0.042q0-0.693-0.21-1.176-0.189-0.504-0.609-0.777-0.399-0.273-0.966-0.273-0.546 0-0.945 0.273t-0.609 0.777q-0.21 0.483-0.21 1.176z"/>
    <path d="m165.89 221.19q-1.344 0-2.331-0.42-0.966-0.441-1.491-1.344-0.525-0.924-0.525-2.373v-4.032h-1.638q-0.231 0-0.399-0.147-0.147-0.147-0.147-0.378v-1.701q0-0.231 0.147-0.378 0.168-0.147 0.399-0.147h1.638v-3.465q0-0.231 0.147-0.378 0.168-0.147 0.378-0.147h2.436q0.231 0 0.378 0.147t0.147 0.378v3.465h2.625q0.231 0 0.378 0.147 0.168 0.147 0.168 0.378v1.701q0 0.231-0.168 0.378-0.147 0.147-0.378 0.147h-2.625v3.738q0 0.714 0.273 1.134t0.924 0.42h1.617q0.231 0 0.378 0.147t0.147 0.378v1.827q0 0.21-0.147 0.378-0.147 0.147-0.378 0.147z"/>
    <path d="m170.63 221.19q-0.231 0-0.378-0.147-0.147-0.168-0.147-0.378v-13.86q0-0.231 0.147-0.378t0.378-0.147h2.688q0.231 0 0.378 0.147t0.147 0.378v4.683q0.567-0.651 1.386-1.029 0.84-0.399 1.932-0.399 1.218 0 2.163 0.546 0.966 0.546 1.512 1.596t0.546 2.604v5.859q0 0.21-0.147 0.378-0.147 0.147-0.378 0.147h-2.709q-0.21 0-0.378-0.147-0.147-0.168-0.147-0.378v-5.733q0-0.987-0.483-1.512-0.462-0.546-1.365-0.546-0.882 0-1.407 0.546-0.525 0.525-0.525 1.512v5.733q0 0.21-0.147 0.378-0.147 0.147-0.378 0.147z"/>
    <path d="m188.8 221.4q-2.478 0-3.948-1.344t-1.533-3.99q0-0.147 0-0.378t0-0.357q0.063-1.659 0.735-2.835 0.693-1.197 1.89-1.806 1.218-0.63 2.835-0.63 1.848 0 3.045 0.735 1.218 0.735 1.827 1.995t0.609 2.877v0.504q0 0.231-0.147 0.378t-0.378 0.147h-6.72q0 0.021 0 0.063t0 0.084q0.021 0.609 0.21 1.113 0.21 0.504 0.588 0.798 0.399 0.294 0.966 0.294 0.42 0 0.693-0.126 0.294-0.147 0.483-0.315 0.189-0.189 0.294-0.315 0.189-0.231 0.294-0.273 0.126-0.063 0.378-0.063h2.604q0.21 0 0.336 0.126 0.147 0.126 0.126 0.336-0.021 0.357-0.357 0.861t-0.987 1.008q-0.63 0.483-1.596 0.798t-2.247 0.315zm-1.785-6.783h3.549v-0.042q0-0.693-0.21-1.176-0.189-0.504-0.609-0.777-0.399-0.273-0.966-0.273-0.546 0-0.945 0.273t-0.609 0.777q-0.21 0.483-0.21 1.176z"/>
    <path d="m200.87 221.19q-0.231 0-0.399-0.147-0.147-0.168-0.147-0.378v-1.491q0-0.147 0.084-0.441 0.084-0.315 0.441-0.588l2.184-2.142q1.68-1.281 2.751-2.163 1.092-0.903 1.617-1.596t0.525-1.302q0-0.714-0.378-1.176-0.357-0.483-1.26-0.483-0.609 0-1.008 0.273-0.399 0.252-0.63 0.672-0.21 0.42-0.294 0.861-0.084 0.273-0.294 0.378-0.189 0.105-0.42 0.105h-2.625q-0.189 0-0.315-0.126t-0.126-0.315q0.021-1.008 0.42-1.89 0.42-0.903 1.155-1.575 0.756-0.672 1.785-1.05 1.05-0.399 2.352-0.399 1.785 0 3.024 0.588 1.26 0.567 1.911 1.596 0.651 1.008 0.651 2.373 0 1.029-0.462 1.932-0.441 0.882-1.281 1.701-0.819 0.798-1.953 1.659l-1.932 1.953h5.397q0.231 0 0.378 0.147 0.168 0.147 0.168 0.378v2.121q0 0.21-0.168 0.378-0.147 0.147-0.378 0.147z"/>
    <path d="m219.84 221.42q-1.974 0-3.297-0.609-1.323-0.63-2.016-1.617-0.672-1.008-0.714-2.163 0-0.189 0.126-0.315t0.315-0.126h2.814q0.273 0 0.42 0.105 0.168 0.105 0.252 0.294 0.189 0.483 0.504 0.798t0.714 0.462 0.903 0.147q0.588 0 1.092-0.252t0.798-0.735q0.315-0.504 0.315-1.197 0-0.63-0.294-1.092-0.273-0.462-0.777-0.735-0.483-0.273-1.134-0.273-0.504 0-0.819 0.126-0.315 0.105-0.525 0.273t-0.378 0.294q-0.168 0.105-0.378 0.105h-2.751q-0.189 0-0.336-0.126-0.126-0.147-0.126-0.336l0.756-7.329q0.042-0.315 0.231-0.462 0.189-0.168 0.462-0.168h8.421q0.231 0 0.378 0.147 0.168 0.147 0.168 0.378v1.974q0 0.231-0.168 0.378-0.147 0.147-0.378 0.147h-6.09l-0.273 2.709q0.462-0.294 1.071-0.504 0.63-0.21 1.722-0.21 0.987 0 1.89 0.357 0.924 0.336 1.638 0.966 0.735 0.63 1.134 1.512 0.42 0.861 0.42 1.953 0 1.491-0.735 2.646-0.714 1.155-2.079 1.827-1.365 0.651-3.276 0.651z"/>
    <path d="m233.63 221.4q-1.869 0-3.276-0.672t-2.205-1.848q-0.777-1.197-0.777-2.73 0-0.651 0.189-1.281 0.21-0.651 0.504-1.218 0.294-0.588 0.588-1.029 0.294-0.462 0.483-0.735l3.696-4.977q0.105-0.105 0.273-0.252 0.168-0.168 0.483-0.168h2.793q0.189 0 0.315 0.147 0.126 0.126 0.126 0.315 0 0.084-0.021 0.168-0.021 0.063-0.063 0.105l-2.835 3.864q0.126-0.042 0.294-0.042 0.189-0.021 0.336-0.021 0.945 0.042 1.869 0.42t1.68 1.029 1.197 1.575q0.462 0.903 0.462 2.016 0 1.47-0.756 2.688-0.756 1.197-2.142 1.932-1.365 0.714-3.213 0.714zm-0.042-3.024q0.609 0 1.134-0.252 0.525-0.273 0.84-0.777 0.336-0.504 0.336-1.218 0-0.735-0.315-1.218-0.315-0.504-0.84-0.756t-1.155-0.252-1.176 0.252q-0.525 0.252-0.84 0.756-0.315 0.483-0.315 1.218 0 0.714 0.315 1.218 0.336 0.504 0.861 0.777 0.525 0.252 1.155 0.252z"/>
    <path d="m247.18 221.19q-1.344 0-2.331-0.42-0.966-0.441-1.491-1.344-0.525-0.924-0.525-2.373v-4.032h-1.638q-0.231 0-0.399-0.147-0.147-0.147-0.147-0.378v-1.701q0-0.231 0.147-0.378 0.168-0.147 0.399-0.147h1.638v-3.465q0-0.231 0.147-0.378 0.168-0.147 0.378-0.147h2.436q0.231 0 0.378 0.147t0.147 0.378v3.465h2.625q0.231 0 0.378 0.147 0.168 0.147 0.168 0.378v1.701q0 0.231-0.168 0.378-0.147 0.147-0.378 0.147h-2.625v3.738q0 0.714 0.273 1.134t0.924 0.42h1.617q0.231 0 0.378 0.147t0.147 0.378v1.827q0 0.21-0.147 0.378-0.147 0.147-0.378 0.147z"/>
    <path d="m251.92 221.19q-0.231 0-0.378-0.147-0.147-0.168-0.147-0.378v-13.86q0-0.231 0.147-0.378t0.378-0.147h2.688q0.231 0 0.378 0.147t0.147 0.378v4.683q0.567-0.651 1.386-1.029 0.84-0.399 1.932-0.399 1.218 0 2.163 0.546 0.966 0.546 1.512 1.596t0.546 2.604v5.859q0 0.21-0.147 0.378-0.147 0.147-0.378 0.147h-2.709q-0.21 0-0.378-0.147-0.147-0.168-0.147-0.378v-5.733q0-0.987-0.483-1.512-0.462-0.546-1.365-0.546-0.882 0-1.407 0.546-0.525 0.525-0.525 1.512v5.733q0 0.21-0.147 0.378-0.147 0.147-0.378 0.147z"/>
    <path d="m270.05 221.19q-0.231 0-0.378-0.147-0.147-0.168-0.147-0.378v-9.87q0-0.231 0.147-0.378t0.378-0.147h2.289q0.231 0 0.378 0.147t0.147 0.378v0.714q0.42-0.567 1.176-0.987 0.756-0.441 1.785-0.462 2.436-0.063 3.339 1.806 0.483-0.798 1.365-1.302 0.903-0.504 1.974-0.504 1.092 0 1.953 0.504 0.882 0.483 1.407 1.512 0.525 1.008 0.525 2.625v5.964q0 0.21-0.147 0.378-0.147 0.147-0.378 0.147h-2.436q-0.231 0-0.399-0.147-0.147-0.168-0.147-0.378v-5.817q0-0.735-0.21-1.155-0.21-0.441-0.567-0.63t-0.819-0.189q-0.378 0-0.756 0.189-0.357 0.189-0.588 0.63-0.21 0.42-0.21 1.155v5.817q0 0.21-0.147 0.378-0.147 0.147-0.378 0.147h-2.436q-0.231 0-0.378-0.147-0.147-0.168-0.147-0.378v-5.817q0-0.735-0.231-1.155-0.231-0.441-0.588-0.63t-0.777-0.189q-0.399 0-0.777 0.189-0.357 0.189-0.588 0.63-0.21 0.42-0.21 1.134v5.838q0 0.21-0.168 0.378-0.147 0.147-0.357 0.147z"/>
    <path d="m293.8 221.4q-2.478 0-3.948-1.344t-1.533-3.99q0-0.147 0-0.378t0-0.357q0.063-1.659 0.735-2.835 0.693-1.197 1.89-1.806 1.218-0.63 2.835-0.63 1.848 0 3.045 0.735 1.218 0.735 1.827 1.995t0.609 2.877v0.504q0 0.231-0.147 0.378t-0.378 0.147h-6.72q0 0.021 0 0.063t0 0.084q0.021 0.609 0.21 1.113 0.21 0.504 0.588 0.798 0.399 0.294 0.966 0.294 0.42 0 0.693-0.126 0.294-0.147 0.483-0.315 0.189-0.189 0.294-0.315 0.189-0.231 0.294-0.273 0.126-0.063 0.378-0.063h2.604q0.21 0 0.336 0.126 0.147 0.126 0.126 0.336-0.021 0.357-0.357 0.861t-0.987 1.008q-0.63 0.483-1.596 0.798t-2.247 0.315zm-1.785-6.783h3.549v-0.042q0-0.693-0.21-1.176-0.189-0.504-0.609-0.777-0.399-0.273-0.966-0.273-0.546 0-0.945 0.273t-0.609 0.777q-0.21 0.483-0.21 1.176z"/>
    <path d="m301.76 221.19q-0.231 0-0.378-0.147-0.147-0.168-0.147-0.378v-9.87q0-0.231 0.147-0.378t0.378-0.147h2.289q0.231 0 0.378 0.147t0.147 0.378v0.714q0.42-0.567 1.176-0.987 0.756-0.441 1.785-0.462 2.436-0.063 3.339 1.806 0.483-0.798 1.365-1.302 0.903-0.504 1.974-0.504 1.092 0 1.953 0.504 0.882 0.483 1.407 1.512 0.525 1.008 0.525 2.625v5.964q0 0.21-0.147 0.378-0.147 0.147-0.378 0.147h-2.436q-0.231 0-0.399-0.147-0.147-0.168-0.147-0.378v-5.817q0-0.735-0.21-1.155-0.21-0.441-0.567-0.63t-0.819-0.189q-0.378 0-0.756 0.189-0.357 0.189-0.588 0.63-0.21 0.42-0.21 1.155v5.817q0 0.21-0.147 0.378-0.147 0.147-0.378 0.147h-2.436q-0.231 0-0.378-0.147-0.147-0.168-0.147-0.378v-5.817q0-0.735-0.231-1.155-0.231-0.441-0.588-0.63t-0.777-0.189q-0.399 0-0.777 0.189-0.357 0.189-0.588 0.63-0.21 0.42-0.21 1.134v5.838q0 0.21-0.168 0.378-0.147 0.147-0.357 0.147z"/>
    <path d="m327.15 221.4q-1.155 0-1.953-0.399t-1.302-1.008v0.672q0 0.21-0.168 0.378-0.147 0.147-0.357 0.147h-2.373q-0.231 0-0.378-0.147-0.147-0.168-0.147-0.378v-13.86q0-0.231 0.147-0.378t0.378-0.147h2.562q0.231 0 0.378 0.147t0.147 0.378v4.494q0.525-0.546 1.281-0.882 0.756-0.357 1.785-0.357 1.05 0 1.848 0.357 0.819 0.336 1.386 0.987 0.567 0.63 0.882 1.554 0.315 0.903 0.357 2.016 0.021 0.42 0.021 0.756 0 0.315-0.021 0.735-0.042 1.176-0.357 2.1-0.315 0.903-0.903 1.554-0.567 0.63-1.365 0.966-0.798 0.315-1.848 0.315zm-1.134-2.814q0.714 0 1.113-0.294t0.567-0.798q0.189-0.504 0.231-1.113 0.042-0.651 0-1.302-0.042-0.609-0.231-1.113-0.168-0.504-0.567-0.798t-1.113-0.294q-0.651 0-1.071 0.294-0.42 0.273-0.63 0.735-0.21 0.441-0.231 0.966-0.021 0.399-0.021 0.777t0.021 0.798q0.042 0.567 0.231 1.05t0.609 0.798q0.42 0.294 1.092 0.294z"/>
    <path d="m338.76 221.4q-2.478 0-3.948-1.344t-1.533-3.99q0-0.147 0-0.378t0-0.357q0.063-1.659 0.735-2.835 0.693-1.197 1.89-1.806 1.218-0.63 2.835-0.63 1.848 0 3.045 0.735 1.218 0.735 1.827 1.995t0.609 2.877v0.504q0 0.231-0.147 0.378t-0.378 0.147h-6.72q0 0.021 0 0.063t0 0.084q0.021 0.609 0.21 1.113 0.21 0.504 0.588 0.798 0.399 0.294 0.966 0.294 0.42 0 0.693-0.126 0.294-0.147 0.483-0.315 0.189-0.189 0.294-0.315 0.189-0.231 0.294-0.273 0.126-0.063 0.378-0.063h2.604q0.21 0 0.336 0.126 0.147 0.126 0.126 0.336-0.021 0.357-0.357 0.861t-0.987 1.008q-0.63 0.483-1.596 0.798t-2.247 0.315zm-1.785-6.783h3.549v-0.042q0-0.693-0.21-1.176-0.189-0.504-0.609-0.777-0.399-0.273-0.966-0.273-0.546 0-0.945 0.273t-0.609 0.777q-0.21 0.483-0.21 1.176z"/>
    <path d="m346.72 221.19q-0.23099 0-0.37799-0.147-0.14701-0.168-0.14701-0.378v-9.87q0-0.21 0.14701-0.357 0.147-0.168 0.37799-0.168h2.415q0.23101 0 0.37801 0.168 0.168 0.147 0.168 0.357v0.84q0.546-0.651 1.323-1.008 0.798-0.357 1.785-0.357h0.92399q0.231 0 0.378 0.147t0.147 0.378v2.163q0 0.21-0.147 0.378-0.147 0.147-0.378 0.147h-2.037q-0.86101 0-1.344 0.483-0.462 0.462-0.462 1.323v5.376q0 0.21-0.168 0.378-0.147 0.147-0.378 0.147z"/>
    <path d="m356.34 216.55q-0.231 0-0.378-0.147-0.147-0.168-0.147-0.378v-9.009q0-0.231 0.147-0.378t0.378-0.147h2.415q0.231 0 0.378 0.147t0.147 0.378v9.009q0 0.21-0.147 0.378-0.147 0.147-0.378 0.147zm-0.084 4.641q-0.231 0-0.378-0.147-0.147-0.168-0.147-0.378v-2.583q0-0.231 0.147-0.378 0.147-0.168 0.378-0.168h2.583q0.21 0 0.357 0.168 0.168 0.147 0.168 0.378v2.583q0 0.21-0.168 0.378-0.147 0.147-0.357 0.147z"/>
   </g>
   <circle cx="226" cy="79" r="59" fill="#fff" stroke="#fff" stroke-width="6"/>
   <g transform="matrix(1.0907 0 0 1.0907 -103.25 144.39)">
    <g transform="translate(13.895 4.4776)" stroke-width=".092934">
     <path d="m263.94-25.873c-0.30526-0.0445-0.89074-0.19097-1.3011-0.32558-2.389-0.78367-4.1717-2.3435-5.2985-4.6358-0.88466-1.7998-1.2838-3.3017-1.42-5.3437-0.0583-0.87428-0.0964-1.0628-0.20921-1.036-0.0759 0.01799-0.53519 0.13836-1.0208 0.26743-0.70207 0.18661-1.1779 0.24359-2.3234 0.27827-1.7093 0.05177-2.3285-0.06088-3.531-0.64229-0.66032-0.31926-0.93393-0.5277-1.6728-1.2743-1.1418-1.1537-1.8501-2.3824-2.2823-3.9591-0.20378-0.74349-0.28147-2.7972-0.14192-3.7517 0.27953-1.9117 1.3072-3.9379 3.0695-6.0522 0.36183-0.43409 0.63937-0.83745 0.61676-0.89636-0.0226-0.05892-0.40185-0.59465-0.84276-1.1905-1.4316-1.9348-2.0241-2.9594-2.4747-4.2798-0.20768-0.60856-0.22199-0.78251-0.22159-2.6951 4.7e-4 -2.1996 0.0473-2.558 0.52675-4.0267 0.73056-2.2382 2.3215-3.5002 4.9465-3.9236 1.0017-0.16159 3.3807-0.06768 4.5746 0.18071 1.0813 0.2249 2.5133 0.64069 3.3623 0.97628 0.41536 0.16417 0.59663 0.19917 0.62333 0.12034 0.0207-0.06111 0.16606-0.88484 0.32301-1.8304 0.86204-5.194 1.4538-7.0723 3.2068-10.178 1.4135-2.5041 3.2947-5.1443 4.9647-6.9676 2.5855-2.8229 5.0622-4.4053 8.8834-5.6756 1.9339-0.6429 3.6008-0.97024 4.9408-0.97024 0.26667 0 0.5077-0.03701 0.53563-0.08209 0.0279-0.0452 0.21874-0.62922 0.42404-1.2979 1.3716-4.4673 2.68-6.4758 4.8893-7.5057 0.86254-0.40208 1.3013-0.49614 2.314-0.49598 1.5299 2.8e-4 2.6266 0.53411 4.0948 1.9934 1.0218 1.0156 1.9471 2.3146 2.5198 3.5374 0.18999 0.40569 0.60344 1.4904 0.91877 2.4104 0.57285 1.6714 0.57357 1.6729 0.8879 1.7406 0.17303 0.03736 0.77462 0.15437 1.3369 0.26015 0.56226 0.10573 1.5076 0.35408 2.1008 0.55178 1.8854 0.6284 3.0762 1.3161 5.8451 3.3758 4.5834 3.4094 6.2859 5.32 8.2568 9.2664 1.2781 2.5591 2.0084 4.5976 2.476 6.9113 0.36153 1.7886 0.4206 2.5125 0.47499 5.8207 0.0281 1.7123 0.067 3.1638 0.0863 3.2256 0.0239 0.07633 0.34645-0.01822 1.0071-0.29496 1.2513-0.52424 3.0129-1.1124 3.9347-1.3138 1.0213-0.2231 3.0419-0.22354 3.786-8.31e-4 1.5136 0.45305 2.8141 1.4775 3.3769 2.6602 0.5727 1.2035 0.71766 1.9263 0.71733 3.5767 0 1.4423-9e-3 1.5134-0.30753 2.3698-0.16897 0.48559-0.45117 1.1408-0.62714 1.4559-0.67429 1.2078-2.053 2.8816-4.021 4.8815l-0.97784 0.99369 0.59715 0.63309c0.81822 0.86746 1.753 2.1391 2.3129 3.1466 0.97971 1.7627 1.2844 3.2999 1.1173 5.6377-0.14273 1.9973-0.64593 3.5294-1.6416 4.9981-0.53841 0.79423-1.5501 1.8039-2.1682 2.1638-0.59997 0.34936-1.6096 0.71324-2.4003 0.86505-0.92632 0.17786-3.4354 0.17079-4.5688-0.01291-1.6179-0.2622-3.2651-0.91969-4.7178-1.8832-0.26912-0.17848-0.50223-0.30773-0.51803-0.2872-0.0158 0.02052-0.18585 0.53405-0.37786 1.1412-0.44702 1.4134-1.146 3.0673-1.6865 3.9907-0.80762 1.3796-1.9664 2.2555-3.5452 2.6795-0.97093 0.26078-3.3637 0.28541-4.3468 0.0447-2.5372-0.62111-3.7559-2.1923-4.3181-5.5666-0.14316-0.85934-0.37353-3.1658-0.37578-3.7624-1e-3 -0.26835-0.0256-0.48791-0.0545-0.48791-0.0291 0-0.60404 0.16458-1.2778 0.36573-2.5114 0.74973-4.8915 1.1044-7.9628 1.1866-4.2031 0.11253-7.3748-0.44758-10.911-1.9267-0.46512-0.19458-0.8738-0.32586-0.90818-0.29174-0.0344 0.03413-0.27797 0.6057-0.54132 1.2702-1.8489 4.6653-3.9845 7.3387-7.1097 8.8999-1.8954 0.94685-3.9169 1.2825-5.9452 0.98704z" fill="#abe0e6"/>
     <path d="m264.19-25.877c-0.79968-0.11449-2.2543-0.58718-2.9943-0.97299-0.91813-0.47869-2.0247-1.4034-2.7227-2.2752-1.3844-1.729-2.3624-4.497-2.5332-7.1694-0.0352-0.54948-0.0891-0.99893-0.11988-0.9988-0.0308 9.2e-5 -0.55786 0.13315-1.1712 0.29557-1.016 0.26905-1.2433 0.29581-2.5557 0.30092-1.6055 0.0058-2.005-0.07564-3.2527-0.66671-0.56925-0.26968-0.86736-0.5022-1.6264-1.2686-1.0026-1.0123-1.4538-1.6922-1.918-2.89-1.2126-3.1287-0.66374-6.4306 1.5805-9.5087 0.33899-0.46493 0.86063-1.1388 1.1592-1.4974l0.54286-0.6521-0.97291-1.3268c-1.5518-2.1162-1.9834-2.8673-2.4448-4.2542-0.25076-0.75374-0.26297-0.87088-0.26649-2.5557-5e-3 -1.9576 0.0729-2.5092 0.56488-4.0511 0.37335-1.17 0.95942-2.075 1.7195-2.6554 0.63487-0.48474 1.059-0.69533 1.9869-0.98656 2.3775-0.74621 5.0426-0.53305 8.6268 0.69 0.6045 0.20628 1.1172 0.35691 1.1394 0.33473 0.0221-0.02214 0.1889-0.91463 0.3705-1.9832 1.0473-6.1631 1.872-8.3214 4.9125-12.857 2.5704-3.8347 5.1651-6.4653 7.9679-8.0781 2.534-1.4581 6.0297-2.552 8.8961-2.7838l0.78013-0.06307 0.43113-1.394c1.1371-3.6765 2.1698-5.5731 3.6416-6.6876 2.0191-1.529 4.279-1.6437 6.2612-0.31793 1.3439 0.89884 3.0316 2.9698 3.818 4.685 0.18678 0.40738 0.57941 1.4556 0.87249 2.3293 0.29307 0.87375 0.55934 1.6315 0.5917 1.6838 0.0324 0.05234 0.30899 0.12347 0.61477 0.15807 0.76565 0.08659 2.5768 0.53909 3.5838 0.89533 1.6104 0.56969 2.7184 1.2295 5.3437 3.1824 4.5822 3.4085 6.379 5.4138 8.303 9.2664 1.2475 2.498 2.0315 4.726 2.518 7.1559 0.3655 1.8252 0.42465 2.5346 0.48632 5.8316 0.0318 1.6995 0.0915 3.0901 0.13276 3.0901 0.0413 0 0.52651-0.18407 1.0784-0.40906 4.1643-1.6976 6.5557-1.9132 8.7782-0.79158 0.63488 0.32042 1.5389 1.1375 1.9225 1.7376 0.55395 0.86655 1.0366 2.7162 1.0366 3.9725 0 1.2278-0.49065 2.9359-1.1597 4.0373-0.67485 1.1109-2.5335 3.3069-4.1302 4.8798-0.36182 0.35643-0.65787 0.70681-0.65787 0.77864s0.26138 0.40771 0.58085 0.7464c1.3974 1.4815 2.5499 3.3296 3.0361 4.8689 0.85688 2.7123 0.32544 6.365-1.2681 8.716-0.5396 0.79607-1.6466 1.8985-2.2559 2.2466-0.60138 0.34353-1.6287 0.68997-2.5732 0.8677-1.0163 0.19127-3.5065 0.13768-4.5828-0.09858-1.6874-0.37048-3.0936-0.95711-4.3927-1.8327-0.525-0.35382-0.71869-0.38416-0.71869-0.11265 0 0.2523-0.67182 2.2168-1.1195 3.2736-0.85354 2.0149-1.7541 3.1797-2.946 3.8107-1.4535 0.76946-3.8599 1.0207-5.6354 0.58832-3.1662-0.77107-4.2514-2.7052-4.7143-8.403-0.0837-1.0306-0.15108-1.4544-0.22649-1.4254-0.059 0.0226-0.60489 0.18983-1.213 0.3715-2.4486 0.73146-5.1015 1.1448-7.9364 1.2366-3.8349 0.12413-7.2492-0.48852-10.805-1.9387-0.49896-0.20351-0.95049-0.3556-1.0034-0.33796-0.0529 0.01764-0.34126 0.64966-0.64079 1.4045-1.8326 4.6185-4.0425 7.3448-7.1654 8.84-1.8644 0.8926-3.7688 1.2248-5.5552 0.96897zm2.9583-3.0644c3.0521-0.80957 5.2725-3.2636 7.0976-7.8443 0.76518-1.9205 0.78245-1.7468-0.24175-2.4313-2.4209-1.6179-4.5763-3.7405-6.0685-5.9761-1.864-2.7925-3.4304-7.6164-3.8562-11.875-0.0558-0.55847-0.10953-1.8856-0.11942-2.9491l-0.0179-1.9337-1.8587-1.0575c-3.5709-2.0316-5.1977-2.731-7.5321-3.2382-2.8412-0.61731-5.1754-0.25688-5.9658 0.92116-0.57225 0.85292-0.90922 2.5921-0.83824 4.3263 0.0716 1.7492 0.35649 2.3305 2.6682 5.4441 0.72105 0.97117 1.3583 1.9226 1.416 2.1143 0.1653 0.5485-0.0115 0.94572-0.84742 1.9097-2.1916 2.5257-2.9595 3.7947-3.3032 5.4588-0.32774 1.5868-0.0294 3.1947 0.84933 4.5772 1.4566 2.2917 3.8434 2.5682 7.7164 0.89388 1.0272-0.44407 1.3625-0.49084 1.8524-0.25837 0.74137 0.3518 0.87783 0.80193 0.76043 2.5081-0.1996 2.9003 0.44318 5.5071 1.8121 7.3489 1.4272 1.9202 3.9646 2.7278 6.4769 2.0615zm40.133-0.58396c0.66543-0.21438 1.2061-0.77023 1.695-1.7425 0.84486-1.6803 1.4008-3.4203 1.6678-5.2196 0.24599-1.6578 0.57191-2.1072 1.5281-2.1072 0.53872 0 0.53799-3.69e-4 1.9894 1.0958 2.0381 1.5392 3.1841 2.0852 5.0222 2.3925 0.70803 0.11839 1.2636 0.14758 2.1322 0.11207 1.9053-0.07794 2.9054-0.50865 3.7069-1.5963 0.9487-1.2873 1.3128-2.3885 1.3908-4.2065 0.0656-1.5294-0.0421-2.1298-0.58377-3.2539-0.52552-1.0904-1.4831-2.3595-2.9122-3.8595-1.1454-1.2022-1.31-1.4458-1.31-1.9382 0-0.54392 0.23672-0.88803 0.99178-1.4417 0.75907-0.55663 1.4392-1.2169 2.8023-2.7204 2.349-2.591 2.939-3.6751 2.9397-5.4011 9.3e-4 -1.2787-0.275-2.1254-0.88318-2.7145-0.62811-0.60836-1.1936-0.76589-2.5011-0.69679-1.8008 0.09512-4.0492 0.92486-7.2527 2.6764-0.59548 0.32558-0.75608 0.3745-1.1026 0.33589-0.4645-0.05177-0.80119-0.27092-1.1134-0.72472-0.20004-0.29079-0.21339-0.38138-0.16309-1.1067 0.13043-1.88 0.16367-5.3797 0.068-7.1655-0.19144-3.5759-0.86647-6.1873-2.437-9.4278-1.8532-3.8239-3.4867-5.6234-8.2624-9.1027-1.6953-1.2351-2.6902-1.8404-3.6514-2.2215-0.76521-0.30344-2.4623-0.75749-2.5402-0.67962-0.0309 0.0309 0.0962 0.6126 0.2823 1.2927 0.71594 2.6151 0.83677 3.3806 0.84056 5.3256 3e-3 2.0585-0.0909 2.5505-0.76092 3.9482-0.36842 0.76838-0.53708 0.99468-1.316 1.7657-1.8702 1.8513-4.2899 2.6974-7.7102 2.6961-3.1185-0.0012-4.7781-0.51209-7.4023-2.2787-2.0534-1.3824-2.5847-1.9287-2.935-3.018-0.14769-0.45919-0.19354-0.8381-0.1912-1.5799 3e-3 -1.1182 0.18013-2.0855 0.80591-4.4144 0.65275-2.4293 1.0697-4.1625 1.0147-4.2175-0.0806-0.08059-0.76397-0.0092-1.7811 0.18472-0.97074 0.18557-2.7775 0.76276-4.0228 1.2851-3.4876 1.4629-6.4319 4.326-9.4979 9.2358-1.5965 2.5565-2.5464 4.7642-3.0466 7.0803-0.36856 1.7064-1.1139 6.3132-1.0343 6.3928 0.10181 0.10181 2.535 1.4602 2.6156 1.4602 0.0337 0 0.1973-0.57503 0.3635-1.2779 0.7971-3.3705 2.5908-7.7748 4.0779-10.013 0.75603-1.1378 1.7698-2.2577 3.0988-3.4232 1.7106-1.5003 2.0409-1.6477 2.8326-1.2644 0.63946 0.30955 0.77957 0.63394 0.87131 2.0173 0.15174 2.288 1.4497 7.1099 2.5408 9.4389 1.7845 3.8092 5.0566 7.0883 8.0517 8.0691 0.77313 0.25317 1.0486 0.29476 2.2162 0.33457 2.6127 0.08913 5.21-0.52921 6.9243-1.6484 2.0967-1.3688 4.4419-4.7002 6.7732-9.6217 0.74138-1.5651 1.9055-4.2601 2.3484-5.4367 0.32706-0.86886 0.45211-1.0639 0.83328-1.2994 0.39369-0.2433 1.1075-0.24978 1.4949-0.01361 0.32577 0.19866 2.1298 2.6612 2.8817 3.9337 0.27859 0.47148 0.66842 1.277 0.86626 1.7901 0.66706 1.7299 1.4502 5.1788 1.7207 7.5777 0.45739 4.0559 0.59615 9.4914 0.29896 11.71-0.31886 2.38-0.89908 4.1998-2.1482 6.7377-0.81156 1.6489-1.8326 3.2899-2.8335 4.5538-1.3217 1.6691-3.4622 3.5533-5.3403 4.701-0.4371 0.2671-0.79472 0.5375-0.79472 0.6009 0 0.62819 0.3253 3.9662 0.47503 4.8744 0.389 2.3596 0.80435 3.0198 2.1024 3.3418 0.56563 0.14031 2.6892 0.0574 3.2628-0.12735z" fill="#72ade5"/>
     <path d="m264.19-25.877c-0.79968-0.11449-2.2543-0.58718-2.9943-0.97299-0.91813-0.47869-2.0247-1.4034-2.7227-2.2752-1.3844-1.729-2.3624-4.497-2.5332-7.1694-0.0352-0.54948-0.0891-0.99893-0.11988-0.9988-0.0308 9.2e-5 -0.55786 0.13315-1.1712 0.29557-1.016 0.26905-1.2433 0.29581-2.5557 0.30092-1.6055 0.0058-2.005-0.07564-3.2527-0.66671-0.56925-0.26968-0.86736-0.5022-1.6264-1.2686-1.0026-1.0123-1.4538-1.6922-1.918-2.89-1.2126-3.1287-0.66374-6.4306 1.5805-9.5087 0.33899-0.46493 0.86063-1.1388 1.1592-1.4974l0.54286-0.6521-0.97291-1.3268c-1.5518-2.1162-1.9834-2.8673-2.4448-4.2542-0.25076-0.75374-0.26297-0.87088-0.26649-2.5557-5e-3 -1.9576 0.0729-2.5092 0.56488-4.0511 0.37335-1.17 0.95942-2.075 1.7195-2.6554 0.63487-0.48474 1.059-0.69533 1.9869-0.98656 2.3775-0.74621 5.0426-0.53305 8.6268 0.69 0.6045 0.20628 1.1172 0.35691 1.1394 0.33473 0.0221-0.02214 0.1889-0.91463 0.3705-1.9832 1.0473-6.1631 1.872-8.3214 4.9125-12.857 2.5704-3.8347 5.1651-6.4653 7.9679-8.0781 2.534-1.4581 6.0297-2.552 8.8961-2.7838l0.78013-0.06307 0.43113-1.394c1.1371-3.6765 2.1698-5.5731 3.6416-6.6876 2.0191-1.529 4.279-1.6437 6.2612-0.31793 1.3439 0.89884 3.0316 2.9698 3.818 4.685 0.18678 0.40738 0.57941 1.4556 0.87249 2.3293 0.29307 0.87375 0.55934 1.6315 0.5917 1.6838 0.0324 0.05234 0.30899 0.12347 0.61477 0.15807 0.76565 0.08659 2.5768 0.53909 3.5838 0.89533 1.6104 0.56969 2.7184 1.2295 5.3437 3.1824 4.5822 3.4085 6.379 5.4138 8.303 9.2664 1.2475 2.498 2.0315 4.726 2.518 7.1559 0.3655 1.8252 0.42465 2.5346 0.48632 5.8316 0.0318 1.6995 0.0915 3.0901 0.13276 3.0901 0.0413 0 0.52651-0.18407 1.0784-0.40906 4.1643-1.6976 6.5557-1.9132 8.7782-0.79158 0.63488 0.32042 1.5389 1.1375 1.9225 1.7376 0.55395 0.86655 1.0366 2.7162 1.0366 3.9725 0 1.2278-0.49065 2.9359-1.1597 4.0373-0.67485 1.1109-2.5335 3.3069-4.1302 4.8798-0.36182 0.35643-0.65787 0.70681-0.65787 0.77864s0.26138 0.40771 0.58085 0.7464c1.3974 1.4815 2.5499 3.3296 3.0361 4.8689 0.85688 2.7123 0.32544 6.365-1.2681 8.716-0.5396 0.79607-1.6466 1.8985-2.2559 2.2466-0.60138 0.34353-1.6287 0.68997-2.5732 0.8677-1.0163 0.19127-3.5065 0.13768-4.5828-0.09858-1.6874-0.37048-3.0936-0.95711-4.3927-1.8327-0.525-0.35382-0.71869-0.38416-0.71869-0.11265 0 0.2523-0.67182 2.2168-1.1195 3.2736-0.85354 2.0149-1.7541 3.1797-2.946 3.8107-1.4535 0.76946-3.8599 1.0207-5.6354 0.58832-3.1662-0.77107-4.2514-2.7052-4.7143-8.403-0.0837-1.0306-0.15108-1.4544-0.22649-1.4254-0.059 0.0226-0.60489 0.18983-1.213 0.3715-2.4486 0.73146-5.1015 1.1448-7.9364 1.2366-3.8349 0.12413-7.2492-0.48852-10.805-1.9387-0.49896-0.20351-0.95049-0.3556-1.0034-0.33796-0.0529 0.01764-0.34126 0.64966-0.64079 1.4045-1.8326 4.6185-4.0425 7.3448-7.1654 8.84-1.8644 0.8926-3.7688 1.2248-5.5552 0.96897zm1.9959-2.868c2.7417-0.34378 5.0929-2.1737 6.7933-5.2873 0.69032-1.264 1.8846-4.1182 1.8818-4.4973-4.6e-4 -0.06134-0.26107-0.27884-0.57916-0.4833-0.88392-0.56814-2.3407-1.7249-3.343-2.6543-2.8869-2.6773-4.7204-5.9079-5.9307-10.449-0.72749-2.7299-0.94037-4.2768-1.0095-7.3359l-0.0566-2.5033-1.7657-1.0076c-4.6386-2.6468-7.1892-3.5456-10.083-3.553-2.65-0.0069-3.6061 0.61838-4.0938 2.677-0.25283 1.0672-0.34687 2.9725-0.18685 3.7859 0.22232 1.13 0.78079 2.0802 2.8351 4.8236 0.59324 0.79227 1.1234 1.5885 1.178 1.7694 0.16924 0.56029-0.018 0.99159-0.83106 1.9147-2.173 2.4671-2.9727 3.7956-3.3219 5.5188-0.31874 1.5731 0.0204 3.2679 0.9267 4.6312 0.51244 0.77082 1.0121 1.2091 1.781 1.5623 1.3106 0.60196 3.5009 0.30351 6-0.81757 0.87906-0.39433 1.2361-0.43768 1.7187-0.20868 0.74306 0.3526 0.87922 0.80393 0.75683 2.5085-0.16165 2.2512 0.16433 4.2106 0.9871 5.9335 1.1428 2.3929 2.8004 3.5352 5.4492 3.7553 0.0781 7e-3 0.48023-0.0307 0.89381-0.0826zm41.122-0.781c0.76769-0.28004 1.1466-0.70092 1.753-1.9469 0.90435-1.8584 1.3809-3.393 1.6207-5.2186 0.18684-1.4225 0.5749-1.9033 1.5364-1.9033 0.4819 0 0.5778 0.05177 1.7224 0.92958 2.2706 1.7415 3.2713 2.229 5.2566 2.561 0.69389 0.11602 1.255 0.14509 2.1186 0.10976 1.9053-0.07794 2.9054-0.50865 3.7069-1.5963 0.96847-1.3142 1.3179-2.3916 1.3885-4.2809 0.0595-1.5919-0.0694-2.2379-0.67521-3.3858-0.57811-1.0954-1.3991-2.1671-2.7102-3.5378-1.1778-1.2314-1.4182-1.5787-1.4182-2.0491 0-0.54064 0.26447-0.90094 1.1501-1.5668 0.88933-0.66868 2.7365-2.5998 4.0127-4.195 1.5375-1.9218 1.9305-3.5106 1.3405-5.4182-0.63373-2.0488-2.7164-2.383-6.3977-1.0267-0.91295 0.33636-2.7541 1.2083-4.0088 1.8984-0.59409 0.32678-0.75689 0.37697-1.1026 0.33991-0.43888-0.04704-0.77399-0.25236-1.0756-0.65899-0.17766-0.23953-0.18822-0.35066-0.14513-1.5277 0.0824-2.2529 0.0308-7.3711-0.0851-8.4253-0.32457-2.9523-1.3597-6.1118-2.9534-9.0146-1.6633-3.0295-3.3577-4.7872-7.5671-7.8494-1.7294-1.2581-2.7602-1.8883-3.7206-2.2746-0.83813-0.33713-2.4612-0.76748-2.552-0.67666-0.0308 0.03079 0.101 0.63335 0.29275 1.3391 0.61199 2.2526 0.79649 3.2997 0.85278 4.8396 0.10515 2.8779-0.47221 4.5454-2.1475 6.2017-0.98287 0.97174-1.8514 1.5039-3.2011 1.9613-1.4154 0.47964-2.1457 0.60205-3.9343 0.65938-3.3492 0.10734-5.144-0.39019-7.7901-2.1595-2.7247-1.822-3.2626-2.5802-3.2642-4.6015-8.3e-4 -1.1013 0.17086-2.102 0.70875-4.1308 0.88861-3.3517 1.1707-4.5351 1.0977-4.6053-0.0949-0.09132-1.5851 0.12804-2.6314 0.3873-1.0315 0.25559-2.5972 0.82928-3.7837 1.3864-3.0046 1.4108-5.5576 3.8827-8.2517 7.9895-2.7792 4.2365-3.3406 5.763-4.3735 11.891-0.33095 1.9636-0.39076 2.4794-0.29715 2.5629 0.16374 0.14597 2.4685 1.4376 2.5652 1.4376 0.0435 0 0.21648-0.57503 0.3844-1.2779 1.06-4.4369 3.2147-9.2042 5.1978-11.501 0.86096-0.99697 3.1739-3.0474 3.6726-3.2558 0.43832-0.18314 0.66459-0.17196 1.1358 0.05615 0.63508 0.30744 0.77158 0.62383 0.86692 2.0095 0.0891 1.2959 0.1879 1.8259 0.7584 4.0711 0.84919 3.3421 1.8271 5.8012 3.0118 7.5742 1.157 1.7315 2.6733 3.3791 4.0851 4.4391 0.76503 0.57435 2.2771 1.3432 3.0668 1.5595 0.75092 0.20566 3.143 0.28579 4.1473 0.13893 1.6929-0.24754 3.3775-0.78656 4.4173-1.4134 2.7831-1.6779 5.8319-6.4959 8.8998-14.064 0.90037-2.2212 0.87077-2.1641 1.2588-2.4278 0.38207-0.25964 1.0701-0.29855 1.485-0.08405 0.45004 0.23272 2.5833 3.2417 3.3153 4.6763 0.50846 0.99645 1.0301 2.5917 1.4651 4.4803 0.69251 3.0067 0.97042 5.4292 1.1749 10.242 0.20145 4.7409-0.23996 7.7803-1.5856 10.918-2.0487 4.7772-5.032 8.3809-8.8896 10.738-0.49832 0.30452-0.77237 0.53025-0.77237 0.63617 0 0.62422 0.31484 3.868 0.46648 4.8061 0.37957 2.3482 0.8122 3.0372 2.111 3.362 0.56624 0.14157 2.787 0.0546 3.2898-0.12869zm-15.765-8.3277c3.2298-0.3588 5.6001-1.0016 7.8994-2.1423 3.5934-1.7827 6.2988-4.5971 8.3133-8.6483 1.1328-2.2781 1.6398-3.8462 1.91-5.9073 0.26885-2.051 0.13733-7.1489-0.28245-10.948-0.23948-2.1672-0.9696-5.4552-1.5395-6.933-0.25821-0.66955-1.0657-2.1243-1.3235-2.3844-0.0928-0.09362-0.25224 0.19372-0.79934 1.4405-1.5302 3.4872-3.3175 6.7764-4.8143 8.8601-2.728 3.7978-5.0429 5.29-9.3691 6.0396-1.5404 0.26688-3.6874 0.2903-4.8991 0.05338-2.8901-0.56501-5.653-2.3641-8.0798-5.261-2.5777-3.0771-3.8238-5.7733-5.1342-11.109-0.23852-0.97116-0.45467-1.8285-0.48033-1.9052-0.0639-0.19073-0.8932 0.73285-1.6242 1.8087-1.5941 2.346-3.4092 7.0256-4.0275 10.384-0.42832 2.3259-0.5427 5.3299-0.28637 7.5212 0.36934 3.1573 1.572 7.1724 2.7795 9.2793 0.75353 1.3147 1.5062 2.2852 2.7059 3.4887 3.7176 3.7296 8.6474 5.9986 14.033 6.4588 1.0729 0.09166 3.7979 0.03943 5.0184-0.09604zm-4.9506-2.8308c-1.2314-0.34648-1.8956-0.99815-1.8956-1.8599 0-1.056 1.1077-1.8592 2.7208-1.973 1.5691-0.11069 2.9331 0.57853 3.2521 1.6431 0.23064 0.76975-0.40339 1.6463-1.4892 2.0588-0.67751 0.25738-1.9162 0.3201-2.5881 0.13104zm12.014-7.8225c-1.1418-0.24374-2.2588-0.95742-2.8246-1.8047-0.48614-0.72802-0.61413-1.1648-0.61053-2.0838 2e-3 -0.63837 0.0448-0.83301 0.29971-1.3768 0.68538-1.4626 2.2382-2.3831 4.0246-2.3859 2.1366-0.0035 3.9683 1.4349 4.2782 3.3593 0.2967 1.8424-1.0689 3.6749-3.1408 4.2145-0.49258 0.1283-1.5915 0.17027-2.0266 0.07737zm-23.419-1.1188c-1.5369-0.20385-2.9594-1.1619-3.6368-2.4494-0.24159-0.45918-0.26631-0.59236-0.26637-1.4355-7e-5 -0.81686 0.0304-0.99452 0.2523-1.4679 0.14923-0.3185 0.47203-0.7559 0.78993-1.0704 2.3176-2.2926 6.5672-1.7225 7.9395 1.065 0.27967 0.56811 0.31132 0.71332 0.31145 1.4291 9e-5 0.73444-0.0273 0.85225-0.35086 1.5072-0.83607 1.6924-2.9347 2.701-5.0392 2.4218z" fill="#8591b8"/>
     <path d="m264.04-25.958c-4.5455-0.70205-7.6899-4.7301-8.0055-10.255-0.0341-0.5978-0.0869-1.1012-0.11742-1.1187-0.0304-0.01753-0.53628 0.09673-1.1241 0.2539-1.0042 0.26843-1.1698 0.28576-2.7416 0.28696-1.5698 0.0012-1.7142-0.0136-2.345-0.24073-0.85691-0.30852-1.3209-0.58444-2.0525-1.2206-0.82893-0.72081-1.5419-1.6457-2.019-2.6189-0.56184-1.1462-0.79296-2.081-0.85344-3.4518-0.12766-2.8939 0.72504-5.0775 3.0796-7.8862 0.38563-0.46003 0.70208-0.89183 0.7032-0.95957 1e-3 -0.0678-0.47656-0.7772-1.0615-1.5766-2.2802-3.1159-2.6123-4.0395-2.5302-7.0361 0.0676-2.4643 0.41113-3.8764 1.2398-5.0948 0.75128-1.1046 1.7734-1.785 3.3298-2.2166 0.64547-0.17898 0.97621-0.2065 2.5092-0.2088 1.3234-0.0023 1.9636 0.03793 2.5557 0.15932 1.213 0.24872 2.7857 0.68393 3.5885 0.99308 0.39877 0.15356 0.75306 0.24813 0.78731 0.21019 0.0343-0.03793 0.19701-0.8845 0.3617-1.8812 0.86788-5.2525 1.451-7.1377 3.1254-10.104 0.80845-1.4322 2.5012-3.9904 3.3685-5.0908 1.5724-1.9948 3.4426-3.8444 5.0532-4.9972 2.7054-1.9366 6.638-3.3366 10.056-3.5799l0.92307-0.06572 0.47808-1.5334c1.1206-3.5944 2.0522-5.3188 3.5204-6.5166 1.1594-0.94579 2.3985-1.3538 3.8469-1.2665 1.4442 0.0871 2.4935 0.67067 3.9404 2.1917 1.5344 1.6131 2.4221 3.2107 3.2873 5.9167 0.24516 0.76671 0.47263 1.4262 0.50549 1.4655 0.0329 0.03932 0.45356 0.1352 0.93488 0.21305 1.0845 0.1754 2.4677 0.52248 3.3602 0.84312 1.4634 0.52576 2.644 1.238 5.1846 3.1279 4.6131 3.4314 6.4685 5.4998 8.3959 9.3593 1.2435 2.49 1.9393 4.4639 2.4243 6.8771 0.36868 1.8345 0.42644 2.537 0.4874 5.9274 0.0315 1.7522 0.0882 3.2049 0.12594 3.2282 0.0378 0.02329 0.50367-0.13982 1.0354-0.36258 3.3554-1.4058 5.7252-1.8032 7.7369-1.2975 0.91901 0.23102 1.6192 0.64658 2.3849 1.4155 1.0762 1.0807 1.5416 2.2929 1.6396 4.271 0.10573 2.1335-0.42031 3.6879-1.8982 5.6097-0.64212 0.83498-2.3736 2.7626-3.3198 3.696-0.38733 0.38208-0.70425 0.74842-0.70425 0.8141 0 0.06572 0.28766 0.42965 0.63923 0.80883 1.4295 1.5417 2.587 3.3677 3.0224 4.7679 0.31799 1.0227 0.4334 2.3434 0.33103 3.788-0.19473 2.7478-1.0273 4.6272-2.8047 6.331-1.3679 1.3113-2.5049 1.7072-5.1033 1.7768-3.0186 0.08094-5.0439-0.44242-7.2364-1.8699-0.43428-0.28276-0.81588-0.48468-0.84798-0.44873-0.032 0.03597-0.16982 0.46267-0.30606 0.94825-0.32583 1.1614-1.1369 3.1612-1.6459 4.0582-0.51079 0.90016-1.5164 1.9299-2.276 2.3307-0.91894 0.48486-2.001 0.70239-3.5208 0.70785-2.2263 8e-3 -3.508-0.4126-4.6092-1.5125-0.92322-0.92213-1.3395-1.8999-1.7149-4.0277-0.16084-0.91185-0.41366-3.3478-0.41366-3.9859 0-0.27771-0.041-0.45165-0.10653-0.45165-0.0587 0-0.59184 0.14495-1.1849 0.32212-2.4916 0.7443-5.132 1.1454-8.0949 1.2297-4.0987 0.11658-7.4348-0.47825-11.003-1.9618-0.45465-0.18903-0.85425-0.31002-0.88798-0.26888-0.0338 0.04116-0.29946 0.68122-0.59045 1.4224-1.496 3.8101-3.2501 6.2607-5.7389 8.0175-0.88389 0.62393-2.228 1.2417-3.294 1.514-1.0453 0.26702-2.8457 0.37275-3.8103 0.22377zm3.4386-3.005c1.3972-0.4514 2.9915-1.5352 3.9672-2.697 1.0532-1.2541 2.048-3.0482 2.8993-5.2287 0.71525-1.8321 0.69869-1.6515 0.18397-2.0056-2.8915-1.9893-5.1087-4.1317-6.5664-6.3448-1.9306-2.9311-3.4832-7.8781-3.8792-12.36-0.0587-0.66449-0.0925-1.9183-0.0751-2.7863l0.0317-1.5782-1.7658-1.0048c-3.7427-2.1299-5.5081-2.8813-7.9381-3.3787-2.0386-0.41728-3.7463-0.32164-4.9472 0.27704-0.48557 0.24207-0.64021 0.37962-0.88236 0.78486-0.55414 0.92733-0.94732 3.0568-0.83075 4.4994 0.12323 1.5251 0.52254 2.312 2.6001 5.1236 0.744 1.0069 1.3956 1.9107 1.4479 2.0086 0.13845 0.25868 0.11555 0.84592-0.045 1.1537-0.0764 0.14664-0.39464 0.55491-0.70703 0.90726-1.7057 1.924-2.7093 3.4287-3.121 4.6795-0.32417 0.98486-0.40368 2.6657-0.16933 3.5795 0.25429 0.99156 0.74111 1.8943 1.3959 2.5884 0.68642 0.72762 1.3003 1.0668 2.2215 1.2272 1.1166 0.19444 3.0016-0.17055 4.6558-0.90146 1.1214-0.49551 1.4799-0.59312 1.8202-0.49553 0.42261 0.1212 0.71867 0.33721 0.92326 0.67364 0.16638 0.27359 0.17481 0.42385 0.12092 2.1562-0.0642 2.0633 0.0546 3.1471 0.49182 4.4864 0.8593 2.6324 2.3228 4.1482 4.6001 4.7648 0.97574 0.26416 2.5245 0.2083 3.5676-0.12868zm39.079-0.34197c1.5307-0.24224 2.1309-0.88934 3.0994-3.3416 0.59079-1.4959 0.87482-2.541 1.044-3.8415 0.1632-1.2544 0.28549-1.5672 0.71695-1.8336 0.72993-0.45063 1.0984-0.36418 2.2609 0.53041 2.5808 1.986 3.8481 2.5646 6.1857 2.8241 1.5471 0.17172 2.9894-0.01257 3.9643-0.50659 0.66458-0.33676 1.4237-1.2137 1.9188-2.2166 0.56245-1.1393 0.72575-1.9326 0.73131-3.5527 5e-3 -1.1854-0.0182-1.3664-0.2508-2.0352-0.48411-1.3923-1.3451-2.6248-3.2525-4.6562-1.219-1.2983-1.4236-1.6475-1.273-2.1726 0.13832-0.48232 0.27962-0.65154 1.0052-1.2039 1.3062-0.99434 4.0931-4.0403 4.8751-5.3284 0.57324-0.94417 0.74644-1.4997 0.79185-2.54 0.0296-0.6792-1e-3 -1.0904-0.11506-1.5278-0.28772-1.1062-0.65244-1.5901-1.489-1.9754-0.40444-0.1863-0.60319-0.21293-1.5334-0.2055-0.87688 0.0069-1.2189 0.05373-1.9052 0.25998-1.9394 0.58298-3.4832 1.2335-5.0428 2.1248-0.9214 0.52658-1.0423 0.57068-1.5772 0.57537-0.54369 0.0046-0.59976-0.01545-0.91243-0.32806-0.43642-0.43642-0.51768-0.82805-0.39153-1.8866 0.13204-1.1079 0.1213-6.1691-0.0165-7.7674-0.25839-2.9972-0.9888-5.4929-2.5169-8.5997-1.7958-3.6511-3.3348-5.3461-7.8972-8.6978-2.5288-1.8578-3.794-2.5133-5.7484-2.9782-0.42702-0.10158-0.79538-0.16572-0.81858-0.14253-0.0232 0.02318 0.1268 0.66356 0.3333 1.423 0.96563 3.5514 1.1424 5.6197 0.6539 7.6517-0.6264 2.6056-2.5537 4.5214-5.4635 5.4309-2.824 0.88267-6.4786 0.77469-8.9314-0.26386-1.3044-0.5523-3.9682-2.3231-4.6803-3.1113-1.29-1.4278-1.3036-3.0453-0.0642-7.6295 0.65028-2.4053 0.92799-3.5499 0.92799-3.8247 0-0.18279-0.0334-0.18967-0.6273-0.12867-1.7972 0.18456-4.2893 0.97165-6.3477 2.0049-2.5654 1.2877-5.0422 3.6962-7.4513 7.2458-2.2743 3.351-3.386 5.7227-4.016 8.5683-0.26697 1.2058-1.0739 5.8948-1.0739 6.2404 0 0.18613 0.20703 0.33675 1.3489 0.98141 0.74187 0.41884 1.3901 0.73606 1.4405 0.70492 0.0504-0.03113 0.0917-0.13355 0.0917-0.22758 0-0.36484 0.68924-2.8872 1.1765-4.3056 0.58193-1.6939 1.6042-4.1033 2.2362-5.2706 1.2122-2.239 2.277-3.4856 4.812-5.6338 0.71471-0.60564 0.87523-0.68575 1.3742-0.68575 0.84164 0 1.367 0.64191 1.368 1.6714 1e-3 1.3667 0.74689 4.7188 1.6903 7.5987 1.6918 5.1646 5.5519 9.4864 9.4148 10.541 1.074 0.29324 3.4848 0.29232 4.858-0.0023 2.6398-0.56552 3.931-1.2306 5.4663-2.8157 2.0683-2.1354 4.3287-6.0114 6.523-11.185 0.45524-1.0734 0.94559-2.2653 1.0896-2.6486 0.39997-1.0643 0.97073-1.5027 1.7629-1.3541 0.48432 0.09085 0.70981 0.32757 1.8908 1.985 1.7021 2.3888 2.2574 3.4881 2.8518 5.6452 1.0747 3.9002 1.5786 8.3062 1.5779 13.798-9.3e-4 3.2161-0.0902 4.1289-0.5989 6.0923-0.79362 3.0628-2.701 6.7227-4.8215 9.2516-1.36 1.6219-3.2889 3.2833-5.0243 4.3274l-0.7462 0.44896-2e-3 0.60407c-2e-3 0.58129 0.22288 3.3254 0.32867 3.9962 0.32634 2.0693 0.68689 3.032 1.2958 3.4598 0.66073 0.46421 2.1442 0.65132 3.4833 0.43941zm-14.265-8.6383c4.6008-0.59238 8.0032-2.0128 10.895-4.5483 2.696-2.3638 5.1332-6.3445 6.0635-9.9035 0.48719-1.8639 0.51336-2.1645 0.50971-5.8549-6e-3 -5.5601-0.41448-9.1116-1.4851-12.896-0.33687-1.1909-1.1392-2.9405-1.6032-3.4965l-0.26033-0.31182-0.68917 1.5681c-3.3094 7.53-6.4482 11.855-9.8397 13.557-1.9996 1.0035-4.491 1.555-7.0293 1.556-2.2591 9.23e-4 -3.9736-0.45634-5.8694-1.5652-3.0185-1.7656-6.0661-5.3508-7.6944-9.0519-0.54095-1.2295-1.1901-3.2862-1.7748-5.6225-0.29417-1.1756-0.56582-2.1727-0.60369-2.2157-0.0851-0.09674-1.1626 1.1543-1.7101 1.9854-0.47472 0.72058-1.3943 2.5293-1.8757 3.6891-1.3148 3.1681-1.9845 5.6446-2.3193 8.5762-0.20753 1.8172-0.14188 4.9378 0.13834 6.5762 0.50878 2.9747 1.4339 5.9256 2.4834 7.9215 1.644 3.1265 4.9094 6.0899 8.8139 7.9986 2.6865 1.3133 5.1725 1.9817 8.4137 2.2624 0.96417 0.08348 4.0319-0.04266 5.4367-0.22351zm-5.6971-2.7416c-1.2188-0.34271-1.877-1.0018-1.877-1.8794 0-1.9263 3.7836-2.6976 5.4363-1.1082 1.3459 1.2943 0.1025 2.9821-2.2766 3.0903-0.5201 0.02364-0.95828-0.01153-1.2827-0.10262zm11.877-7.8619c-0.77253-0.14976-1.6976-0.68488-2.3034-1.3325-1.136-1.2144-1.3335-2.8279-0.51666-4.2217 0.71033-1.2121 2.2896-2.0579 3.8423-2.0579 2.5753 0 4.6318 2.1074 4.267 4.3725-0.36185 2.2469-2.7777 3.7265-5.2893 3.2396zm-23.569-1.1456c-1.4378-0.27162-2.7392-1.1996-3.3108-2.3607-0.27849-0.5657-0.30368-0.69024-0.30368-1.5017 0-0.78942 0.0294-0.94496 0.27213-1.4424 0.35162-0.72046 1.1705-1.5251 1.9278-1.8942 0.9388-0.45758 1.6512-0.59963 2.7255-0.54352 1.4933 0.07806 2.5011 0.5424 3.4644 1.5964 0.63842 0.69852 0.8943 1.3627 0.89698 2.3283 2e-3 0.64437-0.0374 0.82739-0.29387 1.373-0.85402 1.8168-3.1584 2.8643-5.3784 2.4449zm16.289-28.498c1.8205-0.20299 3.382-0.84096 4.3037-1.7583 1.4086-1.4019 1.6318-3.5138 0.75215-7.116-0.3056-1.2514-1.8836-6.5247-2.3344-7.801-0.79128-2.2403-2.3229-4.3613-3.6263-5.0218-0.61957-0.31397-1.3807-0.29479-2.0718 0.05223-0.52501 0.26361-1.2257 0.99437-1.6285 1.6985-0.71353 1.2471-1.8515 4.6362-2.2944 6.8333-0.40062 1.9873-0.58157 2.7491-1.198 5.0436-0.66572 2.4781-0.93243 3.8825-0.85982 4.5277 0.0414 0.36732 0.11173 0.49071 0.45279 0.79401 0.6008 0.53425 2.351 1.6743 3.1454 2.0488 1.4577 0.68729 3.304 0.92809 5.3591 0.69894z" fill="#6c8fa1"/>
     <path d="m264.13-25.958c-1.4819-0.2289-3.0306-0.90552-4.2445-1.8544-2.1667-1.6937-3.6525-4.9671-3.8537-8.4903-0.034-0.59594-0.0869-1.0834-0.11742-1.0833-0.0306 9.3e-5 -0.55738 0.13334-1.1708 0.29601-1.0307 0.27334-1.2314 0.29621-2.6486 0.30179-1.6954 0.0069-2.2146-0.10354-3.3921-0.71985-0.68886-0.36056-2.1934-1.8407-2.6329-2.5903-0.85846-1.464-1.3135-3.069-1.3156-4.6408-3e-3 -2.6771 0.94749-4.8714 3.3761-7.7888l0.54286-0.6521-0.97291-1.3268c-1.5673-2.1375-2.086-3.0409-2.4969-4.3497-0.19761-0.62933-0.21808-0.86456-0.21808-2.5067 0-1.9647 0.0778-2.5518 0.52619-3.9705 0.63239-2.0009 1.8793-3.1383 4.1205-3.7587 0.6381-0.17664 0.98058-0.20619 2.4163-0.20847 1.2332-0.0023 1.8804 0.03978 2.4627 0.15897 1.2112 0.24782 2.7847 0.68321 3.5904 0.99344 0.39977 0.15393 0.77238 0.27989 0.82801 0.27989 0.0592 0 0.22753-0.76114 0.40593-1.8355 0.88495-5.3292 1.4712-7.2069 3.2137-10.294 2.856-5.0596 6.2581-8.8696 9.6768-10.837 2.5903-1.4905 6.0001-2.5656 8.7062-2.7448 0.69712-0.04623 0.92838-0.09512 0.98688-0.2087 0.0421-0.08163 0.21143-0.60839 0.37645-1.1706 1.0027-3.4163 2.2426-5.7234 3.6487-6.7888 1.1906-0.90216 2.4679-1.3173 3.7704-1.2255 1.3529 0.0953 2.6111 0.7914 3.9087 2.1622 1.4742 1.5573 2.4002 3.226 3.2735 5.8985 0.25888 0.79226 0.53112 1.4874 0.60495 1.5448 0.0738 0.05742 0.38277 0.13246 0.68652 0.16683 0.30377 0.03436 1.0454 0.18304 1.648 0.33036 2.6238 0.64147 3.9103 1.3126 7.1829 3.7469 4.5834 3.4094 6.2858 5.32 8.2568 9.2664 1.291 2.5849 1.9797 4.5281 2.4705 6.9701 0.36863 1.8343 0.42644 2.537 0.48736 5.9246 0.043 2.394 0.0851 3.183 0.16951 3.183 0.0618 0 0.54711-0.18186 1.0786-0.40413 4.0565-1.6965 6.5721-1.9353 8.7632-0.8319 1.7628 0.88774 2.777 2.7153 2.9102 5.2443 0.104 1.9734-0.43439 3.5787-1.8325 5.4643-0.6306 0.85051-2.4407 2.8882-3.4297 3.861-0.36236 0.35643-0.65884 0.70681-0.65884 0.77864 0 0.07183 0.26138 0.40771 0.58084 0.7464 1.3643 1.4464 2.5817 3.3767 3.052 4.8391 0.67378 2.0952 0.45858 5.2666-0.49932 7.3582-0.75773 1.6546-2.0831 3.1378-3.3471 3.7458-1.1563 0.55615-1.9474 0.72124-3.7 0.77207-2.9086 0.0844-5.0746-0.488-7.2647-1.9197-0.39771-0.25999-0.7569-0.4727-0.7982-0.4727s-0.16425 0.33315-0.27325 0.74034c-0.47395 1.7709-1.5448 4.1912-2.2968 5.191-1.1094 1.4751-2.7789 2.1767-5.2021 2.186-1.4427 6e-3 -2.3753-0.17551-3.3899-0.65816-2.0521-0.97616-2.8787-2.9803-3.2874-7.9704-0.092-1.1238-0.14047-1.3907-0.24993-1.377-0.0747 0.0092-0.55397 0.1481-1.0651 0.30833-3.9628 1.2423-9.2664 1.6267-13.336 0.96675-1.7824-0.28904-3.885-0.89859-5.6933-1.6505-0.44785-0.18622-0.86606-0.33756-0.92934-0.33631-0.0633 0.0012-0.31899 0.53445-0.56819 1.1849-1.2309 3.2126-2.8914 5.8673-4.5818 7.3251-1.3973 1.205-3.0674 2.1087-4.6303 2.5055-1.0463 0.26564-2.6962 0.36782-3.6244 0.22446zm2.9274-2.8464c1.3952-0.33846 2.8762-1.2421 4.0637-2.4794 0.85516-0.89101 1.4989-1.8394 2.2496-3.3142 0.6028-1.1842 1.5861-3.5999 1.5861-3.8966 0-0.12315-0.13927-0.27718-0.39498-0.43683-1.627-1.0158-4.2695-3.36-5.4864-4.8671-2.0924-2.5912-3.5434-5.9644-4.431-10.301-0.42095-2.0567-0.56092-3.5128-0.56092-5.8354v-2.0577l-2.0996-1.1827c-3.5495-1.9995-5.2567-2.7266-7.5216-3.2035-2.3839-0.50201-4.6198-0.27029-5.5871 0.57903-0.72096 0.63301-1.1344 2.0047-1.211 4.0183-0.0914 2.401 0.0912 2.8054 3.092 6.8481 0.97938 1.3194 1.1277 1.6529 0.97388 2.1894-0.0474 0.16513-0.5139 0.80109-1.0368 1.4132-1.8456 2.1607-2.6515 3.4486-3.0272 4.837-0.25247 0.93319-0.23108 2.5477 0.0455 3.4386 0.56024 1.8043 1.7036 3.0812 3.1249 3.4897 0.43436 0.12486 0.76505 0.14785 1.5334 0.10654 1.1945-0.06411 2.2633-0.34475 3.7614-0.98758 0.60405-0.25919 1.2232-0.47125 1.376-0.47125 0.37064 0 0.93332 0.32664 1.1268 0.65409 0.20101 0.34028 0.21537 0.6018 0.11973 2.1804-0.19716 3.254 0.7387 6.1961 2.4929 7.837 0.71684 0.67056 1.2221 0.98008 2.0958 1.2839 1.217 0.42325 2.4112 0.47394 3.7148 0.1577zm40.353-0.67235c0.93141-0.36207 1.5131-1.1774 2.3392-3.2788 0.53091-1.3505 0.84768-2.5559 1.0214-3.8867 0.0768-0.58841 0.1999-1.129 0.28742-1.2626 0.23861-0.36417 0.69472-0.59572 1.1742-0.59612 0.39817-2.77e-4 0.51817 0.06745 1.7687 0.99928 2.7241 2.0298 3.8585 2.483 6.4976 2.5957 2.8254 0.12065 4.2093-0.59397 5.2528-2.7124 0.62086-1.2605 0.73076-1.789 0.73437-3.5315 2e-3 -1.3246-0.0213-1.5615-0.22058-2.1697-0.22541-0.68816-0.91316-1.8771-1.6082-2.7802-0.20701-0.26896-0.90413-1.0581-1.5491-1.7536-1.3155-1.4184-1.3972-1.5334-1.4018-1.9733-6e-3 -0.49189 0.32274-0.94535 1.0841-1.4991 0.98755-0.71822 3.4235-3.3089 4.5104-4.797 0.5172-0.70809 0.98142-1.7628 1.1101-2.5221 0.21281-1.2557-0.18953-2.9234-0.8611-3.5694-1.4402-1.3853-4.8557-0.77176-9.3171 1.6736-0.91986 0.50418-1.2047 0.61798-1.5469 0.61798-0.51414 0-0.93303-0.27221-1.1622-0.75525-0.14928-0.31457-0.15259-0.46846-0.0431-2.0058 0.14226-1.9989 0.0643-6.6806-0.13587-8.1615-0.43667-3.2302-1.5794-6.4187-3.398-9.4814-1.4803-2.4931-3.2491-4.2401-7.1549-7.067-1.6021-1.1595-2.7454-1.868-3.5654-2.2094-0.85264-0.35496-2.572-0.8109-2.7705-0.7347-0.13104 0.05027-0.10504 0.2126 0.21465 1.3424 0.6242 2.2057 0.82766 3.3549 0.88627 5.006 0.0423 1.1917 0.0214 1.6458-0.10411 2.2653-0.51907 2.5617-1.8241 4.1992-4.2702 5.3579-1.7195 0.81454-3.4366 1.1125-5.9595 1.0343-2.9771-0.09235-4.3708-0.58538-7.1715-2.5369-1.3242-0.92264-1.9948-1.5884-2.3215-2.3046-0.22255-0.48786-0.26371-0.7132-0.2954-1.6168-0.0468-1.3331 0.0948-2.1377 0.91871-5.2231 0.79714-2.9851 0.96258-3.7158 0.86331-3.8132-0.12071-0.11838-1.5349 0.08105-2.7038 0.3814-2.1707 0.55768-4.6393 1.6571-6.1397 2.7345-2.234 1.6042-4.5559 4.2976-6.6912 7.7621-1.8726 3.0383-2.5731 4.8072-3.2196 8.13-0.36844 1.8935-0.88299 5.1555-0.8327 5.2787 0.0513 0.12549 2.6694 1.5967 2.793 1.5695 0.0975-0.02145 0.13483-0.14908 0.45273-1.5509 0.70344-3.1019 2.5245-7.5353 4.0342-9.8211 0.75034-1.1361 1.9628-2.4447 3.4424-3.7153 1.19-1.0219 1.55-1.1958 2.1212-1.0247 0.74955 0.22457 1.0231 0.78456 1.0361 2.1208 7e-3 0.77072 0.20006 1.7585 0.79466 4.0761 0.66078 2.5755 1.1478 4.0292 1.8146 5.4169 0.98055 2.0403 2.1652 3.6686 3.8688 5.3175 2.0313 1.9661 3.7713 2.8528 6.0022 3.0587 2.46 0.22699 5.7921-0.54683 7.5436-1.7519 2.6558-1.8272 5.696-6.7846 8.6463-14.099 0.87314-2.1646 0.99051-2.3104 1.8606-2.3104 0.72156 0 0.74755 0.02064 1.7909 1.4248 2.1903 2.9477 2.8559 4.42 3.6839 8.1485 0.59031 2.6583 0.89569 5.4314 1.0798 9.8059 0.22638 5.3781-0.29942 8.3188-2.1847 12.218-1.2568 2.5998-2.5055 4.3734-4.4546 6.3273-1.3224 1.3257-2.4843 2.2618-3.7897 3.0533-0.39509 0.23957-0.74323 0.47585-0.77365 0.52506-0.15912 0.25747 0.33957 4.9353 0.66139 6.204 0.49325 1.9445 1.1435 2.3642 3.5722 2.3054 1.0251-0.0248 1.3516-0.068 1.785-0.23653zm-15.999-8.3238c3.4425-0.36539 5.6305-0.94906 8.0341-2.1432 3.8818-1.9286 6.7763-5.0652 8.7849-9.5199 1.3526-2.9997 1.7504-5.3022 1.6384-9.4832-0.0634-2.3703-0.26214-5.2504-0.48406-7.0165-0.31821-2.5324-1.1028-5.6983-1.7517-7.068-0.46467-0.98096-1.1589-2.0482-1.2569-1.9324-0.0367 0.04335-0.28887 0.60146-0.56045 1.2404-0.2716 0.63892-0.96512 2.1235-1.5412 3.2992-2.1832 4.4554-4.3942 7.6163-6.5265 9.3304-2.0277 1.6299-5.0356 2.6392-8.2466 2.767-2.2877 0.09108-3.8111-0.21089-5.669-1.1237-1.4798-0.72708-2.5165-1.4999-3.998-2.9804-3.2775-3.2752-4.8242-6.2685-6.3131-12.217-0.28721-1.1476-0.54269-2.107-0.56772-2.132-0.025-0.02502-0.27776 0.18206-0.56165 0.46019-2.0585 2.0168-4.5793 8.031-5.2758 12.587-0.65404 4.2788-0.2959 8.123 1.1728 12.588 1.3208 4.0157 3.1924 6.5672 6.736 9.1831 3.1606 2.3332 7.2933 3.8919 11.224 4.2332 1.0267 0.08913 4.0396 0.04704 5.1626-0.07218zm-5.1041-3.0312c-1.0539-0.34249-1.7254-1.2178-1.5494-2.0193 0.0927-0.42197 0.64792-1.0008 1.2378-1.2904 0.49687-0.24395 0.60843-0.26115 1.6936-0.26115 1.3214 0 1.7162 0.12209 2.4038 0.74321 0.95403 0.86189 0.63815 2.058-0.71594 2.7111-0.72865 0.35144-2.1778 0.40647-3.0698 0.11659zm12.625-7.7143c-1.6672-0.18211-3.1182-1.2916-3.5707-2.7302-0.24419-0.77637-0.16992-1.8041 0.18254-2.5256 0.7205-1.4748 2.6615-2.5039 4.3477-2.3051 2.1372 0.252 3.721 1.7196 3.8535 3.5708 0.16939 2.3674-2.1401 4.282-4.813 3.9901zm-24.347-1.2541c-1.2248-0.3223-2.3083-1.1111-2.8649-2.0856-1.455-2.5476 0.7916-5.5236 4.166-5.5185 1.9315 0.0035 3.6045 0.93363 4.3269 2.4071 0.24432 0.49835 0.27338 0.65159 0.27338 1.4419 0 0.80882-0.0256 0.93642-0.30051 1.4953-0.535 1.0877-1.6872 1.9522-3.021 2.2666-0.73007 0.17213-1.9117 0.169-2.5799-0.0069zm17.782-28.517c2.1734-0.50117 3.6205-1.609 4.1664-3.1895 0.19267-0.55778 0.21632-0.79251 0.21311-2.1144-5e-3 -2.0408-0.21611-2.9738-1.9561-8.6429-1.1992-3.9071-1.8662-5.272-3.2874-6.7275-1.1276-1.1548-1.946-1.4326-3.024-1.0265-1.3156 0.49562-2.1749 1.8496-3.2427 5.1094-0.56478 1.7242-0.75767 2.4714-1.3179 5.1047-0.1356 0.63743-0.47612 2.0175-0.75671 3.0668-0.77815 2.9101-0.95397 3.7645-0.95492 4.6406l-8.4e-4 0.7811 0.35219 0.33502c0.36368 0.34595 1.9597 1.4534 2.7391 1.9007 0.63646 0.36521 1.5558 0.69332 2.3765 0.84814 0.93556 0.1765 3.7818 0.12457 4.6933-0.08567z" fill="#547193"/>
     <path d="m264.13-25.958c-1.4819-0.2289-3.0306-0.90552-4.2445-1.8544-2.1667-1.6937-3.6525-4.9671-3.8537-8.4903-0.034-0.59594-0.0869-1.0834-0.11742-1.0833-0.0306 9.3e-5 -0.55738 0.13334-1.1708 0.29601-1.0307 0.27334-1.2314 0.29621-2.6486 0.30179-1.6954 0.0069-2.2146-0.10354-3.3921-0.71985-0.68886-0.36056-2.1934-1.8407-2.6329-2.5903-0.85846-1.464-1.3135-3.069-1.3156-4.6408-3e-3 -2.6771 0.94749-4.8714 3.3761-7.7888l0.54286-0.6521-0.97291-1.3268c-1.5428-2.104-2.0924-3.0615-2.4974-4.3512-0.19708-0.62757-0.21763-0.86413-0.21763-2.5052 0-1.9647 0.0778-2.5518 0.52619-3.9705 0.63239-2.0009 1.8793-3.1383 4.1205-3.7587 0.6381-0.17664 0.98058-0.20619 2.4163-0.20847 1.2332-0.0023 1.8804 0.03978 2.4627 0.15897 1.2112 0.24782 2.7847 0.68321 3.5904 0.99344 0.39977 0.15393 0.77238 0.27989 0.82801 0.27989 0.0592 0 0.22753-0.76114 0.40593-1.8355 0.88495-5.3292 1.4712-7.2069 3.2137-10.294 2.856-5.0596 6.2581-8.8696 9.6768-10.837 2.5903-1.4905 6.0001-2.5656 8.7062-2.7448 0.69712-0.04623 0.92838-0.09512 0.98688-0.2087 0.0421-0.08163 0.21143-0.60839 0.37645-1.1706 1.0027-3.4163 2.2426-5.7234 3.6487-6.7888 1.1906-0.90216 2.4679-1.3173 3.7704-1.2255 1.3529 0.0953 2.6111 0.7914 3.9087 2.1622 1.4742 1.5573 2.4002 3.226 3.2735 5.8985 0.25888 0.79226 0.53112 1.4874 0.60495 1.5448 0.0738 0.05742 0.38277 0.13246 0.68652 0.16683 0.30377 0.03436 1.0454 0.18304 1.648 0.33036 2.6238 0.64147 3.9103 1.3126 7.1829 3.7469 4.5834 3.4094 6.2858 5.32 8.2568 9.2664 1.291 2.5849 1.9797 4.5281 2.4705 6.9701 0.36798 1.831 0.42602 2.5381 0.48055 5.8549 0.0281 1.7123 0.0664 3.1623 0.085 3.2221 0.022 0.07114 0.39818-0.04508 1.085-0.33517 4.102-1.7325 6.6403-1.9822 8.8482-0.87028 1.7628 0.88774 2.777 2.7153 2.9102 5.2443 0.104 1.9734-0.43439 3.5787-1.8325 5.4643-0.63061 0.85051-2.4407 2.8882-3.4297 3.861-0.36236 0.35643-0.65884 0.70681-0.65884 0.77864 0 0.07183 0.26138 0.40771 0.58084 0.7464 1.3643 1.4464 2.5818 3.3767 3.052 4.8391 0.67378 2.0952 0.45857 5.2666-0.49933 7.3582-0.75772 1.6546-2.0831 3.1378-3.3471 3.7458-1.1563 0.55615-1.9474 0.72124-3.7 0.77207-2.9086 0.0844-5.0746-0.488-7.2647-1.9197-0.39771-0.25999-0.7569-0.4727-0.7982-0.4727s-0.16425 0.33315-0.27324 0.74034c-0.47396 1.7709-1.5448 4.1912-2.2968 5.191-1.1094 1.4751-2.7789 2.1767-5.2021 2.186-1.4427 6e-3 -2.3753-0.17551-3.3899-0.65816-2.0521-0.97616-2.8787-2.9803-3.2874-7.9704-0.092-1.1238-0.14047-1.3907-0.24993-1.377-0.0747 0.0092-0.55398 0.1481-1.0651 0.30833-3.9628 1.2423-9.2664 1.6267-13.336 0.96675-1.7824-0.28904-3.885-0.89859-5.6933-1.6505-0.44784-0.18622-0.86605-0.33756-0.92934-0.33631-0.0633 0.0012-0.31898 0.53445-0.56819 1.1849-1.2309 3.2126-2.8914 5.8673-4.5818 7.3251-1.3973 1.205-3.0674 2.1087-4.6303 2.5055-1.0463 0.26564-2.6962 0.36782-3.6244 0.22446zm2.4778-2.7303c3.024-0.58064 5.4689-2.8644 7.1869-6.7133 0.56673-1.2697 1.2612-3.1076 1.2072-3.195-0.0236-0.03828-0.52551-0.41048-1.1153-0.82727-3.2602-2.3039-5.6318-4.9769-7.0559-7.9528-1.0628-2.2209-2.0159-5.4624-2.4866-8.457-0.14452-0.9194-0.1989-1.7962-0.22754-3.6686-0.0208-1.3532-0.068-2.4903-0.10504-2.5268-0.15927-0.15684-4.1629-2.3703-5.2012-2.8756-2.1694-1.0557-4.35-1.6445-6.39-1.7255-2.2345-0.08866-3.5533 0.40803-4.1408 1.5597-0.45354 0.889-0.77713 3.1828-0.64038 4.5393 0.13984 1.3872 0.5423 2.1524 2.5938 4.9317 0.70804 0.95924 1.333 1.8294 1.3888 1.9337 0.0558 0.10423 0.10146 0.37436 0.10146 0.60017 0 0.48038-0.0357 0.53515-1.3995 2.1447-2.1356 2.5207-2.8732 4.0877-2.8748 6.1082-1e-3 2.1199 1.1659 4.2417 2.7684 5.0306 0.54424 0.26793 0.71774 0.30533 1.5614 0.33656 1.433 0.05304 2.6404-0.2291 4.5846-1.0714 0.75135-0.3255 1.0407-0.40821 1.2877-0.36814 0.41574 0.06745 0.72859 0.27862 0.95724 0.64607 0.17359 0.27899 0.18117 0.40402 0.12498 2.0627-0.0985 2.9077 0.30805 4.7731 1.4628 6.7128 1.2529 2.1044 3.9116 3.2551 6.4118 2.775zm39.972-0.56186c1.4218-0.25347 1.8212-0.59313 2.6279-2.2346 0.72288-1.4709 1.3215-3.3385 1.497-4.6708 0.16648-1.2632 0.35533-1.8377 0.68483-2.0831 0.26953-0.2007 0.81548-0.31089 1.1386-0.2298 0.12182 0.03055 0.8664 0.53877 1.6546 1.1293 2.4624 1.8448 3.7756 2.3515 6.3122 2.4353 2.3177 0.07656 3.1943-0.17561 4.237-1.2188 1.0844-1.0849 1.6187-2.3683 1.804-4.3323 0.25974-2.7545-0.54001-4.403-3.7982-7.8289-0.77045-0.81014-0.9308-1.0304-0.98542-1.3536-0.0957-0.56661 0.14748-0.98963 0.88019-1.5309 0.7753-0.57279 1.887-1.6672 3.1814-3.1317 2.1882-2.4759 2.7569-3.6313 2.648-5.3792-0.13265-2.1294-0.95111-3.1124-2.7625-3.3178-1.4575-0.16525-4.6455 0.87398-7.4667 2.434-1.2588 0.69607-1.709 0.78744-2.173 0.44099-0.47021-0.35106-0.63069-0.65877-0.61448-1.1782 0.2223-7.118 0.11288-9.4264-0.57538-12.144-0.45129-1.7821-0.99521-3.2104-1.9465-5.1114-1.8028-3.6025-3.1862-5.1696-7.2392-8.2007-3.1723-2.3724-4.3128-2.9881-6.5058-3.5119-0.41234-0.09846-0.78352-0.14528-0.82482-0.104-0.0413 0.04128 0.0739 0.59454 0.25597 1.2294 0.18209 0.63487 0.46372 1.7816 0.62584 2.5483 0.26911 1.2727 0.29464 1.5396 0.29322 3.0668-1e-3 1.5576-0.0191 1.7302-0.25669 2.5058-0.9014 2.9426-3.0058 4.6851-6.5888 5.4559-0.79301 0.1706-1.26 0.20559-2.8098 0.21055-3.2802 0.01038-4.6433-0.40834-7.4571-2.2915-2.3625-1.5811-2.8972-2.3205-2.9759-4.115-0.0539-1.2287 0.101-2.0946 0.94775-5.2972 0.86937-3.2883 0.94783-3.6491 0.8212-3.7757-0.14614-0.14614-1.9576 0.14264-3.2624 0.52005-3.2125 0.92929-5.5828 2.2958-7.7663 4.4773-2.2038 2.2018-4.5601 5.5641-6.0474 8.6294-0.70433 1.4516-0.99131 2.2751-1.3927 3.9962-0.42607 1.8271-1.2194 6.6288-1.1124 6.7335 0.24189 0.23686 2.7761 1.5799 2.8471 1.5089 0.0448-0.04485 0.1884-0.55863 0.3189-1.1416 0.31747-1.4182 0.9578-3.4667 1.5805-5.0562 0.72771-1.8576 2.0636-4.4981 2.7971-5.5288 1.0657-1.4975 3.8814-4.1518 4.6209-4.356 0.43214-0.11932 0.93451 0.02156 1.2688 0.35589 0.30504 0.30504 0.31478 0.34722 0.44089 1.9083 0.16954 2.099 1.5227 7.0491 2.5126 9.1918 1.5453 3.3449 4.5363 6.588 7.2188 7.8274 1.1342 0.52404 2.1172 0.72023 3.6173 0.72198 2.4794 0.0035 4.9957-0.66006 6.6305-1.7469 1.31-0.87088 3.0156-2.9093 4.5181-5.3997 1.2526-2.0761 3.1268-6.002 4.3701-9.154 0.29234-0.74115 0.60033-1.425 0.68441-1.5197 0.38151-0.42959 1.0843-0.556 1.6022-0.28819 0.44908 0.23223 2.6143 3.2584 3.2934 4.603 0.40376 0.7994 0.91324 2.2735 1.2485 3.6125 0.97188 3.8813 1.3393 7.3696 1.3465 12.783 5e-3 3.6872-0.0616 4.4011-0.60142 6.4532-0.50081 1.9039-1.7211 4.6329-2.9321 6.5574-1.7514 2.7832-4.2703 5.2912-6.9074 6.8773l-0.77254 0.46468 0.0598 1.0687c0.20905 3.7327 0.71429 6.2329 1.3874 6.8652 0.66949 0.62895 2.2793 0.89159 3.8015 0.62021zm-15.861-8.4182c6.2252-0.50054 10.423-2.3498 13.937-6.1403 1.3323-1.4369 2.3549-2.9879 3.3941-5.1478 1.5047-3.1277 1.878-4.9124 1.8753-8.9682-2e-3 -3.9604-0.32246-7.6615-0.91411-10.576-0.4561-2.2469-0.89692-3.7205-1.4373-4.8045-0.52084-1.0449-1.0905-1.8731-1.2057-1.7528-0.0421 0.04393-0.37749 0.76998-0.74534 1.6134-1.8617 4.2684-3.8127 7.698-5.748 10.104-2.1156 2.6302-4.1902 3.8792-7.7065 4.6397-1.6106 0.34834-4.2268 0.41089-5.5717 0.1332-2.5728-0.53118-4.4603-1.6322-6.7664-3.947-2.6917-2.7018-4.3168-5.4615-5.4786-9.3034-0.37911-1.2537-1.2537-4.6815-1.2537-4.9137 0-0.29334-0.2628-0.14432-0.85783 0.48646-0.80359 0.85182-1.4425 1.8357-2.211 3.405-1.9963 4.0762-3.0085 7.7677-3.2452 11.836-0.32292 5.5495 1.5564 12.134 4.4586 15.621 2.6425 3.1753 6.6632 5.741 10.92 6.9685 1.2318 0.35518 2.6888 0.60819 4.504 0.78214 0.76046 0.07287 2.9426 0.05384 4.0524-0.0354zm-3.8414-3.0626c-1.2399-0.2632-2.0696-0.99006-2.0696-1.8131 0-1.8175 3.6365-2.5688 5.2359-1.0818 0.97769 0.90907 0.55722 2.1495-0.91539 2.7005-0.60137 0.225-1.6712 0.31737-2.2508 0.19432zm11.871-7.8715c-1.356-0.22675-2.5566-1.0743-3.1376-2.215-1.0787-2.1182 0.40675-4.6513 3.0263-5.1607 2.0933-0.40707 4.3734 0.83783 4.909 2.6802 0.22102 0.76031 0.14105 1.7991-0.19072 2.4772-0.75397 1.5411-2.7912 2.522-4.6071 2.2184zm-23.584-1.1576c-2.8883-0.4139-4.5859-2.9635-3.4752-5.2194 1.1725-2.3817 4.7655-3.1339 7.1442-1.4957 0.62725 0.43202 1.0621 0.95438 1.3891 1.6685 0.20296 0.44331 0.25124 0.68414 0.25027 1.2481-2e-3 1.0275-0.27081 1.6517-1.0458 2.4264-1.0985 1.098-2.6623 1.6014-4.2624 1.3721zm16.429-28.373c4.1223-0.62144 5.777-2.8533 5.1583-6.9577-0.21588-1.4323-0.46045-2.3808-1.5487-6.0068-1.1465-3.8201-1.5635-4.9602-2.2036-6.0252-0.56155-0.93431-0.70941-1.1241-1.5089-1.9369-1.2235-1.2438-2.0761-1.4761-3.267-0.88982-0.40896 0.20132-0.76478 0.46923-1.0477 0.78878-1.075 1.2143-2.3685 4.7424-3.1588 8.6157-0.18252 0.8945-0.6209 2.7137-0.97417 4.0426-0.81358 3.0605-0.95881 3.7965-0.91215 4.6222 0.0356 0.63059 0.0516 0.66912 0.40501 0.97674 0.51046 0.44435 2.4599 1.7408 3.0951 2.0584 1.5332 0.7665 3.8028 1.0375 5.9625 0.71194z" fill="#546063"/>
     <path d="m264.19-26.063c-0.86274-0.1234-2.4839-0.6722-3.126-1.0582-1.4428-0.86733-2.2777-1.691-3.1528-3.1105-1.0195-1.6535-1.8138-4.5885-1.8168-6.713-9.2e-4 -0.64716 0.0623-0.63669-1.4412-0.23856-1.0148 0.26872-1.2449 0.2959-2.5557 0.30179-1.3504 0.0058-1.4924-0.01038-2.27-0.26523-3.3726-1.1047-5.5379-5.2061-4.8423-9.1722 0.15512-0.88445 0.55717-2.131 0.91466-2.8358 0.36448-0.71863 1.4555-2.3048 2.1964-3.1932 0.36202-0.43409 0.63971-0.83745 0.6171-0.89636-0.0226-0.05892-0.40273-0.59585-0.84473-1.1932-1.5426-2.0847-2.0784-3.0047-2.5183-4.3236-0.25294-0.7583-0.26358-0.86252-0.26558-2.6022-2e-3 -1.9746 0.0936-2.6366 0.59849-4.1301 0.25438-0.75254 0.80577-1.6927 1.236-2.1074 0.7343-0.70782 2.2111-1.3327 3.7176-1.573 1.8059-0.28807 4.8295 0.16832 7.4041 1.1176 0.41829 0.15423 0.83361 0.28042 0.92292 0.28042 0.13879 0 0.20668-0.26672 0.46717-1.8354 1.0684-6.434 1.8546-8.5155 4.9723-13.165 1.2978-1.9356 1.9701-2.8134 3.1028-4.0513 2.5298-2.7647 4.9244-4.3409 8.4061-5.5335 2.0535-0.70337 3.4785-1.0168 5.1155-1.1253 0.69711-0.04612 0.92837-0.09512 0.98687-0.20869 0.0421-0.08163 0.21106-0.60841 0.37561-1.1707 0.41977-1.4342 1.1615-3.3968 1.6156-4.275 0.80059-1.5481 1.7966-2.5816 3.0908-3.2072 2.7732-1.3406 5.4748-0.1959 7.8088 3.3088 0.80476 1.2084 1.2252 2.138 1.8877 4.1734 0.26617 0.81782 0.54436 1.5339 0.61819 1.5913 0.0738 0.05742 0.38278 0.13247 0.68653 0.16682 1.3439 0.15206 3.826 0.89346 5.0447 1.5069 1.5631 0.78677 5.9778 4.0516 7.7741 5.7493 1.6235 1.5343 3.0881 3.6095 4.3292 6.134 1.2192 2.48 1.93 4.521 2.4111 6.9236 0.36805 1.8379 0.42565 2.5398 0.48656 5.9274 0.0315 1.7522 0.0882 3.2049 0.12595 3.2283 0.0378 0.02329 0.50218-0.13919 1.0321-0.36117 2.8977-1.2139 5.2192-1.7478 6.7497-1.5521 2.3646 0.30226 3.8733 1.4353 4.5347 3.4056 0.99819 2.9736 0.52193 5.3761-1.6198 8.1713-0.54778 0.7149-2.4165 2.7965-3.2096 3.5753-0.33686 0.33076-0.61247 0.65999-0.61247 0.73163 0 0.0716 0.24595 0.39318 0.54658 0.71454 1.3622 1.4562 2.5652 3.3617 3.0332 4.8046 0.89242 2.7514 0.41363 6.3087-1.1691 8.6858-1.1985 1.8001-2.4879 2.6382-4.6994 3.0544-1.022 0.19233-3.5088 0.13944-4.5884-0.09754-1.6959-0.37233-2.921-0.88362-4.274-1.7836-0.33169-0.22066-0.66833-0.40119-0.74808-0.40119-0.10365 0-0.2147 0.24797-0.38929 0.8691-0.56298 2.003-1.5071 4.1379-2.2773 5.1496-0.72889 0.95746-1.5795 1.4846-2.9891 1.8523-0.72579 0.18935-1.1184 0.2335-2.1008 0.23626-2.8846 8e-3 -4.6717-0.94803-5.5345-2.961-0.45582-1.0634-0.84171-3.1247-1.0243-5.4716-0.0636-0.81782-0.14506-1.5209-0.18094-1.5624-0.0359-0.04151-0.62514 0.09328-1.3095 0.29943-2.5633 0.77238-5.1737 1.1862-8.0749 1.2801-3.8343 0.12411-7.2493-0.48855-10.803-1.9382-0.49825-0.20322-0.97503-0.35596-1.0595-0.33942-0.1025 0.02006-0.3448 0.51267-0.72841 1.4808-1.0006 2.5253-2.0678 4.4134-3.3561 5.9376-2.3107 2.7338-6.0101 4.2556-9.2266 3.7955zm3.0092-2.6381c0.81969-0.21723 1.9651-0.79696 2.7984-1.4164 1.6025-1.1912 2.8552-2.9209 4.0131-5.5408 0.42114-0.95287 1.1344-2.8056 1.1344-2.9468 0-0.04255-0.37129-0.32706-0.82508-0.63219-2.6119-1.7562-4.8946-4.0166-6.3768-6.3145-1.4186-2.1992-2.7953-6.1158-3.3856-9.6314-0.29227-1.7407-0.39146-3.1029-0.36702-5.04 0.0125-0.98301 3e-3 -1.8063-0.0197-1.8295-0.0233-0.02329-0.98238-0.57346-2.1314-1.2227-3.5051-1.9805-4.9849-2.6215-7.3044-3.1638-0.95668-0.22368-1.3032-0.25884-2.5913-0.26301-1.2932-0.0046-1.5739 0.02248-2.1545 0.20509-1.2208 0.38385-1.8059 1.0578-2.1618 2.4901-0.44186 1.7786-0.41925 3.7445 0.0567 4.9335 0.28281 0.70643 1.1473 2.0262 2.5606 3.9092 1.1894 1.5846 1.1878 1.5819 1.1878 2.0986 0 0.46751-0.0684 0.57061-1.4002 2.1111-0.464 0.53669-1.132 1.4089-1.4845 1.9382-1.0758 1.6155-1.4561 2.8986-1.3657 4.6073 0.0602 1.1383 0.39798 2.1475 1.0439 3.1192 0.5281 0.79437 1.0254 1.2371 1.8125 1.6136 0.54029 0.2584 0.71239 0.29252 1.6297 0.32312 1.4646 0.04889 2.9472-0.32514 4.8757-1.2299 0.28113-0.1319 0.60938-0.24022 0.72944-0.24072 0.35069-0.0012 0.85805 0.28637 1.0501 0.59572 0.16462 0.2652 0.17316 0.41264 0.11618 2.0055-0.104 2.9084 0.31847 4.8545 1.4657 6.751 0.90687 1.4992 2.5023 2.6061 4.1963 2.9114 0.64848 0.11687 2.2114 0.0408 2.8975-0.14094zm40.031-0.59908c0.96306-0.29747 1.3639-0.71958 2.0661-2.1757 0.8945-1.855 1.4582-3.6705 1.5854-5.1061 0.0783-0.88304 0.18059-1.1874 0.50325-1.4965 0.29844-0.28592 0.9639-0.42012 1.2702-0.25618 0.0975 0.05223 0.72698 0.50652 1.3988 1.0096 0.6718 0.50308 1.4526 1.054 1.7351 1.2242 1.4889 0.89722 3.1595 1.3322 5.1266 1.3347 1.9418 0.0023 3.0044-0.34331 3.899-1.2689 0.80519-0.83308 1.4151-2.0335 1.6933-3.3327 0.20332-0.9495 0.20325-2.8285-9e-5 -3.5876-0.37144-1.3863-1.4784-3.0394-3.3399-4.9879-1.4028-1.4683-1.5372-1.7606-1.1611-2.5251 0.057-0.11589 0.46349-0.4776 0.90331-0.80384 1.0242-0.75972 3.4741-3.3819 4.4896-4.8053 1.1062-1.5506 1.4222-3.0202 1.0024-4.6615-0.2232-0.87275-0.37641-1.1752-0.80728-1.5936-1.2573-1.2211-3.988-0.92666-7.7185 0.83222-0.57166 0.26954-1.424 0.70687-1.894 0.97185-0.96673 0.54497-1.4949 0.62811-1.9363 0.3048-0.43473-0.31841-0.58464-0.73439-0.51992-1.4427 0.24194-2.648 0.19644-7.3264-0.0916-9.4085-0.38174-2.7601-1.3948-5.7134-2.9012-8.4571-1.7432-3.1752-3.239-4.7185-7.7883-8.0359-2.3003-1.6774-3.4405-2.2592-5.3762-2.7434-0.68812-0.17212-1.0385-0.22196-1.1034-0.15699-0.065 0.06503 0.0401 0.5917 0.331 1.659 0.7092 2.6022 0.84656 3.4642 0.84158 5.2811-3e-3 1.3182-0.0376 1.703-0.20511 2.3233-1.0434 3.8638-4.7747 5.9977-10.101 5.7765-2.9601-0.12291-4.769-0.828-7.6231-2.9714-1.6704-1.2544-2.0667-2.0636-1.9661-4.0132 0.0624-1.2084 0.20443-1.8851 1.0826-5.1579 0.36345-1.3545 0.66966-2.6719 0.68046-2.9274l0.0196-0.46468-0.65054 0.02836c-1.8514 0.08071-5.2999 1.2352-7.325 2.4521-1.191 0.71569-2.0601 1.4171-3.316 2.6761-1.6897 1.6939-3.2924 3.8306-4.8612 6.4807-1.9322 3.2639-2.4105 4.7717-3.3748 10.638-0.27445 1.6694-0.32323 2.1364-0.23436 2.2435 0.18136 0.21851 2.8131 1.6579 2.9413 1.6087 0.0645-0.02467 0.18726-0.37224 0.27299-0.77228 0.45761-2.1353 1.1954-4.3969 2.2029-6.7531 1.5567-3.6405 2.6761-5.2125 5.3768-7.551 0.53658-0.46464 1.067-0.8933 1.1786-0.95258 0.2928-0.15547 0.93467-0.13247 1.2338 0.04427 0.41835 0.24712 0.53135 0.55438 0.59352 1.6138 0.0719 1.2268 0.15161 1.6634 0.71177 3.9032 0.76932 3.0761 1.3954 4.8999 2.2199 6.4666 0.89545 1.7015 2.2038 3.4378 3.603 4.7815 2.682 2.5755 5.2063 3.4701 8.5452 3.0283 4.5773-0.60565 6.6759-2.1801 9.7386-7.3063 1.3187-2.2073 3.3396-6.4872 4.4758-9.4793 0.3435-0.90461 0.45249-1.0689 0.82697-1.2466 0.38905-0.18462 0.81708-0.18814 1.1624-0.0092 0.16216 0.08382 0.70061 0.74794 1.3752 1.696 1.7306 2.4323 2.1307 3.1947 2.7509 5.2405 0.37135 1.2251 0.91564 3.682 1.1196 5.0536 0.611 4.1096 0.78964 11.046 0.34942 13.568-0.37469 2.1467-0.96866 3.8806-2.1119 6.1648-2.066 4.1281-4.5953 6.8708-8.6147 9.3418-0.22631 0.13913-0.25551 0.21274-0.25504 0.64288 9.3e-4 0.83855 0.27614 3.6605 0.46733 4.7917 0.40977 2.4244 0.96268 3.1534 2.6159 3.4493 0.71768 0.12846 2.1829 0.0369 2.8864-0.18041zm-16.56-8.2772c5.984-0.47059 10.122-2.1897 13.522-5.6183 1.5358-1.5485 2.6713-3.1699 3.7973-5.4225 1.761-3.5228 2.2339-6.1737 2.0082-11.258-0.1915-4.3153-0.4231-6.4506-0.98442-9.0764-0.39499-1.8478-0.79532-3.2138-1.1959-4.0808-0.38975-0.84353-1.2433-2.1769-1.3936-2.1769-0.0635 0-0.42195 0.70048-0.79651 1.5566-2.7954 6.3897-5.6263 10.727-8.3021 12.72-1.3224 0.98481-3.0157 1.6917-5.1199 2.1373-1.6562 0.35075-4.2598 0.41394-5.6058 0.13605-2.5202-0.52033-4.4273-1.6251-6.6701-3.8641-2.3866-2.3825-3.9984-4.9497-5.1056-8.1317-0.35586-1.0228-1.2228-4.1653-1.4998-5.4367-0.24479-1.1234-0.29382-1.1412-1.0191-0.3691-1.5302 1.629-3.0962 4.6934-4.2969 8.4079-1.3683 4.2331-1.695 8.4079-0.98532 12.593 0.48359 2.8515 1.6396 6.2674 2.7591 8.1528 1.7741 2.9879 5.1379 5.9006 8.8238 7.6406 2.5922 1.2236 4.8552 1.821 8.0636 2.1285 0.76273 0.0731 2.8432 0.05361 4.0008-0.03736zm-3.6291-3.2128c-0.90869-0.1749-1.7405-0.65166-1.9948-1.1433-0.30562-0.59102-0.12202-1.2871 0.45575-1.7278 1.206-0.91988 3.4438-0.87898 4.4985 0.08221 0.66878 0.6095 0.63681 1.5341-0.0738 2.1319-0.5761 0.48475-2.044 0.81892-2.8858 0.65691zm11.57-7.9376c-1.7108-0.3507-2.9012-1.4752-3.207-3.0295-0.35828-1.8211 1.061-3.6792 3.1419-4.1131 1.9146-0.39927 3.9456 0.51101 4.7374 2.1233 0.22441 0.45693 0.25321 0.62131 0.25321 1.4449 0 0.84291-0.0252 0.97919-0.27163 1.4654-0.7911 1.5613-2.8263 2.4835-4.6539 2.1089zm-23.415-1.122c-1.0684-0.15561-1.8842-0.52875-2.585-1.1823-1.2094-1.128-1.5074-2.5654-0.82096-3.9599 1.0703-2.1741 4.412-2.9586 6.7548-1.5856 1.3897 0.81442 2.1278 2.4146 1.7573 3.8099-0.5206 1.9609-2.7866 3.2558-5.1061 2.918zm17.455-28.367c1.1919-0.3132 2.1351-0.78612 2.84-1.4239 1.0184-0.92163 1.3944-1.822 1.4676-3.5153 0.0786-1.8157-0.19751-3.1655-1.6105-7.8734-1.0738-3.5777-1.3691-4.4329-1.8904-5.4752-0.99333-1.9857-2.6559-3.6823-3.7726-3.8498-0.95969-0.14392-2.1545 0.47516-2.8804 1.4924-1.0234 1.4341-2.1358 4.6006-2.8731 8.1782-0.17907 0.86894-0.45253 2.0608-0.60768 2.6486-1.1101 4.2058-1.2266 4.7164-1.2768 5.5945-0.0703 1.2293-0.0206 1.3243 1.1335 2.1654 1.9139 1.3948 3.2926 2.0559 4.7428 2.2743 0.30668 0.04623 1.2895 0.07079 2.184 0.05454 1.3916-0.02525 1.7588-0.06422 2.5437-0.2705z" fill="#020202"/>
    </g>
   </g>
  </g>
 </g>
</svg>
