<svg xmlns="http://www.w3.org/2000/svg" width="440" height="252" viewBox="0 0 116.4 66.7"><defs><linearGradient id="a" x1="0" x2="440" y1="252" y2="0" gradientUnits="userSpaceOnUse"><stop offset="0" stop-color="#3081ED"/><stop offset="1" stop-color="#fff" stop-opacity="0"/></linearGradient></defs><g fill="none" transform="scale(.26458)"><rect width="440" height="252" fill="#6fd6cf" rx="4"/><rect width="440" height="252" fill="url(#a)" rx="4"/><mask id="b" fill="#fff"><rect width="440" height="252" rx="4"/></mask><rect width="440" height="252" stroke="#fff" stroke-width="16" mask="url(#b)" rx="4"/><text fill="#fff" stroke="#000" stroke-linecap="round" stroke-linejoin="round" stroke-opacity=".6" font-family="Rubik" font-size="21" font-weight="bold" letter-spacing="0em" style="white-space:pre"><tspan x="131.6" y="173.2">Welcome ImRock </tspan><tspan x="80.3" y="197.2">to Welcomer Support Guild </tspan><tspan x="77.4" y="221.2">You are the 256th member!</tspan></text><circle cx="226" cy="79" r="59" fill="#fff" stroke="#fff" stroke-width="6"/><g stroke-width=".1"><path fill="#abe0e6" d="M199.8 121l-1.4-.3a9.6 9.6 0 01-5.8-5c-1-2-1.4-3.7-1.6-5.9 0-1 0-1.1-.2-1.1l-1.1.3c-.8.2-1.3.2-2.5.3a6.7 6.7 0 01-5.7-2.1 9.4 9.4 0 01-2.5-4.3c-.2-.8-.3-3-.2-4.1.3-2.1 1.5-4.3 3.4-6.6l.7-1-1-1.3a16.1 16.1 0 01-2.7-4.7c-.2-.6-.2-.8-.2-3 0-2.3 0-2.7.6-4.3.8-2.4 2.5-3.8 5.4-4.3a19 19 0 018.6 1.3c.5.2.7.2.7.1l.4-2a28 28 0 013.5-11c1.5-2.8 3.6-5.7 5.4-7.7 2.8-3 5.5-4.8 9.7-6.2a17.8 17.8 0 016-1.1l.4-1.4c1.5-5 3-7.1 5.3-8.2 1-.5 1.5-.6 2.6-.6 1.6 0 2.8.6 4.4 2.2a14.2 14.2 0 013.8 6.5c.6 1.8.6 1.8 1 1.9a89.4 89.4 0 003.7.9c2 .7 3.3 1.4 6.4 3.7 5 3.7 6.8 5.8 9 10a28.9 28.9 0 013.2 14v3.5c.1 0 .5 0 1.2-.3 1.3-.6 3.3-1.3 4.3-1.5 1-.2 3.3-.2 4.1 0a6 6 0 013.7 3c.6 1.2.8 2 .8 3.8 0 1.6 0 1.7-.4 2.6l-.7 1.6c-.7 1.3-2.2 3.1-4.3 5.3l-1.1 1.1.6.7c1 1 2 2.3 2.6 3.4 1 2 1.4 3.6 1.2 6.2-.2 2.2-.7 3.8-1.8 5.4-.6.9-1.7 2-2.4 2.4-.6.4-1.7.8-2.6 1h-5c-1.7-.4-3.5-1-5.1-2.1l-.6-.4-.4 1.3c-.5 1.5-1.2 3.3-1.8 4.3a6.1 6.1 0 01-3.9 3c-1 .3-3.7.3-4.7 0-2.8-.7-4.1-2.4-4.7-6a45.4 45.4 0 01-.5-4.7l-1.4.4a31.8 31.8 0 01-20.6-.8l-1-.3-.6 1.4c-2 5-4.3 8-7.7 9.7-2.1 1-4.3 1.4-6.5 1z"/><path fill="#72ade5" d="M200 121a13 13 0 01-3.2-1c-1-.5-2.2-1.5-3-2.5a14.7 14.7 0 01-2.7-7.8c0-.6-.1-1.1-.2-1.1l-1.2.3c-1.2.3-1.4.3-2.8.3-1.8 0-2.2 0-3.6-.7-.6-.3-1-.5-1.8-1.4a8 8 0 01-2-3.1c-1.4-3.4-.8-7 1.7-10.4l1.2-1.6.6-.7-1-1.5a14.7 14.7 0 01-2.7-4.6c-.3-.8-.3-1-.3-2.8 0-2.1 0-2.7.6-4.4.4-1.3 1-2.3 1.9-3a6 6 0 012.2-1c2.6-.8 5.5-.6 9.4.8l1.2.3.4-2.1c1.2-6.8 2-9.1 5.4-14 2.8-4.2 5.6-7.1 8.7-8.9 2.7-1.6 6.6-2.8 9.7-3h.8l.5-1.6c1.2-4 2.4-6 4-7.3 2.2-1.7 4.6-1.8 6.8-.3a14.2 14.2 0 015.1 7.6l.7 1.8.6.2a20.4 20.4 0 019.7 4.4c5 3.8 7 6 9.1 10.2a30.2 30.2 0 013.3 14.1l.1 3.4 1.2-.4c4.6-1.9 7.2-2.1 9.6-.9.7.3 1.7 1.2 2 1.9.7 1 1.2 3 1.2 4.3 0 1.4-.5 3.2-1.2 4.4a36.3 36.3 0 01-5.3 6.2l.7.8a15 15 0 013.3 5.3c1 3 .3 7-1.4 9.5-.6.9-1.8 2.1-2.5 2.5-.6.4-1.7.7-2.8 1a13.5 13.5 0 01-9.8-2.1c-.5-.5-.7-.5-.7-.2s-.8 2.4-1.3 3.6c-.9 2.2-1.9 3.4-3.2 4.1a9.7 9.7 0 01-6.1.7c-3.5-.9-4.7-3-5.2-9.2 0-1.1-.1-1.6-.2-1.6l-1.3.5a34 34 0 01-8.7 1.3 27.7 27.7 0 01-12.9-2.5l-.7 1.6c-2 5-4.4 8-7.8 9.6-2 1-4 1.3-6 1zm3.3-3.3c3.3-.9 5.7-3.6 7.7-8.5.9-2.1.9-2-.2-2.7-2.7-1.8-5-4-6.7-6.5a31.4 31.4 0 01-4.3-16.2v-2.1l-2-1.1c-4-2.3-5.7-3-8.3-3.6-3-.7-5.6-.3-6.5 1-.6 1-1 2.9-.9 4.7.1 2 .4 2.6 3 6l1.5 2.3c.2.6 0 1-1 2-2.3 2.8-3.2 4.2-3.5 6-.4 1.8 0 3.5.9 5 1.6 2.5 4.2 2.8 8.4 1 1.1-.5 1.5-.5 2-.3.8.4 1 .9.8 2.7-.2 3.2.5 6 2 8 1.6 2.2 4.3 3 7 2.3zm43.8-.6c.7-.3 1.3-.9 1.8-2 1-1.8 1.5-3.7 1.8-5.6.3-1.8.6-2.3 1.7-2.3.6 0 .6 0 2.2 1.2a11 11 0 007.8 2.7c2 0 3.1-.5 4-1.7 1-1.4 1.4-2.6 1.5-4.6a6 6 0 00-.6-3.6c-.6-1.2-1.6-2.5-3.2-4.2-1.2-1.3-1.4-1.6-1.4-2.1 0-.6.2-1 1-1.6.9-.6 1.6-1.3 3.1-3 2.6-2.8 3.2-4 3.2-5.8 0-1.4-.3-2.3-1-3-.6-.7-1.2-.8-2.7-.7-2 0-4.4 1-7.9 2.9-.6.3-.8.4-1.2.3-.5 0-.9-.3-1.2-.8-.2-.3-.2-.4-.2-1.2.2-2 .2-5.8.1-7.8-.2-3.9-1-6.7-2.7-10.3-2-4.1-3.8-6-9-9.9-1.8-1.3-2.9-2-4-2.4l-2.7-.8s0 .7.3 1.5c.8 2.8.9 3.6 1 5.8 0 2.2-.2 2.7-1 4.3-.3.8-.5 1-1.4 1.9-2 2-4.6 3-8.4 3-3.4 0-5.2-.6-8-2.5-2.3-1.6-2.9-2.1-3.2-3.3a5 5 0 01-.3-1.8c0-1.2.2-2.2 1-4.8l1-4.6-2 .2c-1 .2-3 .9-4.3 1.4-3.8 1.6-7 4.7-10.4 10.1a23.8 23.8 0 00-3.3 7.7c-.4 1.9-1.2 7-1.1 7l2.8 1.6s.3-.6.4-1.4a40 40 0 014.5-11 19 19 0 013.4-3.7c1.8-1.6 2.2-1.8 3-1.3.8.3 1 .7 1 2.2a39 39 0 002.8 10.3 17 17 0 008.8 8.8c.8.2 1.1.3 2.4.3 2.8.1 5.7-.6 7.5-1.8 2.3-1.5 4.9-5.1 7.4-10.5l2.6-5.9c.3-1 .5-1.2.9-1.4.4-.3 1.2-.3 1.6 0a29 29 0 014.1 6.2 41 41 0 011.9 8.3c.5 4.4.6 10.3.3 12.7a28.8 28.8 0 01-5.4 12.3 24.4 24.4 0 01-6.7 5.8c0 .7.3 4.4.5 5.4.4 2.5.9 3.3 2.3 3.6.6.2 3 0 3.6-.1z"/><path fill="#8591b8" d="M200 121a13 13 0 01-3.2-1c-1-.5-2.2-1.5-3-2.5a14.7 14.7 0 01-2.7-7.8c0-.6-.1-1.1-.2-1.1l-1.2.3c-1.2.3-1.4.3-2.8.3-1.8 0-2.2 0-3.6-.7-.6-.3-1-.5-1.8-1.4a8 8 0 01-2-3.1c-1.4-3.4-.8-7 1.7-10.4l1.2-1.6.6-.7-1-1.5a14.7 14.7 0 01-2.7-4.6c-.3-.8-.3-1-.3-2.8 0-2.1 0-2.7.6-4.4.4-1.3 1-2.3 1.9-3a6 6 0 012.2-1c2.6-.8 5.5-.6 9.4.8l1.2.3.4-2.1c1.2-6.8 2-9.1 5.4-14 2.8-4.2 5.6-7.1 8.7-8.9 2.7-1.6 6.6-2.8 9.7-3h.8l.5-1.6c1.2-4 2.4-6 4-7.3 2.2-1.7 4.6-1.8 6.8-.3a14.2 14.2 0 015.1 7.6l.7 1.8.6.2a20.4 20.4 0 019.7 4.4c5 3.8 7 6 9.1 10.2a30.2 30.2 0 013.3 14.1l.1 3.4 1.2-.4c4.6-1.9 7.2-2.1 9.6-.9.7.3 1.7 1.2 2 1.9.7 1 1.2 3 1.2 4.3 0 1.4-.5 3.2-1.2 4.4a36.3 36.3 0 01-5.3 6.2l.7.8a15 15 0 013.3 5.3c1 3 .3 7-1.4 9.5-.6.9-1.8 2.1-2.5 2.5-.6.4-1.7.7-2.8 1a13.5 13.5 0 01-9.8-2.1c-.5-.5-.7-.5-.7-.2s-.8 2.4-1.3 3.6c-.9 2.2-1.9 3.4-3.2 4.1a9.7 9.7 0 01-6.1.7c-3.5-.9-4.7-3-5.2-9.2 0-1.1-.1-1.6-.2-1.6l-1.3.5a34 34 0 01-8.7 1.3 27.7 27.7 0 01-12.9-2.5l-.7 1.6c-2 5-4.4 8-7.8 9.6-2 1-4 1.3-6 1zm2.2-3c3-.5 5.6-2.4 7.4-5.8.8-1.4 2.1-4.5 2.1-5l-.6-.5A22.5 22.5 0 01201 92.4c-.8-3-1-4.6-1.2-8v-2.7l-2-1.1c-5-2.9-7.8-3.9-11-3.9-2.8 0-3.9.7-4.4 3-.3 1.1-.4 3.2-.2 4 .2 1.3.8 2.3 3 5.3l1.4 2c.2.6 0 1-1 2-2.3 2.7-3.2 4.2-3.6 6-.3 1.8 0 3.6 1 5.1.6.9 1.2 1.3 2 1.7 1.4.7 3.8.4 6.5-.9 1-.4 1.4-.4 2-.2.7.4.9.9.7 2.7-.1 2.5.2 4.6 1.1 6.5 1.3 2.6 3 3.9 6 4.1h1zm44.9-1c.8-.2 1.2-.7 1.9-2 1-2 1.5-3.8 1.8-5.7.2-1.6.6-2.1 1.6-2.1.6 0 .7 0 2 1 2.4 1.9 3.5 2.4 5.7 2.8l2.3.1c2 0 3.1-.5 4-1.7 1-1.5 1.4-2.6 1.5-4.7a6 6 0 00-.7-3.7c-.6-1.2-1.5-2.4-3-3.9-1.3-1.3-1.5-1.7-1.5-2.2 0-.6.3-1 1.2-1.7 1-.7 3-2.8 4.4-4.6 1.7-2 2.1-3.8 1.5-5.9-.7-2.2-3-2.6-7-1.1l-4.4 2c-.6.4-.8.5-1.2.4-.5 0-.8-.2-1.2-.7-.1-.2-.2-.4-.1-1.6l-.1-9.2a27 27 0 00-3.2-9.9 23.9 23.9 0 00-8.3-8.5c-1.9-1.4-3-2-4-2.5-1-.4-2.7-.9-2.8-.8 0 0 0 .7.3 1.5.7 2.5.9 3.6 1 5.3 0 3.1-.6 5-2.4 6.8-1 1-2 1.6-3.5 2-1.5.6-2.3.7-4.3.8-3.6.1-5.6-.4-8.5-2.3-3-2-3.5-2.9-3.6-5 0-1.3.2-2.4.8-4.6 1-3.6 1.3-5 1.2-5 0 0-1.7.1-2.8.4-1.2.3-2.9 1-4.2 1.5-3.3 1.6-6 4.3-9 8.8-3 4.6-3.6 6.2-4.7 13-.4 2-.5 2.6-.4 2.7l2.8 1.6s.3-.6.4-1.4c1.2-4.8 3.6-10 5.7-12.5 1-1.1 3.5-3.4 4-3.6.5-.2.7-.2 1.3 0 .7.4.8.7 1 2.3 0 1.4.1 2 .7 4.4 1 3.6 2 6.3 3.3 8.3 1.3 1.8 3 3.6 4.5 4.8a13 13 0 003.3 1.7 14 14 0 009.3-1.4c3-1.8 6.4-7 9.8-15.3 1-2.5 1-2.4 1.3-2.7.5-.3 1.2-.3 1.7 0 .4.2 2.8 3.5 3.6 5a23 23 0 011.6 5c.7 3.2 1 5.8 1.3 11a25.3 25.3 0 01-11.5 23.7c-.5.3-.8.6-.8.7 0 .7.3 4.2.5 5.2.4 2.6.9 3.4 2.3 3.7.6.2 3 0 3.6-.1zm-17.2-9c3.5-.4 6.1-1.1 8.6-2.3 4-2 6.9-5 9-9.5 1.3-2.5 1.9-4.2 2.2-6.4a67 67 0 00-.4-12c-.2-2.3-1-6-1.6-7.5-.3-.8-1.2-2.3-1.5-2.6l-.8 1.5A57.3 57.3 0 01240 79c-3 4.1-5.5 5.8-10.2 6.6-1.7.3-4 .3-5.4 0-3.1-.6-6.1-2.5-8.8-5.7a26.2 26.2 0 01-5.6-12.1l-.5-2c0-.3-1 .7-1.8 1.9a30.5 30.5 0 00-4.7 19.5 31 31 0 003 10.1 17 17 0 003 3.8 24.4 24.4 0 0020.8 7zm-5.4-3.1c-1.4-.4-2-1-2-2 0-1.2 1.1-2 2.9-2.2 1.7-.1 3.2.6 3.5 1.8.3.9-.4 1.8-1.6 2.3-.7.2-2 .3-2.8.1zm13.1-8.5c-1.3-.3-2.5-1-3-2-.6-.8-.8-1.3-.8-2.3 0-.7.1-.9.4-1.5a4.7 4.7 0 014.4-2.6c2.3 0 4.3 1.6 4.6 3.7.4 2-1.1 4-3.4 4.6-.5.1-1.7.2-2.2 0zM212.1 95a5.3 5.3 0 01-4-2.6c-.3-.5-.3-.7-.3-1.6 0-.9 0-1 .3-1.6l.8-1.2c2.6-2.5 7.2-1.8 8.7 1.2.3.6.3.8.3 1.6s0 .9-.4 1.6c-.9 1.9-3.2 3-5.4 2.6z"/><path fill="#6c8fa1" d="M199.9 121c-5-.8-8.4-5.2-8.7-11.2 0-.7-.1-1.2-.2-1.2l-1.2.2c-1 .3-1.3.3-3 .3s-1.9 0-2.5-.2a6 6 0 01-2.3-1.3 9.3 9.3 0 01-3.1-6.7c-.2-3.1.8-5.5 3.3-8.6l.8-1-1.1-1.7c-2.5-3.4-2.9-4.4-2.8-7.7 0-2.7.4-4.2 1.3-5.6a6 6 0 013.7-2.4c.7-.2 1-.2 2.7-.2 1.5 0 2.2 0 2.8.2a30 30 0 014.8 1.3l.4-2c1-5.8 1.6-7.9 3.4-11.1.9-1.6 2.7-4.4 3.7-5.6 1.7-2.1 3.7-4.1 5.5-5.4a23 23 0 0111-4h1l.5-1.7c1.2-3.9 2.2-5.8 3.8-7 1.3-1 2.6-1.5 4.2-1.4 1.6 0 2.7.7 4.3 2.4a15 15 0 013.6 6.4l.5 1.6 1 .2c1.2.2 2.7.6 3.7 1a21 21 0 015.7 3.4A28.1 28.1 0 01259 76.2l.1 3.5 1.2-.4c3.6-1.6 6.2-2 8.4-1.5 1 .3 1.8.8 2.6 1.6 1.2 1.2 1.7 2.5 1.8 4.7.1 2.3-.5 4-2 6a55.9 55.9 0 01-4.5 5l.7.9c1.6 1.7 2.9 3.6 3.3 5.2.4 1 .5 2.5.4 4.1-.2 3-1.1 5-3 7-1.6 1.3-2.8 1.8-5.6 1.8-3.3.1-5.5-.4-8-2a3 3 0 00-.8-.5l-.4 1a26 26 0 01-1.8 4.5c-.5 1-1.6 2-2.5 2.5a8 8 0 01-3.8.8c-2.4 0-3.8-.5-5-1.7-1-1-1.5-2-1.9-4.3a44.2 44.2 0 01-.6-4.9l-1.3.4a33.8 33.8 0 01-20.8-.8l-1-.3-.6 1.5a18 18 0 01-6.3 8.8c-1 .6-2.4 1.3-3.6 1.6a13 13 0 01-4.1.3zm3.7-3.3c1.6-.5 3.3-1.7 4.4-3 1.1-1.3 2.2-3.3 3.1-5.7.8-2 .8-1.8.2-2.1a26.3 26.3 0 01-7.1-7 32 32 0 01-4.3-16.5v-1.7l-2-1.1c-4-2.3-6-3.1-8.6-3.7-2.2-.4-4-.3-5.4.3-.5.3-.7.4-1 .9-.6 1-1 3.3-.9 4.9.2 1.6.6 2.5 2.9 5.6l1.6 2.2V92l-.9 1a16 16 0 00-3.4 5.1c-.3 1-.4 3-.1 4 .2 1 .8 2 1.5 2.7a4 4 0 002.4 1.4c1.2.2 3.3-.2 5-1 1.3-.6 1.7-.7 2-.6.5.2.8.4 1 .8.2.3.3.4.2 2.3 0 2.3 0 3.5.5 5 1 2.8 2.6 4.5 5 5.1 1.1.3 2.8.3 4-.1zm42.7-.4c1.6-.3 2.3-1 3.3-3.6.7-1.7 1-2.8 1.2-4.2.2-1.4.3-1.7.8-2 .8-.5 1.2-.4 2.4.6 2.8 2.1 4.2 2.8 6.8 3a8 8 0 004.3-.5c.7-.4 1.6-1.3 2.1-2.4.6-1.3.8-2.1.8-4a5 5 0 00-.3-2.1c-.5-1.5-1.4-2.9-3.5-5.1-1.4-1.4-1.6-1.8-1.4-2.4.1-.5.3-.7 1-1.3 1.5-1 4.5-4.4 5.4-5.8a5 5 0 00.9-2.8c0-.7 0-1.2-.2-1.6-.3-1.2-.7-1.8-1.6-2.2-.4-.2-.6-.2-1.7-.2a6 6 0 00-2 .3c-2.2.6-3.8 1.3-5.5 2.3-1 .6-1.2.6-1.8.6-.5 0-.6 0-1-.3-.4-.5-.5-1-.4-2.1.2-1.2.2-6.7 0-8.5-.3-3.2-1-6-2.7-9.4-2-4-3.7-5.8-8.7-9.4a15.6 15.6 0 00-7.1-3.4l.3 1.5c1.1 3.9 1.3 6.1.8 8.4-.7 2.8-2.8 4.9-6 5.9-3 1-7 .8-9.7-.3a22 22 0 01-5.1-3.4c-1.5-1.6-1.5-3.3-.1-8.3l1-4.2c0-.2 0-.2-.7-.1-2 .2-4.7 1-7 2.1-2.7 1.5-5.4 4-8 8a25.6 25.6 0 00-4.4 9.3 123 123 0 00-1.2 6.8c0 .2.2.4 1.5 1a8 8 0 001.6.8v-.2a36.3 36.3 0 013.8-10.5c1.3-2.4 2.5-3.8 5.2-6.1.8-.7 1-.7 1.5-.7 1 0 1.5.7 1.5 1.8 0 1.5.8 5.1 1.9 8.3 1.8 5.6 6 10.3 10.2 11.5 1.2.3 3.8.3 5.3 0a10 10 0 006-3.1c2.2-2.3 4.7-6.6 7.1-12.2l1.2-2.9c.4-1.2 1-1.6 2-1.5.4.1.7.4 2 2.2 1.8 2.6 2.4 3.8 3 6.1a56 56 0 011.2 21.7 28 28 0 01-5.3 10.1 23.6 23.6 0 01-5.5 4.8l-.8.4v.7c0 .6.2 3.6.4 4.4.3 2.2.7 3.3 1.4 3.7.7.5 2.3.7 3.8.5zm-15.6-9.4c5-.7 8.7-2.2 11.9-5 3-2.6 5.6-6.9 6.6-10.8.5-2 .6-2.3.6-6.4 0-6-.5-9.9-1.7-14a14 14 0 00-1.7-3.8l-.3-.4-.7 1.7c-3.7 8.2-7 13-10.8 14.8-2.2 1.1-4.9 1.7-7.6 1.7-2.5 0-4.4-.5-6.4-1.7-3.3-2-6.7-5.8-8.4-9.9a42.6 42.6 0 01-2.6-8.5 9 9 0 00-1.9 2.2 32.1 32.1 0 00-4.4 20.5 31 31 0 002.7 8.6c1.8 3.5 5.3 6.7 9.6 8.8a24.4 24.4 0 0015.1 2.2zm-6.2-3c-1.3-.4-2-1-2-2 0-2.2 4-3 5.9-1.3 1.4 1.5 0 3.3-2.5 3.4l-1.4-.1zm13-8.6c-.9-.1-1.9-.7-2.6-1.4a3.8 3.8 0 01-.5-4.6 5 5 0 014.2-2.3c2.8 0 5 2.3 4.6 4.8-.4 2.4-3 4-5.8 3.5zm-25.8-1.2c-1.5-.3-3-1.3-3.6-2.6-.3-.6-.3-.8-.3-1.6 0-.9 0-1 .3-1.6a5 5 0 012.1-2c1-.6 1.8-.7 3-.7a5 5 0 013.8 1.8c.6.7 1 1.5 1 2.5 0 .7-.1 1-.4 1.5-1 2-3.4 3.1-5.9 2.7zM229.5 64a8 8 0 004.7-2c1.5-1.5 1.8-3.8.8-7.7-.3-1.4-2-7.1-2.5-8.5-.9-2.4-2.6-4.8-4-5.5-.7-.3-1.5-.3-2.2 0-.6.4-1.4 1.2-1.8 2-.8 1.3-2 5-2.5 7.4l-1.3 5.5c-.7 2.7-1 4.2-1 5 0 .3.2.5.5.8.7.6 2.6 1.8 3.5 2.2 1.6.8 3.6 1 5.8.8z"/><path fill="#547193" d="M200 121c-1.6-.3-3.3-1-4.6-2-2.4-2-4-5.5-4.2-9.3a6 6 0 00-.2-1.2l-1.2.3c-1.2.3-1.4.3-3 .3-1.8 0-2.4 0-3.6-.7a11 11 0 01-3-2.9 10 10 0 01-1.3-5c0-3 1-5.3 3.6-8.5l.6-.7-1-1.5a15 15 0 01-2.8-4.7c-.2-.7-.2-1-.2-2.8 0-2.1.1-2.7.6-4.3.7-2.2 2-3.4 4.5-4 .7-.3 1-.3 2.6-.3 1.4 0 2 0 2.7.2a29.8 29.8 0 014.8 1.3l.5-2c1-5.8 1.6-7.8 3.5-11.2 3-5.5 6.8-9.7 10.5-11.8 2.8-1.6 6.6-2.8 9.5-3 .8 0 1-.1 1-.2l.5-1.3c1.1-3.7 2.5-6.2 4-7.4a6 6 0 014.1-1.3c1.5 0 2.8.8 4.3 2.3 1.6 1.7 2.6 3.5 3.5 6.5l.7 1.6.7.2a19.4 19.4 0 019.7 4.5A28.2 28.2 0 01259 76.3c0 2.5.1 3.4.2 3.4l1.2-.4c4.4-1.9 7.1-2.1 9.5-1 2 1 3 3 3.2 5.8.1 2.1-.5 3.9-2 6a51.8 51.8 0 01-4.5 5l.7.8c1.5 1.6 2.8 3.7 3.3 5.3.7 2.3.5 5.7-.5 8a8.7 8.7 0 01-3.7 4.1c-1.3.6-2.1.8-4 .8-3.2.1-5.6-.5-8-2l-.8-.6-.3.8c-.5 2-1.7 4.6-2.5 5.7-1.2 1.6-3 2.4-5.7 2.4-1.6 0-2.6-.2-3.7-.7-2.2-1-3.1-3.3-3.6-8.7 0-1.2-.1-1.5-.3-1.5l-1.1.3a29.3 29.3 0 01-21.8-1.1l-.6 1.3a20.6 20.6 0 01-5 8 13 13 0 01-5 2.7c-1.2.3-3 .4-4 .3zm3.2-3.1a9.6 9.6 0 004.4-2.7c1-1 1.7-2 2.5-3.7.6-1.3 1.7-3.9 1.7-4.2l-.4-.5a30.7 30.7 0 01-6-5.3 25.7 25.7 0 01-4.8-11.2c-.5-2.3-.7-3.9-.7-6.4v-2.2l-2.2-1.3c-4-2.2-5.8-3-8.3-3.5-2.6-.6-5-.3-6 .6-.8.7-1.3 2.2-1.4 4.4 0 2.6.1 3 3.4 7.5 1 1.4 1.2 1.8 1 2.3 0 .2-.5 1-1 1.6-2 2.3-3 3.7-3.4 5.3-.2 1-.2 2.7 0 3.7.7 2 2 3.4 3.5 3.8.5.2.8.2 1.7.1 1.3 0 2.4-.3 4-1l1.6-.6c.4 0 1 .4 1.2.8.2.3.2.6.1 2.3-.2 3.6.8 6.8 2.7 8.6a7 7 0 006.3 1.6zm44-.8c1-.4 1.6-1.3 2.5-3.6.6-1.4 1-2.7 1.2-4.2 0-.6.2-1.2.3-1.4.2-.4.7-.6 1.3-.6.4 0 .5 0 1.9 1 3 2.3 4.2 2.8 7 2.9 3.2.1 4.7-.6 5.8-3 .7-1.3.8-2 .8-3.8a6 6 0 00-.2-2.4c-.3-.7-1-2-1.8-3l-1.7-2c-1.4-1.5-1.5-1.6-1.5-2 0-.6.3-1.1 1.2-1.7 1-.8 3.7-3.6 4.9-5.2.6-.8 1-2 1.2-2.8.2-1.4-.2-3.2-1-3.9-1.5-1.5-5.2-.8-10.1 1.8-1 .6-1.3.7-1.7.7-.5 0-1-.3-1.3-.8v-2.2a69 69 0 00-.1-8.9 24.8 24.8 0 00-11.5-18c-1.8-1.3-3-2-4-2.5l-3-.8c-.1.1 0 .3.3 1.5a20.3 20.3 0 01.8 8c-.5 2.7-2 4.5-4.6 5.8-2 .9-3.8 1.2-6.5 1.1a12 12 0 01-7.9-2.8c-1.4-1-2.1-1.7-2.5-2.5-.2-.5-.3-.7-.3-1.7 0-1.5 0-2.4 1-5.7.9-3.3 1-4 1-4.2-.2-.1-1.7.1-3 .4a22 22 0 00-6.7 3c-2.5 1.8-5 4.7-7.3 8.5-2 3.3-2.8 5.2-3.5 8.8l-1 5.8 3.1 1.7a39 39 0 014.9-12.4 21 21 0 013.8-4c1.3-1.2 1.7-1.3 2.3-1.2.8.3 1 .9 1.1 2.4 0 .8.2 1.9.9 4.4.7 2.8 1.2 4.4 2 5.9 1 2.2 2.3 4 4.2 5.8 2.2 2.1 4 3.1 6.5 3.3 2.7.3 6.3-.6 8.2-1.9 3-2 6.3-7.4 9.5-15.3 1-2.4 1-2.6 2-2.6.8 0 .8 0 2 1.6a19 19 0 014 8.9c.6 2.9 1 5.9 1.2 10.7.2 5.8-.4 9-2.4 13.3a23.4 23.4 0 01-9 10.2 6 6 0 00-.9.6c-.1.3.4 5.4.8 6.8.5 2 1.2 2.5 3.9 2.5 1 0 1.4 0 1.9-.3zm-17.5-9c3.8-.5 6.2-1 8.8-2.4 4.2-2.1 7.4-5.5 9.6-10.4 1.5-3.2 1.9-5.8 1.8-10.3 0-2.6-.3-5.7-.5-7.7-.4-2.7-1.3-6.2-2-7.7-.5-1-1.2-2.2-1.3-2l-.6 1.3-1.7 3.6a30.5 30.5 0 01-7.1 10.1 15.6 15.6 0 01-9 3c-2.5.2-4.2-.2-6.2-1.2a15 15 0 01-4.4-3.2 24.8 24.8 0 01-6.9-13.3l-.6-2.4-.6.5c-2.2 2.2-5 8.8-5.8 13.8-.7 4.6-.3 8.8 1.3 13.7 1.5 4.4 3.5 7.2 7.4 10a25 25 0 0017.8 4.5zm-5.5-3.4c-1.2-.3-1.9-1.3-1.7-2.2 0-.4.7-1 1.3-1.4.6-.2.7-.3 1.9-.3 1.4 0 1.9.2 2.6.9 1 .9.7 2.2-.8 3-.8.3-2.3.4-3.3 0zm13.8-8.4a4.6 4.6 0 01-4-3 4 4 0 01.3-2.7A5 5 0 01239 88c2.3.3 4 1.9 4.2 3.9.2 2.6-2.3 4.6-5.2 4.3zM211.4 95a5.1 5.1 0 01-3.1-2.3c-1.6-2.8.8-6 4.5-6 2.1 0 4 1 4.7 2.6.3.5.3.7.3 1.6 0 .8 0 1-.3 1.6a5 5 0 01-3.3 2.5 7 7 0 01-2.8 0zm19.4-31.1c2.4-.6 4-1.8 4.5-3.5.2-.6.3-.9.3-2.3 0-2.3-.3-3.3-2.2-9.5-1.3-4.2-2-5.7-3.6-7.3-1.2-1.3-2-1.6-3.3-1.1-1.4.5-2.3 2-3.5 5.6a43 43 0 00-1.4 5.5l-.8 3.4c-.9 3.1-1 4-1 5v.9l.3.3c.4.4 2.1 1.6 3 2.1a9 9 0 002.6 1c1 .1 4.1 0 5-.1z"/><path fill="#546063" d="M200 121c-1.6-.3-3.3-1-4.6-2-2.4-2-4-5.5-4.2-9.3a6 6 0 00-.2-1.2l-1.2.3c-1.2.3-1.4.3-3 .3-1.8 0-2.4 0-3.6-.7a11 11 0 01-3-2.9 10 10 0 01-1.3-5c0-3 1-5.3 3.6-8.5l.6-.7-1-1.5a15.3 15.3 0 01-2.8-4.7c-.2-.7-.2-1-.2-2.8 0-2.1.1-2.7.6-4.3.7-2.2 2-3.4 4.5-4 .7-.3 1-.3 2.6-.3 1.4 0 2 0 2.7.2a29.8 29.8 0 014.8 1.3l.5-2c1-5.8 1.6-7.8 3.5-11.2 3-5.5 6.8-9.7 10.5-11.8 2.8-1.6 6.6-2.8 9.5-3 .8 0 1-.1 1-.2l.5-1.3c1.1-3.7 2.5-6.2 4-7.4a6 6 0 014.1-1.3c1.5 0 2.8.8 4.3 2.3 1.6 1.7 2.6 3.5 3.5 6.5l.7 1.6.7.2a19.4 19.4 0 019.7 4.5A28.2 28.2 0 01259 76.2v3.5c.1 0 .5 0 1.3-.4 4.4-1.9 7.2-2.2 9.6-1 2 1 3 3 3.2 5.8.1 2.1-.5 3.9-2 6a51.8 51.8 0 01-4.5 5l.7.8c1.5 1.6 2.8 3.7 3.3 5.3.7 2.3.5 5.7-.5 8a8.7 8.7 0 01-3.7 4.1c-1.3.6-2.1.8-4 .8-3.2.1-5.6-.5-8-2l-.8-.6-.3.8c-.5 2-1.7 4.6-2.5 5.7-1.2 1.6-3 2.4-5.7 2.4-1.6 0-2.6-.2-3.7-.7-2.2-1-3.1-3.3-3.6-8.7 0-1.2-.1-1.5-.3-1.5l-1.1.3a29.3 29.3 0 01-21.8-1.1l-.6 1.3a20.6 20.6 0 01-5 8 13 13 0 01-5 2.7c-1.2.3-3 .4-4 .3zm2.7-3c3.3-.6 6-3.1 7.8-7.3.7-1.4 1.4-3.4 1.3-3.5l-1.2-1a22.9 22.9 0 01-7.7-8.6 36 36 0 01-3-16l-5.7-3.1a17.7 17.7 0 00-7-1.9c-2.4-.1-3.9.4-4.5 1.7-.5 1-.8 3.5-.7 5 .2 1.5.6 2.3 2.8 5.3l1.5 2.1.2.7c0 .5 0 .6-1.6 2.3-2.3 2.8-3.1 4.5-3.1 6.7 0 2.3 1.3 4.6 3 5.5.6.3.8.3 1.7.4 1.6 0 2.9-.3 5-1.2.8-.4 1.2-.5 1.4-.4.5 0 .8.3 1 .7.3.3.3.4.2 2.2-.1 3.2.3 5.2 1.6 7.4a6.8 6.8 0 007 3zm43.6-.6c1.5-.3 2-.7 2.9-2.5.7-1.6 1.4-3.6 1.6-5 .2-1.4.4-2 .7-2.3.3-.3 1-.4 1.3-.3l1.8 1.2c2.7 2 4.1 2.6 6.9 2.7 2.5 0 3.5-.2 4.6-1.3a7 7 0 002-4.8c.2-3-.6-4.8-4.2-8.5-.8-.9-1-1.1-1-1.5-.2-.6.1-1 .9-1.6l3.5-3.5c2.4-2.7 3-4 2.9-5.8-.2-2.3-1-3.4-3-3.6-1.6-.2-5.1 1-8.2 2.6-1.4.8-1.9.9-2.4.5s-.7-.7-.6-1.3c.2-7.8 0-10.3-.7-13.2a25.6 25.6 0 00-10-14.6 16.8 16.8 0 00-7-3.8l-1-.1.3 1.3.7 2.8c.3 1.4.3 1.7.3 3.4a7 7 0 01-.3 2.7c-1 3.2-3.3 5.1-7.2 6-.8.1-1.3.2-3 .2-3.6 0-5-.5-8.2-2.5-2.5-1.7-3.1-2.5-3.2-4.5 0-1.3.1-2.3 1-5.8 1-3.6 1-4 1-4.1a18.6 18.6 0 00-12 5.5c-2.5 2.4-5 6-6.7 9.4-.8 1.5-1 2.4-1.5 4.3-.5 2-1.4 7.3-1.2 7.4l3 1.6.4-1.2a42.5 42.5 0 014.8-11.6c1.2-1.6 4.2-4.5 5-4.7.5-.2 1 0 1.4.4.3.3.4.3.5 2 .2 2.3 1.7 7.7 2.7 10 1.7 3.7 5 7.3 8 8.6 1.1.6 2.2.8 3.9.8 2.7 0 5.4-.7 7.2-2a20 20 0 005-5.8 79 79 0 005.4-11.6c.4-.5 1.2-.7 1.8-.4a25 25 0 013.6 5 53.5 53.5 0 012.2 25c-.6 2-2 5-3.3 7.1-1.9 3-4.6 5.8-7.5 7.5l-.8.5v1.2c.3 4 .8 6.8 1.5 7.5.8.7 2.5 1 4.2.7zm-17.3-9.2A21.3 21.3 0 00250 86c0-4.3-.4-8.4-1-11.5-.6-2.5-1-4.1-1.6-5.3-.6-1.1-1.2-2-1.3-1.9l-.9 1.8c-2 4.6-4.1 8.4-6.2 11a13.1 13.1 0 01-8.4 5c-1.8.4-4.6.5-6.1.2-2.8-.6-4.9-1.8-7.4-4.3-3-3-4.7-6-6-10.2l-1.3-5.3c0-.3-.3-.2-1 .5a32.6 32.6 0 00-6 16.6c-.3 6 1.8 13.3 5 17a24.8 24.8 0 0021.2 8.5zm-4.2-3.4c-1.3-.2-2.3-1-2.3-2 0-2 4-2.7 5.8-1.1 1 1 .6 2.3-1 3-.7.2-1.9.3-2.5.1zm13-8.5a4.7 4.7 0 01-3.5-2.5c-1.1-2.3.5-5 3.3-5.6 2.3-.4 4.8 1 5.4 3 .2.8.1 1.9-.2 2.6-.8 1.7-3 2.8-5 2.5zM212 95c-3.1-.5-5-3.2-3.8-5.7 1.3-2.6 5.2-3.4 7.8-1.6.7.4 1.2 1 1.5 1.8.3.5.3.7.3 1.4 0 1-.3 1.8-1.1 2.6A5.4 5.4 0 01212 95zm18-31c4.4-.6 6.2-3 5.6-7.5-.3-1.6-.5-2.6-1.7-6.6a28.6 28.6 0 00-2.4-6.6c-.6-1-.8-1.2-1.7-2-1.3-1.4-2.2-1.7-3.5-1-.5.2-.9.5-1.2.8a25.2 25.2 0 00-3.4 9.4l-1 4.4a17 17 0 00-1 5c0 .8 0 .8.4 1.1.5.5 2.6 2 3.3 2.3 1.7.8 4.2 1.1 6.5.8z"/><path fill="#020202" d="M200 120.8a9.2 9.2 0 01-6.8-4.5c-1.1-1.8-2-5-2-7.3 0-.7.1-.7-1.5-.3-1.2.3-1.4.3-2.8.3-1.5 0-1.7 0-2.5-.2-3.7-1.2-6-5.7-5.3-10 .2-1 .6-2.4 1-3.1a25.5 25.5 0 013-4.5l-.8-1.3a15.6 15.6 0 01-2.8-4.7c-.3-.8-.3-1-.3-2.9 0-2.1.1-2.8.7-4.5.2-.8.9-1.8 1.3-2.3.8-.7 2.4-1.4 4-1.7 2-.3 5.3.2 8.2 1.2l1 .4c.1 0 .2-.3.5-2 1.1-7 2-9.3 5.4-14.4a32 32 0 013.4-4.4c2.7-3 5.3-4.8 9.1-6 2.3-.8 3.8-1.2 5.6-1.3.8 0 1-.1 1.1-.2l.4-1.3a33 33 0 011.8-4.7c.8-1.6 2-2.8 3.3-3.5 3-1.4 6-.2 8.6 3.7.8 1.3 1.3 2.3 2 4.5l.7 1.7.7.2c1.5.2 4.2 1 5.5 1.7 1.7.8 6.6 4.4 8.5 6.2a29.2 29.2 0 017.9 20.7l.1 3.6 1.2-.4a16 16 0 017.3-1.7c2.6.3 4.3 1.5 5 3.7 1 3.2.5 5.9-1.8 8.9a60 60 0 01-4.2 4.7l.6.8c1.5 1.6 2.8 3.6 3.3 5.2 1 3 .5 6.9-1.2 9.5a7 7 0 01-5.2 3.3 18 18 0 01-5 0c-1.8-.5-3.1-1-4.6-2l-.8-.5c-.2 0-.3.3-.5 1-.6 2.2-1.6 4.5-2.4 5.6-.8 1-1.8 1.6-3.3 2-.8.2-1.2.3-2.3.3-3.1 0-5-1-6-3.3-.5-1.1-1-3.4-1.2-6l-.1-1.6s-.7 0-1.5.3c-2.8.8-5.6 1.3-8.8 1.4a27.7 27.7 0 01-13-2.5l-.7 1.6c-1.1 2.8-2.3 4.8-3.7 6.5-2.5 3-6.5 4.6-10 4.1zm3.3-2.8c1-.3 2.2-.9 3-1.6 1.8-1.3 3.2-3.2 4.5-6l1.2-3.2-.9-.7a25 25 0 01-7-7 31.2 31.2 0 01-4-18l-2.4-1.2a26.7 26.7 0 00-8-3.5c-1-.2-1.4-.3-2.8-.3s-1.7 0-2.3.2c-1.4.5-2 1.2-2.4 2.8-.5 1.9-.4 4 0 5.3.4.8 1.3 2.3 2.9 4.3 1.3 1.7 1.3 1.7 1.3 2.3 0 .5-.1.6-1.6 2.3l-1.6 2.1a7.6 7.6 0 00-1.5 5c0 1.3.5 2.4 1.2 3.4.5 1 1 1.4 2 1.8.5.3.7.3 1.7.4 1.6 0 3.2-.4 5.3-1.4l.8-.3c.4 0 1 .4 1.2.7.2.3.2.4.1 2.2-.1 3.2.4 5.3 1.6 7.3a7 7 0 004.6 3.2c.7.2 2.4 0 3.1-.1zm43.7-.7c1-.3 1.5-.8 2.3-2.4 1-2 1.5-4 1.7-5.5 0-1 .2-1.3.5-1.7.4-.3 1-.4 1.4-.2l1.5 1 2 1.4c1.6 1 3.4 1.5 5.5 1.5s3.3-.4 4.3-1.4c.9-1 1.5-2.2 1.8-3.7.2-1 .2-3 0-3.9a14 14 0 00-3.6-5.4c-1.5-1.6-1.7-2-1.3-2.8l1-.8c1.1-.9 3.8-3.7 4.9-5.3a5.8 5.8 0 001-5c-.1-1-.3-1.4-.8-1.8-1.4-1.3-4.3-1-8.4.9l-2 1c-1.1.6-1.7.7-2.2.4-.5-.4-.6-.8-.6-1.6.3-2.9.3-8 0-10.2-.5-3-1.6-6.3-3.2-9.3a23.7 23.7 0 00-8.5-8.7 14.8 14.8 0 00-5.9-3c-.7-.2-1.1-.3-1.2-.2 0 0 0 .6.4 1.8a17.7 17.7 0 01.7 8.3c-1.2 4.2-5.2 6.5-11 6.3a13 13 0 01-8.4-3.2c-1.8-1.4-2.2-2.3-2.1-4.4 0-1.3.2-2 1.2-5.6l.7-3.2V50h-.7c-2 0-5.7 1.3-8 2.7-1.3.7-2.2 1.5-3.6 2.9a35.6 35.6 0 00-5.3 7 26.3 26.3 0 00-3.7 11.7c-.3 1.8-.3 2.3-.2 2.4l3.2 1.8.3-.9c.5-2.3 1.3-4.8 2.4-7.4a18.8 18.8 0 017.2-9.2c.3-.2 1-.2 1.3 0 .5.3.6.6.6 1.8.1 1.3.2 1.8.8 4.2a21.2 21.2 0 006.4 12.3c2.9 2.8 5.7 3.8 9.3 3.3 5-.6 7.3-2.4 10.6-8 1.5-2.4 3.7-7 4.9-10.3.4-1 .5-1.2.9-1.4.4-.2.9-.2 1.3 0l1.5 1.9c1.9 2.6 2.3 3.5 3 5.7a50 50 0 011.6 20.3c-.4 2.4-1 4.2-2.3 6.7-2.3 4.5-5 7.5-9.4 10.2-.3.2-.3.3-.3.7l.5 5.3c.4 2.6 1 3.4 2.9 3.7.7.2 2.3 0 3.1-.2zm-18-9c6.5-.5 11-2.4 14.7-6.1 1.7-1.7 2.9-3.5 4.1-6 2-3.8 2.5-6.7 2.2-12.2a54.2 54.2 0 00-2.4-14.4 9 9 0 00-1.5-2.4l-.8 1.7c-3.1 7-6.2 11.7-9.1 14-1.4 1-3.3 1.8-5.6 2.2-1.8.4-4.6.5-6.1.2-2.7-.6-4.8-1.8-7.3-4.2a22.5 22.5 0 01-5.5-8.9c-.4-1.1-1.4-4.5-1.7-6-.2-1.1-.3-1.2-1-.3a25.9 25.9 0 00-4.8 9.1 28.5 28.5 0 002 22.7 24.4 24.4 0 0022.8 10.6zm-4-3.5c-1-.2-2-.7-2.2-1.3-.3-.6-.1-1.4.5-1.8 1.3-1 3.8-1 5 0 .6.7.6 1.7-.2 2.4-.6.5-2.2.9-3.1.7zm12.6-8.7c-1.9-.4-3.2-1.6-3.5-3.3-.4-2 1.2-4 3.4-4.5 2.1-.4 4.3.6 5.2 2.4.2.5.3.6.3 1.5 0 1 0 1.1-.3 1.6-.9 1.7-3.1 2.7-5.1 2.3zM212.1 95a5 5 0 01-2.9-1.3c-1.3-1.2-1.6-2.8-.9-4.3 1.2-2.4 4.9-3.2 7.4-1.7 1.5.9 2.3 2.6 2 4.1-.6 2.2-3.1 3.6-5.6 3.2zm19-31c1.3-.3 2.3-.8 3.1-1.5 1.1-1 1.5-2 1.6-3.8 0-2-.2-3.5-1.8-8.6a35.6 35.6 0 00-2-6c-1.1-2.1-3-4-4.1-4.2-1-.1-2.4.5-3.2 1.6-1 1.6-2.3 5-3.1 9l-.7 2.9a32.5 32.5 0 00-1.4 6c0 1.4 0 1.5 1.3 2.4 2 1.5 3.6 2.3 5.1 2.5a21.6 21.6 0 005.2-.2z"/></g></g></svg>