<svg xmlns="http://www.w3.org/2000/svg" width="60" height="60" stroke="null" vector-effect="non-scaling-stroke"><defs><clipPath id="a"><path d="M0 36h36V0H0z"/></clipPath><clipPath id="b"><path d="M0 36h36V0H0z"/></clipPath></defs><path fill="none" d="M-1-1h62v62H-1z"/><g><g transform="matrix(.23104 0 0 .23109 -.2 -6)"><g stroke-width=".3"><path fill="#fbc01b" stroke="#fbc01b" d="M117.4 88.1c-2.3-.2-4.4-.8-6.5-1.6-8-3-15.8-9-22.8-12-3.3-1.4-6.2-2.3-10-3.7-6.5-2.3-9.7 4.4-9.7 4.4s-2.1 3-3.7 9.1c-1.1 4.3-2.4 15.3-4.7 22.7-1 3.4-2.6 6.8-4.3 10-2.8 5.2-7.4 9.5-9.7 15-1.2 3-.8 6.3-2 9.3-2 5-6 8.9-8.5 13.7a185.9 185.9 0 00-12.6 36.8c-1.8 8.7-2.7 17.6-3 26.5 0 5.5 0 11.1 1 16.5 1.3 6 2.6 12.3 6.3 17.1 4.8 6.3 12 10.3 19.3 13.6 9.3 4.2 19 7.6 29 10 8.5 2 17.2 2.8 26 3.6a309.7 309.7 0 0053.9.7c11.8-1 23.7-2.2 35.2-5.2 8.4-2.2 16.6-5.3 24.4-9 6.4-3.2 13.7-5.6 18-11.2 4.8-6.2 5.7-14.7 7-22.4 1.1-6.4.4-13 .6-19.4l.8-17 .7-14.4.1-17.2c.2-6 .2-11.9.8-17.7.9-8.4 3.7-17.4 4.2-25 0 0 .7-7.3 1-12.6.2-2.2.3-7.8.3-9.6-.2-7.1-4.6-3.2-6.6-2.4l-15.8 6-84.4-15.8s-16.2 2-24.3 1.2z"/><path fill="#000013" stroke="#170000" d="M178 35c-19 42.4-14.4 46.8-23.7 44.6-9.3-2.3-14.1-.6-14.1-.6.4.2-8 2.4-.5 10.8 6.4 5 18.4 13.3 28.4 18.6a244 244 0 0035 15c12.6 4.4 22.2 8.3 38.7 10.6 16.4 2.3 17.7-1.6 17.7-1.6s3.6-6.6-4.4-11.5c-8-4.8-12.5-7.7-12.5-7.7s-4-2.4-2.6-6.4c1.6-4.6 17.4-41.4 17.7-40.7 0-.1 4.4-6.5-1.5-13.7l-3.3-3.7c-2.7-2.7-4-3.9-6.3-5.4a82.3 82.3 0 00-16.7-9c-10-3.8-12.7-5.6-31-7.9-15.6-1.9-20.8 8.7-20.9 8.7z"/><ellipse cx="186.8" cy="131.6" fill-rule="evenodd" stroke="#2f2e2f" rx="13.2" ry="17.2" transform="matrix(.98965 .14349 -.2591 .96585 0 0)"/></g><g fill="none" stroke="#9aaab4" stroke-linecap="round" stroke-width="6.6"><path d="M53 197.8l56 2.7" transform="matrix(.66771 .33822 -.22804 .9903 19.1 -93.4)"/><path d="M53 197.8l56 2.7" transform="matrix(.70627 .22449 -.15948 .85311 -2.7 -41.3)"/><path d="M53 197.8l56 2.7" transform="matrix(-1.2916 .17035 .37704 .79313 225.2 -1.3)"/><path d="M53 197.8l56 2.7" transform="matrix(-1.2884 -.09168 -.35611 .83082 363.1 29.4)"/></g><ellipse cx="114.2" cy="144" fill-rule="evenodd" stroke="#000" stroke-width=".3" rx="13.3" ry="17" transform="matrix(.99992 .0128 -.22848 .97355 0 0)"/><ellipse cx="75.9" cy="139.4" fill="#fff" fill-opacity=".2" fill-rule="evenodd" stroke="#0b0000" stroke-width="6.3" rx="28.5" ry="28.7"/><path fill="#001" stroke="none" d="M45.2 176.1c.6-.2 1.2-.5 1.9-.3.1 0 .4 0 .4.3 0 .5-.6.6-1.1 1-.7.4-1 1.2-1.5 1.9l-.8 1.8c-.2 1-.4 2-.3 3a7.6 7.6 0 004 5.7c.8.5 1.7.8 2.5 1a16.9 16.9 0 006.3 0 25.9 25.9 0 008.4-3.2l3-1.8 4-2 3.7-2 3.2-1.5c1.1-.5 2.2-1.2 3.3-1.6 1.2-.5 2.4-1 3.6-1.3a27.6 27.6 0 0110.7-.2c1.1.2 2.3.5 3.3 1 1 .4 1.8 1 2.6 1.5l1.8 1.5 2.3 1.4a10.5 10.5 0 006.7 0c1-.2 1.8-.7 2.7-1 1.1-.2 2.3-.3 3.5-.2 1.4 0 2.7.5 4 .8a33.2 33.2 0 016.8 2.6c1.2.6 2 1.1 2.8 1.8l3 2.7 2.8 3 2.3 2.7c1 1.1 1.7 2.3 2.6 3.4l2.4 3.3c.8 1 1.5 2.2 2.5 3.3a22 22 0 002.6 2.4l2.9 2c1.1.7 2.3 1.4 3.6 2 1.1.5 2.3.9 3.5 1.2l3 .9c1.2.2 2.4.5 3.5.4a5 5 0 002.4-.8c.5-.4 1-1 1.2-1.6.2-.6.3-1.2.2-1.8-.1-.7-.5-1.3-.7-2l-1.2-2-.8-1.9c-.3-.5-.6-1-.7-1.5-.2-.6-.6-1.3-.2-1.6.6-.4 1.3.4 1.8.8.8.5 1.3 1.3 2 2l1.6 1.7a19.8 19.8 0 012.5 4.2 11.7 11.7 0 01.9 4.8 18.3 18.3 0 01-.8 4.6c-.3.7-.4 1.3-.9 1.8-.6.8-.6.8-1.4 1.4-.4.4-1 .6-1.6 1l-2.3.9c-1.2.5-3 1-3.7 1.2-1.9.6-2.3.6-4 .9a26.4 26.4 0 01-6.6.2c-1.4 0-2.7-.2-4-.4a71.7 71.7 0 01-8-1.2c-1.5-.2-2.8-.6-4.2-1l-3.2-.7c-2.3-.5-4.6-1-6.8-1.8-1.3-.4-2.5-1.1-3.8-1.7l-3.8-1.6-3.6-1.7-2.6-1.3-2.1-1.5-1.8-1.6-2.7-2.4c-.5-.4-1-1-1.5-1.2-.5-.2-1-.2-1.5-.2-1.8.3-3.3 1.4-5 1.9a33.5 33.5 0 01-8.8 1c-1.7.2-3.5.2-5.3.1l-5-.1-4.8-.2-6.2-.7-4.5-.6a60 60 0 01-7.8-2c-1.6-.5-3-1.3-4.6-2l-3.7-1.5a37.1 37.1 0 01-8.5-6.3c-.7-.7-1.2-1.5-1.8-2.3l-1.5-2.4a9 9 0 01-.6-2 19 19 0 010-6.4c.2-.8.7-1.6 1-2.4.4-.7.6-1.4 1.1-2 1.4-1.6 3.4-2.8 5.4-3.6z"/></g><g clip-path="url(#a)" transform="matrix(-.59882 0 0 .41492 52.4 46.4)"><path fill="#d99e82" stroke="none" d="M20.8 8.4c-.3-1.3-2.4-2-4.6-1.3-2.1.7-3.5 2.3-3.1 3.6.3 1.3 2.4 2 4.6 1.3 2.1-.6 3.5-2.2 3.1-3.6M18 33c-10 0-18-7-18-15.5 0-1 .1-2 .4-3C2 11.2 3.4 13.1 9 16c5.7 2.9 0-4-2-8-.6-1.2-.3-2.3.6-3.1A20 20 0 0118 2c10 0 18 7 18 15.4S28 33 18 33"/><path fill="#5c913b" stroke="none" d="M13 25a3 3 0 10-6 0 3 3 0 006 0"/><path fill="#269" stroke="none" d="M23 27a3 3 0 10-6 0 3 3 0 006 0"/><path fill="#f92e44" stroke="none" d="M32 21a3 3 0 10-6 0 3 3 0 006 0"/><path fill="#fff" stroke="none" d="M31 12a3 3 0 10-6 0 3 3 0 006 0"/></g><g clip-path="url(#b)" transform="matrix(.27262 0 0 -.27267 36 54.1)"><path fill="#3b88c3" stroke="none" d="M14.6 8.3c2.8 1.7 6.6 3.8 9.9 7.1 7 7 12.7 17 11.3 18.4-1.4 1.4-11.4-4.3-18.4-11.3-3.3-3.3-5.4-7.1-7-10z"/><path fill="#c1694f" stroke="none" d="M.4 1.3s7.1-1.5 12 3.5c2.2 2.1 2.2 5 2.2 5l-2.9 2.8s-3.5-.7-5-2.2S4.4 6.2 4 5C3.2 2.3.4 1.3.4 1.3"/><path fill="#ccd6dd" stroke="none" d="M17.9 10.7l-5.2 5.1c-.4.4-1 .4-1.3-.1l-1-1.7c-.4-.5-.3-1.2 0-1.5l4.1-4.1c.4-.4 1-.4 1.5-.1l1.7 1.1c.5.3.6.9.2 1.3"/><path fill="#b1473c" stroke="none" d="M11.2 3.7c-1.2-.7-1.8 0-1.6.6.2.8-.1 1.7-1.2 1.5-1.1-.3-1.9.3-1.5 1.7C7.2 9 5.8 9.4 5 8A18 18 0 014 4.9C3.2 2.3.4 1.3.4 1.3s6-1.2 10.8 2.4"/></g></g></svg>